index-roman.glyphspackage
{
glyphname = exclam;
layers = (
{
background = {
shapes = (
{
closed = 1;
nodes = (
(660,-10,o),
(684,10,o),
(684,45,cs,{
name = hr01;
}),
(684,61,ls),
(684,96,o),
(660,117,o),
(615,117,cs),
(569,117,o),
(545,96,o),
(545,61,cs),
(545,45,ls),
(545,10,o),
(569,-10,o),
(615,-10,cs)
);
}
);
};
layerId = master01;
shapes = (
{
closed = 1;
nodes = (
(637,850,l),
(637,1430,l),
(592,1430,l),
(592,850,l),
(602,361,l),
(627,361,l)
);
},
{
ref = period;
}
);
width = 1229;
},
{
background = {
shapes = (
{
closed = 1;
nodes = (
(760,-25,o),
(815,47,o),
(815,135,cs,{
name = hr01;
}),
(815,201,ls),
(815,287,o),
(760,359,o),
(615,359,cs),
(469,359,o),
(414,287,o),
(414,201,cs),
(414,135,ls),
(414,47,o),
(469,-25,o),
(615,-25,cs)
);
}
);
};
layerId = "D7CFBB37-D300-46E8-A355-ECFF19545BAA";
shapes = (
{
closed = 1;
nodes = (
(780,1014,l),
(780,1430,l),
(449,1430,l),
(449,1014,l),
(565,497,l),
(663,497,l)
);
},
{
ref = period;
}
);
width = 1229;
},
{
background = {
shapes = (
{
closed = 1;
nodes = (
(725,-18,o),
(766,35,o),
(766,105,cs,{
name = hr01;
}),
(766,141,ls),
(766,211,o),
(725,264,o),
(615,264,cs),
(504,264,o),
(463,211,o),
(463,141,cs),
(463,105,ls),
(463,35,o),
(504,-18,o),
(615,-18,cs)
);
}
);
};
layerId = "661A777E-9960-44AA-8623-3AD7C626B4F3";
shapes = (
{
closed = 1;
nodes = (
(705,1014,l),
(705,1430,l),
(524,1430,l),
(524,1014,l),
(582,477,l),
(647,477,l)
);
},
{
ref = period;
}
);
width = 1229;
}
);
unicode = 33;
}
{
glyphname = numbersign;
layers = (
{
layerId = master01;
shapes = (
{
closed = 1;
nodes = (
(332,0,l),
(584,1430,l),
(539,1430,l),
(452,940,l),
(117,940,l),
(117,901,l),
(447,901,l),
(381,529,l),
(45,529,l),
(45,489,l),
(373,489,l),
(287,0,l,{
name = hr00;
})
);
},
{
closed = 1;
nodes = (
(690,0,l),
(776,489,l),
(1112,489,l),
(1112,529,l),
(783,529,l),
(848,901,l),
(1184,901,l),
(1184,940,l),
(856,940,l),
(942,1430,l),
(897,1430,l),
(645,0,l)
);
}
);
width = 1229;
},
{
layerId = "D7CFBB37-D300-46E8-A355-ECFF19545BAA";
shapes = (
{
closed = 1;
nodes = (
(409,0,l),
(662,1430,l),
(422,1430,l),
(352,1032,l),
(96,1032,l),
(96,807,l),
(311,807,l),
(281,623,l),
(18,623,l),
(18,397,l),
(239,397,l),
(170,0,l,{
name = hr00;
})
);
},
{
closed = 1;
nodes = (
(807,0,l),
(876,397,l),
(1132,397,l),
(1132,623,l),
(918,623,l),
(948,807,l),
(1210,807,l),
(1210,1032,l),
(989,1032,l),
(1059,1430,l),
(819,1430,l),
(567,0,l)
);
}
);
width = 1229;
},
{
layerId = "661A777E-9960-44AA-8623-3AD7C626B4F3";
shapes = (
{
closed = 1;
nodes = (
(375,0,l),
(627,1430,l),
(477,1430,l),
(399,987,l),
(106,987,l),
(106,852,l),
(375,852,l),
(328,577,l),
(33,577,l),
(33,442,l),
(303,442,l),
(225,0,l,{
name = hr00;
})
);
},
{
closed = 1;
nodes = (
(751,0,l),
(829,442,l),
(1122,442,l),
(1122,577,l),
(854,577,l),
(901,852,l),
(1196,852,l),
(1196,987,l),
(926,987,l),
(1004,1430,l),
(854,1430,l),
(602,0,l)
);
}
);
width = 1229;
}
);
unicode = 35;
}
{
glyphname = dollar;
layers = (
{
background = {
shapes = (
{
closed = 1;
nodes = (
(890,-318,l),
(890,-34,l),
(1253,-23,o),
(1484,155,o),
(1484,498,cs),
(1484,729,o),
(1388,949,o),
(974,1019,cs),
(890,1033,l),
(890,1943,l),
(1140,1932,o),
(1295,1844,o),
(1405,1687,c),
(1453,1726,l),
(1349,1878,o),
(1180,1988,o),
(890,1999,c),
(890,2284,l),
(834,2284,l),
(834,1999,l),
(467,1997,o),
(231,1836,o),
(231,1507,cs),
(231,1276,o),
(335,1064,o),
(732,997,cs),
(834,980,l),
(834,23,l),
(527,28,o),
(372,146,o),
(237,324,c),
(186,287,l),
(324,104,o),
(501,-28,o),
(834,-34,c),
(834,-318,l,{
name = hr00;
})
);
},
{
closed = 1;
nodes = (
(293,1797,o),
(496,1940,o),
(834,1943,c),
(834,1042,l),
(501,1095,o),
(293,1200,o),
(293,1507,cs)
);
},
{
closed = 1;
nodes = (
(1422,194,o),
(1225,31,o),
(890,23,c),
(890,972,l),
(1202,921,o),
(1422,822,o),
(1422,496,cs)
);
}
);
};
layerId = master01;
shapes = (
{
closed = 1;
nodes = (
(890,-318,l),
(890,2284,l),
(834,2284,l),
(834,-318,l,{
name = hr00;
})
);
},
{
ref = S;
}
);
width = 1690;
},
{
background = {
shapes = (
{
closed = 1;
nodes = (
(1033,-318,l),
(1033,-14,l),
(1397,51,o),
(1599,287,o),
(1599,597,cs),
(1599,881,o),
(1428,1084,o),
(1070,1152,cs),
(1005,1163,l),
(1005,1633,l),
(1124,1608,o),
(1225,1552,o),
(1304,1464,c),
(1546,1735,l),
(1433,1864,o),
(1267,1960,o),
(1033,1991,c),
(1033,2284,l),
(712,2284,l),
(712,1988,l),
(349,1940,o),
(146,1729,o),
(146,1414,cs),
(146,1126,o),
(315,912,o),
(676,848,cs),
(741,836,l),
(741,318,l),
(589,341,o),
(448,411,o),
(329,538,c),
(84,270,l),
(217,104,o),
(434,-6,o),
(712,-28,c),
(712,-318,l,{
name = hr00;
})
);
},
{
closed = 1;
nodes = (
(543,1546,o),
(603,1619,o),
(741,1642,c),
(741,1217,l),
(603,1253,o),
(543,1309,o),
(543,1428,cs)
);
},
{
closed = 1;
nodes = (
(1205,439,o),
(1140,352,o),
(1005,321,c),
(1005,786,l),
(1143,752,o),
(1205,696,o),
(1205,569,cs)
);
}
);
};
layerId = "D7CFBB37-D300-46E8-A355-ECFF19545BAA";
shapes = (
{
closed = 1;
nodes = (
(947,-318,l),
(947,2284,l),
(756,2284,l),
(756,-318,l)
);
},
{
ref = S;
}
);
width = 1690;
},
{
background = {
shapes = (
{
closed = 1;
nodes = (
(786,-318,l),
(957,-318,l),
(957,2284,l),
(786,2284,l)
);
},
{
closed = 1;
nodes = (
(786,-318,l),
(957,-318,l),
(957,2284,l),
(786,2284,l)
);
}
);
};
layerId = "661A777E-9960-44AA-8623-3AD7C626B4F3";
shapes = (
{
closed = 1;
nodes = (
(957,-318,l),
(957,2284,l),
(786,2284,l),
(786,-318,l,{
name = hr00;
})
);
},
{
ref = S;
}
);
width = 1690;
}
);
unicode = 36;
}
{
glyphname = percent;
layers = (
{
layerId = master01;
shapes = (
{
closed = 1;
nodes = (
(544,770,o),
(637,868,o),
(637,1112,cs),
(637,1356,o),
(544,1454,o),
(354,1454,cs),
(164,1454,o),
(72,1356,o),
(72,1112,cs),
(72,868,o),
(164,770,o),
(354,770,cs)
);
},
{
closed = 1;
nodes = (
(195,805,o),
(117,885,o),
(117,1084,cs),
(117,1141,ls),
(117,1340,o),
(195,1419,o),
(354,1419,cs),
(513,1419,o),
(592,1340,o),
(592,1141,cs),
(592,1084,ls),
(592,885,o),
(513,805,o),
(354,805,cs)
);
},
{
closed = 1;
nodes = (
(805,815,l),
(1172,1430,l,{
name = hr01;
}),
(1129,1430,l),
(762,815,l)
);
},
{
closed = 1;
nodes = (
(100,0,l),
(467,615,l),
(424,615,l),
(57,0,l)
);
},
{
closed = 1;
nodes = (
(1065,-25,o),
(1157,73,o),
(1157,317,cs),
(1157,561,o),
(1065,660,o),
(874,660,cs),
(684,660,o),
(592,561,o),
(592,317,cs),
(592,73,o),
(684,-25,o),
(874,-25,cs,{
name = hr02;
})
);
},
{
closed = 1;
nodes = (
(715,10,o),
(637,90,o),
(637,289,cs),
(637,346,ls),
(637,545,o),
(715,625,o),
(874,625,cs),
(1033,625,o),
(1112,545,o),
(1112,346,cs),
(1112,289,ls),
(1112,90,o),
(1033,10,o),
(874,10,cs)
);
}
);
width = 1229;
},
{
layerId = "D7CFBB37-D300-46E8-A355-ECFF19545BAA";
shapes = (
{
closed = 1;
nodes = (
(555,692,o),
(660,823,o),
(660,1073,cs),
(660,1323,o),
(555,1454,o),
(338,1454,cs),
(121,1454,o),
(17,1323,o),
(17,1073,cs),
(17,823,o),
(121,692,o),
(338,692,cs)
);
},
{
closed = 1;
nodes = (
(244,871,o),
(231,932,o),
(231,1028,cs),
(231,1119,ls),
(231,1215,o),
(244,1276,o),
(338,1276,cs),
(432,1276,o),
(444,1215,o),
(444,1119,cs),
(444,1028,ls),
(444,932,o),
(432,871,o),
(338,871,cs)
);
},
{
closed = 1;
nodes = (
(916,815,l),
(1225,1430,l,{
name = hr01;
}),
(993,1430,l),
(684,815,l)
);
},
{
closed = 1;
nodes = (
(236,0,l),
(545,615,l),
(313,615,l),
(4,0,l)
);
},
{
closed = 1;
nodes = (
(1111,-25,o),
(1215,106,o),
(1215,356,cs),
(1215,607,o),
(1111,737,o),
(893,737,cs),
(676,737,o),
(572,607,o),
(572,356,cs),
(572,106,o),
(676,-25,o),
(893,-25,cs,{
name = hr02;
})
);
},
{
closed = 1;
nodes = (
(799,153,o),
(786,215,o),
(786,311,cs),
(786,401,ls),
(786,497,o),
(799,559,o),
(893,559,cs),
(988,559,o),
(999,497,o),
(999,401,cs),
(999,311,ls),
(999,215,o),
(988,153,o),
(893,153,cs)
);
}
);
width = 1229;
},
{
layerId = "661A777E-9960-44AA-8623-3AD7C626B4F3";
shapes = (
{
closed = 1;
nodes = (
(561,729,o),
(651,852,o),
(651,1092,cs),
(651,1331,o),
(561,1454,o),
(346,1454,cs),
(132,1454,o),
(41,1331,o),
(41,1092,cs),
(41,852,o),
(132,729,o),
(346,729,cs)
);
},
{
closed = 1;
nodes = (
(212,840,o),
(180,911,o),
(180,1041,cs),
(180,1143,ls),
(180,1272,o),
(212,1343,o),
(346,1343,cs),
(481,1343,o),
(512,1272,o),
(512,1143,cs),
(512,1041,ls),
(512,911,o),
(481,840,o),
(346,840,cs)
);
},
{
closed = 1;
nodes = (
(864,815,l),
(1192,1430,l),
(1044,1430,l),
(717,815,l,{
name = hr01;
})
);
},
{
closed = 1;
nodes = (
(184,0,l),
(512,615,l,{
name = hr02;
}),
(364,615,l),
(37,0,l)
);
},
{
closed = 1;
nodes = (
(1097,-25,o),
(1188,98,o),
(1188,338,cs),
(1188,577,o),
(1097,700,o),
(883,700,cs),
(668,700,o),
(577,577,o),
(577,338,cs),
(577,98,o),
(668,-25,o),
(883,-25,cs,{
name = hr03;
})
);
},
{
closed = 1;
nodes = (
(748,86,o),
(717,158,o),
(717,287,cs),
(717,389,ls),
(717,518,o),
(748,590,o),
(883,590,cs),
(1017,590,o),
(1049,518,o),
(1049,389,cs),
(1049,287,ls),
(1049,158,o),
(1017,86,o),
(883,86,cs)
);
}
);
width = 1229;
}
);
unicode = 37;
}
{
glyphname = ampersand;
layers = (
{
layerId = master01;
shapes = (
{
closed = 1;
nodes = (
(724,-25,o),
(787,73,o),
(860,221,c),
(866,221,l),
(1057,0,l,{
name = hr01;
}),
(1110,0,l),
(881,268,l),
(916,407,o),
(927,489,o),
(946,692,c),
(1114,692,l),
(1114,733,l),
(905,733,l),
(886,515,o),
(879,438,o),
(850,305,c),
(844,305,l),
(682,494,l),
(412,811,ls),
(335,901,o),
(274,1007,o),
(274,1110,cs),
(274,1139,ls),
(274,1317,o),
(304,1413,o),
(556,1413,cs),
(748,1413,o),
(809,1358,o),
(817,1201,c),
(856,1201,l),
(856,1384,o),
(764,1454,o),
(553,1454,cs),
(350,1454,o),
(228,1390,o),
(228,1151,cs),
(228,996,o),
(279,903,o),
(371,793,c),
(153,684,o),
(86,595,o),
(86,362,cs),
(86,131,o),
(152,-25,o),
(471,-25,cs)
);
},
{
closed = 1;
nodes = (
(183,17,o),
(133,157,o),
(133,332,cs),
(133,379,ls),
(133,587,o),
(188,657,o),
(395,762,c),
(831,256,l),
(767,112,o),
(712,17,o),
(473,17,cs)
);
}
);
width = 1229;
},
{
layerId = "D7CFBB37-D300-46E8-A355-ECFF19545BAA";
shapes = (
{
closed = 1;
nodes = (
(592,-25,o),
(707,60,o),
(725,199,c),
(740,199,l),
(903,0,l,{
name = hr01;
}),
(1227,0,l),
(961,324,l),
(1004,420,o),
(1030,512,o),
(1044,598,c),
(1188,598,l),
(1188,823,l),
(823,823,l),
(823,733,o),
(817,590,o),
(801,497,c),
(788,497,l),
(690,649,l),
(573,796,ls),
(442,961,o),
(404,1007,o),
(404,1085,cs),
(404,1096,ls),
(404,1183,o),
(424,1229,o),
(553,1229,cs),
(652,1229,o),
(700,1201,o),
(719,1087,c),
(928,1087,l),
(928,1331,o),
(777,1454,o),
(536,1454,cs),
(255,1454,o),
(137,1295,o),
(137,1100,cs),
(137,987,o),
(183,901,o),
(271,780,c),
(127,688,o),
(28,561,o),
(28,382,cs,{
name = hr02;
}),
(28,168,o),
(95,-25,o),
(424,-25,cs)
);
},
{
closed = 1;
nodes = (
(340,207,o),
(307,276,o),
(307,406,c),
(307,409,ls),
(307,487,o),
(324,557,o),
(393,625,c),
(657,289,l),
(620,228,o),
(562,207,o),
(484,207,cs)
);
}
);
width = 1229;
},
{
layerId = "661A777E-9960-44AA-8623-3AD7C626B4F3";
shapes = (
{
closed = 1;
nodes = (
(629,-25,o),
(743,58,o),
(788,211,c),
(799,211,l),
(977,0,l,{
name = hr01;
}),
(1172,0,l),
(921,295,l),
(969,422,o),
(977,512,o),
(996,643,c),
(1149,643,l),
(1149,780,l),
(860,780,l),
(854,649,o),
(852,504,o),
(833,397,c),
(823,397,l),
(673,582,l),
(489,809,ls),
(383,940,o),
(337,1012,o),
(337,1119,cs),
(337,1136,ls),
(337,1256,o),
(383,1315,o),
(532,1315,cs),
(673,1315,o),
(711,1263,o),
(731,1145,c),
(893,1145,l),
(893,1327,o),
(768,1454,o),
(533,1454,cs),
(287,1454,o),
(175,1315,o),
(175,1129,cs),
(175,986,o),
(241,883,o),
(316,786,c),
(109,681,o),
(51,551,o),
(51,367,cs,{
name = hr02;
}),
(51,164,o),
(122,-25,o),
(427,-25,cs)
);
},
{
closed = 1;
nodes = (
(248,121,o),
(221,236,o),
(221,362,cs),
(221,393,ls),
(221,546,o),
(268,612,o),
(393,690,c),
(750,260,l),
(689,162,o),
(604,121,o),
(471,121,cs)
);
}
);
width = 1229;
},
{
associatedMasterId = "661A777E-9960-44AA-8623-3AD7C626B4F3";
layerId = "EA1113FE-61B7-45FC-BD4E-DE7B52B18779";
name = "9. Apr. 24, 21:04";
shapes = (
{
closed = 1;
nodes = (
(629,-25,o),
(750,70,o),
(788,211,c),
(799,211,l),
(977,0,l,{
name = hr01;
}),
(1172,0,l),
(921,295,l),
(969,422,o),
(977,512,o),
(996,643,c),
(1149,643,l),
(1149,780,l),
(860,780,l),
(854,649,o),
(852,504,o),
(833,397,c),
(823,397,l),
(673,582,l),
(489,809,ls),
(385,940,o),
(344,1012,o),
(344,1097,cs),
(344,1114,ls),
(344,1231,o),
(422,1315,o),
(545,1315,cs),
(651,1315,o),
(723,1252,o),
(758,1167,c),
(893,1237,l),
(854,1341,o),
(735,1454,o),
(553,1454,cs),
(351,1454,o),
(183,1315,o),
(183,1108,cs),
(183,987,o),
(239,885,o),
(316,786,c),
(111,682,o),
(51,514,o),
(51,371,cs,{
name = hr02;
}),
(51,151,o),
(195,-25,o),
(444,-25,cs)
);
},
{
closed = 1;
nodes = (
(329,121,o),
(221,215,o),
(221,362,cs),
(221,393,ls),
(221,510,o),
(268,612,o),
(393,690,c),
(750,260,l),
(698,172,o),
(604,121,o),
(487,121,cs)
);
}
);
width = 1229;
},
{
associatedMasterId = "D7CFBB37-D300-46E8-A355-ECFF19545BAA";
layerId = "E35AF6BA-3432-4066-9F5F-2690F32849F3";
name = "9. Apr. 24, 21:04";
shapes = (
{
closed = 1;
nodes = (
(592,-25,o),
(707,60,o),
(725,199,c),
(740,199,l),
(903,0,l,{
name = hr01;
}),
(1227,0,l),
(961,324,l),
(1004,420,o),
(1030,512,o),
(1044,598,c),
(1188,598,l),
(1188,823,l),
(823,823,l),
(823,733,o),
(817,590,o),
(801,497,c),
(788,497,l),
(690,649,l),
(573,796,ls),
(444,961,o),
(404,1007,o),
(404,1085,cs),
(404,1096,ls),
(404,1174,o),
(459,1229,o),
(540,1229,cs),
(623,1229,o),
(690,1175,o),
(719,1087,c),
(928,1200,l),
(885,1331,o),
(741,1454,o),
(537,1454,cs),
(307,1454,o),
(137,1298,o),
(137,1094,cs),
(137,989,o),
(183,901,o),
(271,780,c),
(113,688,o),
(28,561,o),
(28,389,cs,{
name = hr02;
}),
(28,168,o),
(168,-25,o),
(424,-25,cs)
);
},
{
closed = 1;
nodes = (
(383,207,o),
(307,276,o),
(307,406,c),
(307,409,ls),
(307,487,o),
(324,557,o),
(393,625,c),
(657,289,l),
(620,228,o),
(561,207,o),
(500,207,cs)
);
}
);
width = 1229;
},
{
associatedMasterId = master01;
layerId = "5B9E0A89-19F2-4A0D-89EA-550E7D3813D5";
name = "9. Apr. 24, 21:04";
shapes = (
{
closed = 1;
nodes = (
(651,-25,o),
(786,72,o),
(860,221,c),
(866,221,l),
(1057,0,l,{
name = hr01;
}),
(1110,0,l),
(881,268,l),
(918,361,o),
(934,481,o),
(946,692,c),
(1114,692,l),
(1114,733,l),
(905,733,l),
(893,508,o),
(881,391,o),
(850,305,c),
(844,305,l),
(682,494,l),
(412,811,ls),
(334,901,o),
(274,1007,o),
(274,1110,cs),
(274,1139,ls),
(274,1308,o),
(377,1413,o),
(543,1413,cs),
(682,1413,o),
(768,1333,o),
(817,1237,c),
(856,1255,l),
(807,1364,o),
(703,1454,o),
(543,1454,cs),
(352,1454,o),
(228,1323,o),
(228,1130,cs),
(228,996,o),
(293,883,o),
(371,793,c),
(150,682,o),
(86,522,o),
(86,356,cs),
(86,131,o),
(228,-25,o),
(469,-25,cs)
);
},
{
closed = 1;
nodes = (
(256,17,o),
(133,158,o),
(133,332,cs),
(133,379,ls),
(133,514,o),
(188,657,o),
(395,762,c),
(831,256,l),
(766,111,o),
(639,17,o),
(471,17,cs)
);
}
);
width = 1229;
}
);
unicode = 38;
}
{
glyphname = quotesingle;
layers = (
{
layerId = master01;
shapes = (
{
closed = 1;
nodes = (
(639,1516,l),
(590,1516,l),
(590,1004,l),
(639,1004,l,{
name = hr00;
})
);
}
);
width = 1229;
},
{
layerId = "D7CFBB37-D300-46E8-A355-ECFF19545BAA";
shapes = (
{
closed = 1;
nodes = (
(750,1516,l),
(479,1516,l),
(479,848,l),
(750,848,l,{
name = hr00;
})
);
}
);
width = 1229;
},
{
layerId = "661A777E-9960-44AA-8623-3AD7C626B4F3";
shapes = (
{
closed = 1;
nodes = (
(692,1516,l),
(537,1516,l),
(537,948,l),
(692,948,l,{
name = hr00;
})
);
}
);
width = 1229;
}
);
unicode = 39;
}
{
glyphname = parenleft;
layers = (
{
layerId = master01;
shapes = (
{
closed = 1;
nodes = (
(487,219,o),
(670,-98,o),
(899,-283,c),
(952,-283,l),
(711,-95,o),
(530,228,o),
(530,602,cs),
(530,672,ls),
(530,1047,o),
(711,1368,o),
(952,1556,c),
(899,1556,l),
(670,1372,o),
(487,1055,o),
(487,637,cs,{
name = hr00;
})
);
}
);
width = 1229;
},
{
layerId = "D7CFBB37-D300-46E8-A355-ECFF19545BAA";
shapes = (
{
closed = 1;
nodes = (
(356,238,o),
(551,-111,o),
(783,-283,c),
(1085,-283,l),
(831,-108,o),
(610,191,o),
(610,532,cs),
(610,741,ls),
(610,1084,o),
(831,1383,o),
(1085,1556,c),
(783,1556,l),
(551,1385,o),
(356,1036,o),
(356,637,cs,{
name = hr00;
})
);
}
);
width = 1229;
},
{
layerId = "661A777E-9960-44AA-8623-3AD7C626B4F3";
shapes = (
{
closed = 1;
nodes = (
(420,238,o),
(615,-111,o),
(846,-283,c),
(1012,-283,l),
(774,-105,o),
(573,199,o),
(573,549,cs),
(573,725,ls),
(573,1075,o),
(774,1378,o),
(1012,1556,c),
(846,1556,l),
(615,1385,o),
(420,1036,o),
(420,637,cs,{
name = hr00;
})
);
}
);
width = 1229;
}
);
unicode = 40;
}
{
glyphname = parenright;
layers = (
{
layerId = master01;
shapes = (
{
closed = 1;
nodes = (
(741,1055,o),
(559,1372,o),
(329,1556,c),
(276,1556,l),
(518,1368,o),
(698,1047,o),
(698,672,cs),
(698,602,ls),
(698,228,o),
(518,-95,o),
(276,-283,c),
(329,-283,l),
(559,-98,o),
(741,219,o),
(741,637,cs,{
name = hr00;
})
);
}
);
width = 1229;
},
{
layerId = "D7CFBB37-D300-46E8-A355-ECFF19545BAA";
shapes = (
{
closed = 1;
nodes = (
(873,1036,o),
(678,1385,o),
(447,1556,c),
(143,1556,l),
(397,1383,o),
(618,1084,o),
(618,741,cs),
(618,532,ls),
(618,191,o),
(397,-108,o),
(143,-283,c),
(447,-283,l),
(678,-111,o),
(873,238,o),
(873,637,cs,{
name = hr00;
})
);
}
);
width = 1229;
},
{
layerId = "661A777E-9960-44AA-8623-3AD7C626B4F3";
shapes = (
{
closed = 1;
nodes = (
(809,1036,o),
(615,1385,o),
(383,1556,c),
(217,1556,l),
(455,1378,o),
(655,1075,o),
(655,725,cs),
(655,549,ls),
(655,199,o),
(455,-105,o),
(217,-283,c),
(383,-283,l),
(615,-111,o),
(809,238,o),
(809,637,cs,{
name = hr00;
})
);
}
);
width = 1229;
}
);
unicode = 41;
}
{
glyphname = asterisk;
layers = (
{
layerId = master01;
shapes = (
{
closed = 1;
nodes = (
(940,105,l),
(975,129,l),
(651,572,l),
(1132,723,l),
(1120,762,l),
(637,610,l),
(637,1124,l),
(594,1124,l),
(594,610,l),
(111,762,l),
(98,723,l),
(580,572,l),
(256,129,l),
(291,105,l),
(615,551,l,{
name = hr00;
})
);
}
);
width = 1229;
},
{
layerId = "D7CFBB37-D300-46E8-A355-ECFF19545BAA";
shapes = (
{
closed = 1;
nodes = (
(838,82,l),
(1051,223,l),
(817,530,l),
(1167,649,l),
(1087,885,l),
(745,760,l),
(745,1122,l),
(484,1122,l),
(484,760,l),
(141,885,l),
(61,649,l),
(412,530,l),
(178,223,l),
(391,82,l),
(615,387,l,{
name = hr00;
})
);
}
);
width = 1229;
},
{
layerId = "661A777E-9960-44AA-8623-3AD7C626B4F3";
shapes = (
{
closed = 1;
nodes = (
(871,106,l),
(987,193,l),
(733,540,l),
(1141,676,l),
(1097,811,l),
(690,680,l),
(690,1122,l),
(539,1122,l),
(539,680,l),
(131,811,l),
(88,676,l),
(495,540,l),
(241,193,l),
(359,106,l),
(615,459,l,{
name = hr00;
})
);
}
);
width = 1229;
}
);
unicode = 42;
}
{
glyphname = plus;
layers = (
{
layerId = master01;
shapes = (
{
closed = 1;
nodes = (
(637,607,l),
(1104,607,l),
(1104,645,l),
(637,645,l),
(637,1124,l),
(594,1124,l),
(594,645,l),
(127,645,l),
(127,607,l),
(594,607,l),
(594,127,l),
(637,127,l,{
name = hr00;
})
);
}
);
width = 1229;
},
{
layerId = "D7CFBB37-D300-46E8-A355-ECFF19545BAA";
shapes = (
{
closed = 1;
nodes = (
(745,504,l),
(1102,504,l),
(1102,745,l),
(745,745,l),
(745,1122,l),
(484,1122,l),
(484,745,l),
(127,745,l),
(127,504,l),
(484,504,l),
(484,127,l),
(745,127,l,{
name = hr00;
})
);
}
);
width = 1229;
},
{
layerId = "661A777E-9960-44AA-8623-3AD7C626B4F3";
shapes = (
{
closed = 1;
nodes = (
(692,555,l),
(1102,555,l),
(1102,695,l),
(692,695,l),
(692,1122,l),
(537,1122,l),
(537,695,l),
(127,695,l),
(127,555,l),
(537,555,l),
(537,127,l),
(692,127,l,{
name = hr00;
})
);
}
);
width = 1229;
}
);
unicode = 43;
}
{
glyphname = comma;
layers = (
{
layerId = master01;
shapes = (
{
closed = 1;
nodes = (
(506,-352,l),
(668,160,l),
(580,160,l),
(471,-352,l,{
name = hr00;
})
);
}
);
width = 1229;
},
{
layerId = "D7CFBB37-D300-46E8-A355-ECFF19545BAA";
shapes = (
{
closed = 1;
nodes = (
(573,-309,l),
(854,356,l),
(465,356,l),
(348,-309,l,{
name = hr00;
})
);
}
);
width = 1229;
},
{
layerId = "661A777E-9960-44AA-8623-3AD7C626B4F3";
shapes = (
{
closed = 1;
nodes = (
(555,-289,l),
(791,279,l),
(527,279,l),
(417,-289,l,{
name = hr00;
})
);
}
);
width = 1229;
}
);
unicode = 44;
}
{
glyphname = hyphen;
layers = (
{
layerId = master01;
shapes = (
{
closed = 1;
nodes = (
(885,645,l),
(344,645,l),
(344,604,l),
(885,604,l,{
name = hr00;
})
);
}
);
width = 1229;
},
{
layerId = "D7CFBB37-D300-46E8-A355-ECFF19545BAA";
shapes = (
{
closed = 1;
nodes = (
(942,770,l),
(287,770,l),
(287,479,l),
(942,479,l,{
name = hr00;
})
);
}
);
width = 1229;
},
{
layerId = "661A777E-9960-44AA-8623-3AD7C626B4F3";
shapes = (
{
closed = 1;
nodes = (
(911,708,l),
(317,708,l),
(317,537,l),
(911,537,l,{
name = hr00;
})
);
}
);
width = 1229;
}
);
unicode = 45;
}
{
glyphname = period;
layers = (
{
background = {
shapes = (
{
closed = 1;
nodes = (
(660,-10,o),
(684,10,o),
(684,45,cs),
(684,61,ls),
(684,96,o),
(660,117,o),
(615,117,cs),
(569,117,o),
(545,96,o),
(545,61,cs),
(545,45,ls),
(545,10,o),
(569,-10,o),
(615,-10,cs,{
name = hr00;
})
);
}
);
};
layerId = master01;
shapes = (
{
closed = 1;
nodes = (
(653,-12,o),
(684,20,o),
(684,59,cs),
(684,97,o),
(653,129,o),
(615,129,cs),
(575,129,o),
(544,97,o),
(544,59,cs),
(544,20,o),
(575,-12,o),
(615,-12,cs)
);
}
);
width = 1229;
},
{
background = {
shapes = (
{
closed = 1;
nodes = (
(768,-25,o),
(829,53,o),
(829,145,cs),
(829,217,l),
(829,309,o),
(768,387,o),
(615,387,cs),
(461,387,o),
(399,309,o),
(399,217,cs),
(399,145,ls),
(399,53,o),
(461,-25,o),
(615,-25,cs,{
name = hr00;
})
);
}
);
};
layerId = "D7CFBB37-D300-46E8-A355-ECFF19545BAA";
shapes = (
{
closed = 1;
nodes = (
(733,-25,o),
(830,72,o),
(830,192,cs),
(830,311,o),
(733,408,o),
(614,408,cs),
(494,408,o),
(397,311,o),
(397,192,cs),
(397,72,o),
(494,-25,o),
(614,-25,cs)
);
}
);
width = 1229;
},
{
layerId = "661A777E-9960-44AA-8623-3AD7C626B4F3";
shapes = (
{
closed = 1;
nodes = (
(697,-25,o),
(766,44,o),
(766,128,cs),
(766,212,o),
(697,280,o),
(614,280,cs),
(529,280,o),
(461,212,o),
(461,128,cs),
(461,44,o),
(529,-25,o),
(614,-25,cs)
);
}
);
width = 1229;
}
);
unicode = 46;
}
{
glyphname = slash;
layers = (
{
layerId = master01;
shapes = (
{
closed = 1;
nodes = (
(1014,1556,l),
(975,1556,l),
(215,-283,l),
(254,-283,l,{
name = hr00;
})
);
}
);
width = 1229;
},
{
layerId = "D7CFBB37-D300-46E8-A355-ECFF19545BAA";
shapes = (
{
closed = 1;
nodes = (
(1079,1556,l),
(807,1556,l),
(150,-283,l),
(422,-283,l,{
name = hr00;
})
);
}
);
width = 1229;
},
{
layerId = "661A777E-9960-44AA-8623-3AD7C626B4F3";
shapes = (
{
closed = 1;
nodes = (
(1044,1556,l),
(897,1556,l),
(184,-283,l),
(332,-283,l,{
name = hr00;
})
);
}
);
width = 1229;
}
);
unicode = 47;
}
{
glyphname = zero;
layers = (
{
layerId = master01;
shapes = (
{
closed = 1;
nodes = (
(1256,-34,o),
(1490,262,o),
(1490,983,cs),
(1490,1704,o),
(1256,1999,o),
(845,1999,cs),
(434,1999,o),
(200,1704,o),
(200,983,cs),
(200,262,o),
(434,-34,o),
(845,-34,cs,{
name = hr00;
})
);
},
{
closed = 1;
nodes = (
(470,23,o),
(268,315,o),
(268,893,cs),
(268,1073,ls),
(268,1650,o),
(470,1943,o),
(845,1943,cs),
(1219,1943,o),
(1422,1650,o),
(1422,1073,cs),
(1422,893,ls),
(1422,315,o),
(1219,23,o),
(845,23,cs)
);
},
{
closed = 1;
nodes = (
(886,906,o),
(921,941,o),
(921,984,cs),
(921,1026,o),
(886,1061,o),
(844,1061,cs),
(801,1061,o),
(766,1026,o),
(766,984,cs),
(766,941,o),
(801,906,o),
(844,906,cs)
);
}
);
width = 1690;
},
{
layerId = "D7CFBB37-D300-46E8-A355-ECFF19545BAA";
shapes = (
{
closed = 1;
nodes = (
(1371,-34,o),
(1614,341,o),
(1614,983,cs),
(1614,1625,o),
(1371,1999,o),
(845,1999,cs),
(318,1999,o),
(76,1625,o),
(76,983,cs),
(76,341,o),
(318,-34,o),
(845,-34,cs,{
name = hr00;
})
);
},
{
closed = 1;
nodes = (
(594,298,o),
(507,487,o),
(507,800,cs),
(507,1166,ls),
(507,1478,o),
(594,1667,o),
(845,1667,cs),
(1095,1667,o),
(1183,1478,o),
(1183,1166,cs),
(1183,800,l),
(1183,487,o),
(1095,298,o),
(845,298,cs)
);
},
{
closed = 1;
nodes = (
(962,769,o),
(1058,865,o),
(1058,985,cs),
(1058,1102,o),
(962,1198,o),
(845,1198,cs),
(725,1198,o),
(629,1102,o),
(629,985,cs),
(629,865,o),
(725,769,o),
(845,769,cs)
);
}
);
width = 1690;
},
{
layerId = "661A777E-9960-44AA-8623-3AD7C626B4F3";
shapes = (
{
closed = 1;
nodes = (
(1324,-34,o),
(1532,341,o),
(1532,983,cs),
(1532,1625,o),
(1324,1999,o),
(845,1999,cs),
(366,1999,o),
(158,1625,o),
(158,983,cs),
(158,341,o),
(366,-34,o),
(845,-34,cs,{
name = hr00;
})
);
},
{
closed = 1;
nodes = (
(529,172,o),
(403,428,o),
(403,822,cs),
(403,1143,ls),
(403,1538,o),
(529,1794,o),
(845,1794,cs),
(1160,1794,o),
(1287,1538,o),
(1287,1143,cs),
(1287,822,l),
(1287,428,o),
(1160,172,o),
(845,172,cs)
);
},
{
closed = 1;
nodes = (
(945,800,o),
(1027,882,o),
(1027,984,cs),
(1027,1085,o),
(945,1167,o),
(844,1167,cs),
(742,1167,o),
(660,1085,o),
(660,984,cs),
(660,882,o),
(742,800,o),
(844,800,cs)
);
}
);
width = 1690;
}
);
unicode = 48;
}
{
glyphname = one;
layers = (
{
layerId = master01;
shapes = (
{
closed = 1;
nodes = (
(1549,56,l),
(955,56,l),
(955,1966,l),
(848,1966,l),
(239,1456,l),
(276,1411,l),
(884,1921,l),
(893,1921,l),
(893,56,l),
(276,56,l),
(276,0,l),
(1549,0,l,{
name = hr00;
})
);
}
);
width = 1690;
},
{
layerId = "D7CFBB37-D300-46E8-A355-ECFF19545BAA";
shapes = (
{
closed = 1;
nodes = (
(1633,341,l),
(1217,341,l),
(1217,1966,l),
(569,1966,l),
(99,1346,l),
(369,1135,l),
(769,1659,l),
(794,1659,l),
(794,341,l),
(265,341,l),
(265,0,l),
(1633,0,l,{
name = hr00;
})
);
}
);
width = 1690;
},
{
background = {
shapes = (
{
closed = 1;
nodes = (
(1557,206,l),
(1039,206,l),
(1039,1966,l),
(670,1966,l),
(149,1478,l),
(287,1329,l),
(783,1791,l),
(803,1791,l),
(803,206,l),
(239,206,l),
(239,0,l),
(1557,0,l,{
name = hr00;
})
);
}
);
};
layerId = "661A777E-9960-44AA-8623-3AD7C626B4F3";
shapes = (
{
closed = 1;
nodes = (
(1557,206,l),
(1039,206,l),
(1039,1966,l),
(650,1966,l),
(248,1551,l),
(248,1239,l),
(783,1791,l),
(803,1791,l),
(803,206,l),
(239,206,l),
(239,0,l),
(1557,0,l,{
name = hr00;
})
);
}
);
width = 1690;
},
{
associatedMasterId = "661A777E-9960-44AA-8623-3AD7C626B4F3";
layerId = "07A20D51-20BF-4CC3-B3E0-A81E5BE8CB8A";
name = "25. März 24, 19:28";
shapes = (
{
closed = 1;
nodes = (
(1557,206,l),
(1039,206,l),
(1039,1966,l),
(670,1966,l),
(149,1478,l),
(287,1329,l),
(783,1791,l),
(803,1791,l),
(803,206,l),
(239,206,l),
(239,0,l),
(1557,0,l,{
name = hr00;
})
);
}
);
width = 1690;
}
);
unicode = 49;
}
{
glyphname = two;
layers = (
{
layerId = master01;
shapes = (
{
closed = 1;
nodes = (
(1467,0,l),
(1467,56,l,{
name = hr00;
}),
(315,56,l),
(1062,846,ls),
(1272,1069,o),
(1389,1232,o),
(1389,1507,cs),
(1389,1870,o),
(1187,1999,o),
(853,1999,cs),
(508,1999,o),
(278,1861,o),
(278,1509,c),
(343,1509,l),
(343,1835,o),
(556,1943,o),
(855,1943,cs),
(1161,1943,o),
(1321,1829,o),
(1321,1528,cs),
(1321,1444,ls),
(1321,1235,o),
(1205,1083,o),
(1022,888,cs),
(245,62,l),
(245,0,l)
);
}
);
width = 1690;
},
{
background = {
shapes = (
{
closed = 1;
nodes = (
(617,355,l),
(991,645,ls),
(1287,870,o),
(1521,1081,o),
(1521,1408,cs),
(1521,1749,o),
(1273,1999,o),
(842,1999,cs),
(425,1999,o),
(194,1768,o),
(107,1498,c),
(476,1357,l),
(518,1507,o),
(611,1633,o),
(800,1633,cs),
(963,1633,o),
(1070,1546,o),
(1070,1383,cs),
(1070,1354,ls),
(1070,1205,o),
(983,1084,o),
(769,901,cs),
(149,386,l),
(149,0,l),
(1563,0,l),
(1563,355,l,{
name = hr00;
})
);
}
);
};
layerId = "D7CFBB37-D300-46E8-A355-ECFF19545BAA";
shapes = (
{
closed = 1;
nodes = (
(1563,0,l),
(1563,355,l,{
name = hr00;
}),
(617,355,l),
(992,664,ls),
(1226,857,o),
(1521,1069,o),
(1521,1448,cs),
(1521,1797,o),
(1275,1999,o),
(811,1999,cs),
(379,1999,o),
(94,1824,o),
(94,1379,c),
(529,1379,l),
(548,1592,o),
(650,1633,o),
(814,1633,cs),
(978,1633,o),
(1070,1592,o),
(1070,1383,cs),
(1070,1354,ls),
(1070,1205,o),
(982,1106,o),
(769,922,cs),
(149,386,l),
(149,0,l)
);
}
);
width = 1690;
},
{
layerId = "661A777E-9960-44AA-8623-3AD7C626B4F3";
shapes = (
{
closed = 1;
nodes = (
(1472,0,l),
(1472,206,l,{
name = hr00;
}),
(445,206,l),
(994,743,ls),
(1258,1001,o),
(1433,1179,o),
(1433,1469,cs),
(1433,1801,o),
(1244,1999,o),
(840,1999,cs),
(457,1999,o),
(200,1852,o),
(190,1413,c),
(438,1413,l),
(458,1717,o),
(583,1794,o),
(837,1794,cs),
(1089,1794,o),
(1186,1693,o),
(1186,1456,cs),
(1186,1422,ls),
(1186,1231,o),
(1039,1074,o),
(856,893,cs),
(200,242,l),
(200,0,l)
);
}
);
width = 1690;
},
{
associatedMasterId = "661A777E-9960-44AA-8623-3AD7C626B4F3";
layerId = "66FD7EB0-7A7B-4CDC-9F5E-3E1555B7CC7F";
name = "25. März 24, 19:26";
shapes = (
{
closed = 1;
nodes = (
(445,206,l),
(994,684,ls),
(1256,912,o),
(1433,1132,o),
(1433,1431,cs),
(1433,1763,o),
(1214,1999,o),
(822,1999,cs),
(436,1999,o),
(259,1768,o),
(183,1538,c),
(394,1459,l),
(456,1661,o),
(577,1794,o),
(817,1794,cs),
(1059,1794,o),
(1186,1659,o),
(1186,1422,cs),
(1186,1388,ls),
(1186,1188,o),
(1048,1005,o),
(856,834,cs),
(200,242,l),
(200,0,l),
(1512,0,l),
(1512,206,l,{
name = hr00;
})
);
}
);
width = 1690;
},
{
associatedMasterId = "D7CFBB37-D300-46E8-A355-ECFF19545BAA";
background = {
shapes = (
{
closed = 1;
nodes = (
(617,355,l),
(991,645,ls),
(1287,870,o),
(1521,1081,o),
(1521,1408,cs),
(1521,1749,o),
(1273,1999,o),
(842,1999,cs),
(425,1999,o),
(194,1768,o),
(107,1498,c),
(476,1357,l),
(518,1507,o),
(611,1633,o),
(800,1633,cs),
(963,1633,o),
(1070,1546,o),
(1070,1383,cs),
(1070,1354,ls),
(1070,1205,o),
(983,1084,o),
(769,901,cs),
(149,386,l),
(149,0,l),
(1563,0,l),
(1563,355,l,{
name = hr00;
})
);
}
);
};
layerId = "9F7E44E9-3B3E-4933-A31E-A424CF94CFA4";
name = "25. März 24, 19:30";
shapes = (
{
closed = 1;
nodes = (
(617,355,l),
(991,645,ls),
(1287,870,o),
(1521,1081,o),
(1521,1408,cs),
(1521,1749,o),
(1273,1999,o),
(842,1999,cs),
(425,1999,o),
(194,1768,o),
(107,1498,c),
(476,1357,l),
(518,1507,o),
(611,1633,o),
(800,1633,cs),
(963,1633,o),
(1070,1546,o),
(1070,1383,cs),
(1070,1354,ls),
(1070,1205,o),
(983,1084,o),
(769,901,cs),
(149,386,l),
(149,0,l),
(1563,0,l),
(1563,355,l,{
name = hr00;
})
);
}
);
width = 1690;
},
{
associatedMasterId = master01;
background = {
shapes = (
{
closed = 1;
nodes = (
(1467,0,l),
(1467,56,l,{
name = hr00;
}),
(315,56,l),
(1042,786,ls),
(1253,997,o),
(1369,1202,o),
(1369,1453,cs),
(1369,1791,o),
(1180,1999,o),
(828,1999,cs),
(504,1999,o),
(315,1819,o),
(245,1563,c),
(301,1552,l),
(377,1791,o),
(535,1943,o),
(828,1943,cs),
(1140,1943,o),
(1301,1752,o),
(1301,1498,cs),
(1301,1414,ls),
(1301,1205,o),
(1191,1017,o),
(1002,828,cs),
(245,62,l),
(245,0,l)
);
}
);
};
layerId = "1B04C31C-B3B3-4859-9CF0-1738653D5674";
name = "25. März 24, 19:31";
shapes = (
{
closed = 1;
nodes = (
(1467,0,l),
(1467,56,l,{
name = hr00;
}),
(315,56,l),
(1042,786,ls),
(1253,997,o),
(1369,1202,o),
(1369,1453,cs),
(1369,1791,o),
(1180,1999,o),
(828,1999,cs),
(504,1999,o),
(315,1819,o),
(245,1563,c),
(301,1552,l),
(377,1791,o),
(535,1943,o),
(828,1943,cs),
(1140,1943,o),
(1301,1752,o),
(1301,1498,cs),
(1301,1414,ls),
(1301,1205,o),
(1191,1017,o),
(1002,828,cs),
(245,62,l),
(245,0,l)
);
}
);
width = 1690;
},
{
associatedMasterId = "661A777E-9960-44AA-8623-3AD7C626B4F3";
background = {
shapes = (
{
closed = 1;
nodes = (
(445,206,l),
(994,684,ls),
(1256,912,o),
(1433,1132,o),
(1433,1431,cs),
(1433,1763,o),
(1214,1999,o),
(822,1999,cs),
(436,1999,o),
(259,1768,o),
(183,1538,c),
(394,1459,l),
(456,1661,o),
(577,1794,o),
(817,1794,cs),
(1059,1794,o),
(1186,1659,o),
(1186,1422,cs),
(1186,1388,ls),
(1186,1188,o),
(1048,1005,o),
(856,834,cs),
(200,242,l),
(200,0,l),
(1512,0,l),
(1512,206,l,{
name = hr00;
})
);
}
);
};
layerId = "FD661DB4-6592-4CCA-AF4A-35E3DFA702C5";
name = "25. März 24, 23:07";
shapes = (
{
closed = 1;
nodes = (
(1512,0,l),
(1512,206,l,{
name = hr00;
}),
(445,206,l),
(994,684,ls),
(1258,914,o),
(1433,1132,o),
(1433,1434,cs),
(1433,1763,o),
(1224,1999,o),
(797,1999,cs),
(460,1999,o),
(196,1852,o),
(190,1493,c),
(438,1493,l),
(454,1715,o),
(583,1794,o),
(794,1794,cs),
(1059,1794,o),
(1186,1670,o),
(1186,1422,cs),
(1186,1388,ls),
(1186,1188,o),
(1046,1005,o),
(856,834,cs),
(200,242,l),
(200,0,l)
);
}
);
width = 1690;
},
{
associatedMasterId = "D7CFBB37-D300-46E8-A355-ECFF19545BAA";
background = {
shapes = (
{
closed = 1;
nodes = (
(617,355,l),
(991,645,ls),
(1287,870,o),
(1521,1081,o),
(1521,1408,cs),
(1521,1749,o),
(1273,1999,o),
(842,1999,cs),
(425,1999,o),
(194,1768,o),
(107,1498,c),
(476,1357,l),
(518,1507,o),
(611,1633,o),
(800,1633,cs),
(963,1633,o),
(1070,1546,o),
(1070,1383,cs),
(1070,1354,ls),
(1070,1205,o),
(983,1084,o),
(769,901,cs),
(149,386,l),
(149,0,l),
(1563,0,l),
(1563,355,l,{
name = hr00;
})
);
}
);
};
layerId = "B4BB4280-6481-49F6-B72A-C1EC77D63285";
name = "25. März 24, 23:08";
shapes = (
{
closed = 1;
nodes = (
(1563,0,l),
(1563,355,l,{
name = hr00;
}),
(617,355,l),
(992,644,ls),
(1232,829,o),
(1521,1052,o),
(1521,1417,cs),
(1521,1749,o),
(1283,1999,o),
(795,1999,cs),
(387,1999,o),
(94,1824,o),
(94,1419,c),
(529,1419,l),
(543,1577,o),
(640,1633,o),
(789,1633,cs),
(974,1633,o),
(1070,1547,o),
(1070,1383,cs),
(1070,1354,ls),
(1070,1205,o),
(985,1082,o),
(769,902,cs),
(149,386,l),
(149,0,l)
);
}
);
width = 1690;
},
{
associatedMasterId = "661A777E-9960-44AA-8623-3AD7C626B4F3";
background = {
shapes = (
{
closed = 1;
nodes = (
(445,206,l),
(994,684,ls),
(1256,912,o),
(1433,1132,o),
(1433,1431,cs),
(1433,1763,o),
(1214,1999,o),
(822,1999,cs),
(436,1999,o),
(259,1768,o),
(183,1538,c),
(394,1459,l),
(456,1661,o),
(577,1794,o),
(817,1794,cs),
(1059,1794,o),
(1186,1659,o),
(1186,1422,cs),
(1186,1388,ls),
(1186,1188,o),
(1048,1005,o),
(856,834,cs),
(200,242,l),
(200,0,l),
(1512,0,l),
(1512,206,l,{
name = hr00;
})
);
}
);
};
layerId = "16223A29-25CA-4815-B989-008B81860B80";
name = "8. Apr. 24, 10:08";
shapes = (
{
closed = 1;
nodes = (
(1512,0,l),
(1512,206,l,{
name = hr00;
}),
(445,206,l),
(994,684,ls),
(1256,912,o),
(1433,1132,o),
(1433,1431,cs),
(1433,1763,o),
(1214,1999,o),
(820,1999,cs),
(457,1999,o),
(200,1812,o),
(190,1443,c),
(438,1443,l),
(458,1677,o),
(583,1794,o),
(817,1794,cs),
(1059,1794,o),
(1186,1659,o),
(1186,1422,cs),
(1186,1388,ls),
(1186,1188,o),
(1048,1005,o),
(856,834,cs),
(200,242,l),
(200,0,l)
);
}
);
width = 1690;
},
{
associatedMasterId = master01;
background = {
shapes = (
{
closed = 1;
nodes = (
(1467,0,l),
(1467,56,l,{
name = hr00;
}),
(315,56,l),
(1042,786,ls),
(1253,997,o),
(1369,1202,o),
(1369,1453,cs),
(1369,1791,o),
(1180,1999,o),
(828,1999,cs),
(504,1999,o),
(315,1819,o),
(245,1563,c),
(301,1552,l),
(377,1791,o),
(535,1943,o),
(828,1943,cs),
(1140,1943,o),
(1301,1752,o),
(1301,1498,cs),
(1301,1414,ls),
(1301,1205,o),
(1191,1017,o),
(1002,828,cs),
(245,62,l),
(245,0,l)
);
}
);
};
layerId = "9B37B15B-0DAC-4C35-A33C-BBB983B1FB68";
name = "1. Mai 24, 17:27";
shapes = (
{
closed = 1;
nodes = (
(1467,0,l),
(1467,56,l,{
name = hr00;
}),
(315,56,l),
(1042,866,ls),
(1245,1093,o),
(1369,1232,o),
(1369,1507,cs),
(1369,1870,o),
(1167,1999,o),
(833,1999,cs),
(488,1999,o),
(278,1861,o),
(278,1509,c),
(343,1509,l),
(348,1834,o),
(536,1943,o),
(835,1943,cs),
(1141,1943,o),
(1301,1829,o),
(1301,1528,cs),
(1301,1444,ls),
(1301,1235,o),
(1180,1107,o),
(1002,908,cs),
(245,62,l),
(245,0,l)
);
}
);
width = 1690;
}
);
unicode = 50;
}
{
glyphname = three;
layers = (
{
background = {
shapes = (
{
closed = 1;
nodes = (
(381,729,l),
(577,729,ls),
(809,729,o),
(954,600,o),
(954,406,cs),
(954,348,ls),
(954,150,o),
(801,17,o),
(580,17,cs),
(395,17,o),
(268,78,o),
(180,217,c),
(143,195,l),
(238,45,o),
(381,-25,o),
(580,-25,cs),
(840,-25,o),
(1004,131,o),
(1004,383,cs),
(1004,594,o),
(879,723,o),
(686,748,c),
(686,753,l),
(854,786,o),
(973,895,o),
(973,1097,cs,{
name = hr01;
}),
(973,1315,o),
(821,1454,o),
(588,1454,cs),
(383,1454,o),
(252,1360,o),
(195,1227,c),
(231,1210,l),
(293,1333,o),
(397,1413,o),
(588,1413,cs),
(786,1413,o),
(924,1295,o),
(924,1119,cs),
(924,1069,ls),
(924,893,o),
(780,770,o),
(573,770,cs),
(381,770,l)
);
}
);
};
layerId = master01;
shapes = (
{
closed = 1;
nodes = (
(861,-25,o),
(1011,87,o),
(1011,378,cs),
(1011,645,o),
(884,734,o),
(686,748,c),
(686,753,l),
(854,779,o),
(973,852,o),
(973,1097,cs,{
name = hr01;
}),
(973,1360,o),
(836,1454,o),
(584,1454,cs),
(339,1454,o),
(202,1364,o),
(202,1105,c),
(249,1105,l),
(251,1343,o),
(375,1413,o),
(585,1413,cs),
(800,1413,o),
(924,1340,o),
(924,1119,cs),
(924,1069,ls),
(924,849,o),
(780,770,o),
(573,770,cs),
(381,770,l),
(381,729,l),
(585,729,ls),
(809,729,o),
(961,651,o),
(961,406,cs),
(961,348,ls),
(961,105,o),
(823,17,o),
(584,17,cs),
(351,17,o),
(212,101,o),
(210,376,c),
(163,376,l),
(163,81,o),
(312,-25,o),
(583,-25,cs)
);
}
);
width = 1229;
},
{
background = {
shapes = (
{
closed = 1;
nodes = (
(916,-25,o),
(1137,141,o),
(1137,397,cs),
(1137,594,o),
(1006,711,o),
(831,741,c),
(831,753,l),
(983,780,o),
(1110,893,o),
(1110,1075,cs,{
name = hr01;
}),
(1110,1305,o),
(907,1454,o),
(598,1454,cs),
(348,1454,o),
(207,1356,o),
(96,1215,c),
(291,1034,l),
(362,1143,o),
(469,1204,o),
(585,1204,cs),
(713,1204,o),
(786,1137,o),
(786,1034,cs),
(786,1020,ls),
(786,932,o),
(717,864,o),
(559,864,cs),
(424,864,l),
(424,608,l),
(557,608,ls),
(717,608,o),
(813,549,o),
(813,432,cs),
(813,417,ls),
(813,299,o),
(729,225,o),
(584,225,cs),
(426,225,o),
(340,309,o),
(276,426,c),
(49,250,l),
(141,106,o),
(291,-25,o),
(577,-25,cs)
);
}
);
};
layerId = "D7CFBB37-D300-46E8-A355-ECFF19545BAA";
shapes = (
{
closed = 1;
nodes = (
(955,-25,o),
(1159,129,o),
(1159,413,cs),
(1159,667,o),
(996,715,o),
(839,741,c),
(839,753,l),
(991,780,o),
(1117,857,o),
(1117,1075,cs,{
name = hr01;
}),
(1117,1347,o),
(921,1454,o),
(598,1454,cs),
(257,1454,o),
(68,1336,o),
(68,1034,c),
(385,1034,l),
(395,1167,o),
(451,1204,o),
(599,1204,cs),
(727,1204,o),
(793,1177,o),
(793,1034,cs),
(793,1020,ls),
(793,895,o),
(724,864,o),
(567,864,cs),
(431,864,l),
(431,608,l),
(608,608,ls),
(732,608,o),
(835,585,o),
(835,432,cs),
(835,417,ls),
(835,286,o),
(769,225,o),
(591,225,cs),
(433,225,o),
(370,273,o),
(356,417,c),
(40,417,l),
(40,112,o),
(247,-25,o),
(591,-25,cs)
);
}
);
width = 1229;
},
{
background = {
shapes = (
{
closed = 1;
nodes = (
(395,676,l),
(565,676,ls),
(774,676,o),
(881,577,o),
(881,409,cs),
(881,393,ls),
(881,223,o),
(768,125,o),
(567,125,cs),
(387,125,o),
(303,205,o),
(228,317,c),
(98,219,l),
(186,96,o),
(316,-25,o),
(567,-25,cs),
(864,-25,o),
(1061,145,o),
(1061,391,cs),
(1061,607,o),
(911,721,o),
(753,751,c),
(753,760,l),
(909,799,o),
(1032,909,o),
(1032,1094,cs,{
name = hr01;
}),
(1032,1325,o),
(838,1454,o),
(594,1454,cs),
(361,1454,o),
(233,1335,o),
(160,1220,c),
(289,1122,l),
(348,1231,o),
(439,1305,o),
(590,1305,cs),
(745,1305,o),
(852,1227,o),
(852,1075,cs),
(852,1061,ls),
(852,924,o),
(751,823,o),
(553,823,cs),
(395,823,l)
);
}
);
};
layerId = "661A777E-9960-44AA-8623-3AD7C626B4F3";
shapes = (
{
closed = 1;
nodes = (
(938,-25,o),
(1112,137,o),
(1112,399,cs),
(1112,621,o),
(986,729,o),
(790,751,c),
(790,760,l),
(977,796,o),
(1068,902,o),
(1068,1087,cs,{
name = hr01;
}),
(1068,1337,o),
(903,1454,o),
(609,1454,cs),
(327,1454,o),
(161,1345,o),
(155,1081,c),
(335,1081,l),
(348,1244,o),
(421,1305,o),
(607,1305,cs),
(811,1305,o),
(888,1232,o),
(888,1075,cs),
(888,1061,ls),
(888,916,o),
(824,823,o),
(589,823,cs),
(431,823,l),
(431,676,l),
(616,676,ls),
(861,676,o),
(932,592,o),
(932,409,cs),
(932,393,ls),
(932,217,o),
(841,125,o),
(610,125,cs),
(388,125,o),
(316,211,o),
(303,393,c),
(124,391,l),
(129,132,o),
(292,-25,o),
(612,-25,cs)
);
}
);
width = 1229;
},
{
associatedMasterId = "661A777E-9960-44AA-8623-3AD7C626B4F3";
background = {
shapes = (
{
closed = 1;
nodes = (
(395,676,l),
(565,676,ls),
(774,676,o),
(881,577,o),
(881,409,cs),
(881,393,ls),
(881,223,o),
(768,125,o),
(567,125,cs),
(387,125,o),
(303,205,o),
(228,317,c),
(98,219,l),
(186,96,o),
(316,-25,o),
(567,-25,cs),
(864,-25,o),
(1061,145,o),
(1061,391,cs),
(1061,607,o),
(911,721,o),
(753,751,c),
(753,760,l),
(909,799,o),
(1032,909,o),
(1032,1094,cs,{
name = hr01;
}),
(1032,1325,o),
(838,1454,o),
(594,1454,cs),
(361,1454,o),
(233,1335,o),
(160,1220,c),
(289,1122,l),
(348,1231,o),
(439,1305,o),
(590,1305,cs),
(745,1305,o),
(852,1227,o),
(852,1075,cs),
(852,1061,ls),
(852,924,o),
(751,823,o),
(553,823,cs),
(395,823,l)
);
}
);
};
layerId = "1F5DC21C-2B18-4213-AE2A-947376698489";
name = "25. März 24, 17:34";
shapes = (
{
closed = 1;
nodes = (
(395,676,l),
(565,676,ls),
(774,676,o),
(881,577,o),
(881,409,cs),
(881,393,ls),
(881,223,o),
(768,125,o),
(567,125,cs),
(387,125,o),
(303,205,o),
(228,317,c),
(98,219,l),
(186,96,o),
(316,-25,o),
(567,-25,cs),
(864,-25,o),
(1061,145,o),
(1061,391,cs),
(1061,607,o),
(911,721,o),
(753,751,c),
(753,760,l),
(909,799,o),
(1032,909,o),
(1032,1094,cs,{
name = hr01;
}),
(1032,1325,o),
(838,1454,o),
(594,1454,cs),
(361,1454,o),
(233,1335,o),
(160,1220,c),
(289,1122,l),
(348,1231,o),
(439,1305,o),
(590,1305,cs),
(745,1305,o),
(852,1227,o),
(852,1075,cs),
(852,1061,ls),
(852,924,o),
(751,823,o),
(553,823,cs),
(395,823,l)
);
}
);
width = 1229;
},
{
associatedMasterId = master01;
layerId = "24269B32-87C1-4216-A513-C1921FD9406B";
name = "25. März 24, 17:38";
shapes = (
{
closed = 1;
nodes = (
(381,729,l),
(577,729,ls),
(809,729,o),
(954,600,o),
(954,406,cs),
(954,348,ls),
(954,150,o),
(801,17,o),
(580,17,cs),
(395,17,o),
(268,78,o),
(180,217,c),
(143,195,l),
(238,45,o),
(381,-25,o),
(580,-25,cs),
(840,-25,o),
(1004,131,o),
(1004,383,cs),
(1004,594,o),
(879,723,o),
(686,748,c),
(686,753,l),
(854,786,o),
(973,895,o),
(973,1097,cs,{
name = hr01;
}),
(973,1315,o),
(821,1454,o),
(588,1454,cs),
(383,1454,o),
(252,1360,o),
(195,1227,c),
(231,1210,l),
(293,1333,o),
(397,1413,o),
(588,1413,cs),
(786,1413,o),
(924,1295,o),
(924,1119,cs),
(924,1069,ls),
(924,893,o),
(780,770,o),
(573,770,cs),
(381,770,l)
);
}
);
width = 1229;
},
{
associatedMasterId = "D7CFBB37-D300-46E8-A355-ECFF19545BAA";
background = {
shapes = (
{
closed = 1;
nodes = (
(916,-25,o),
(1137,141,o),
(1137,397,cs),
(1137,594,o),
(1006,711,o),
(831,741,c),
(831,753,l),
(983,780,o),
(1110,893,o),
(1110,1075,cs,{
name = hr01;
}),
(1110,1305,o),
(907,1454,o),
(598,1454,cs),
(348,1454,o),
(207,1356,o),
(96,1215,c),
(291,1034,l),
(362,1143,o),
(469,1204,o),
(585,1204,cs),
(713,1204,o),
(786,1137,o),
(786,1034,cs),
(786,1020,ls),
(786,932,o),
(717,864,o),
(559,864,cs),
(424,864,l),
(424,608,l),
(557,608,ls),
(717,608,o),
(813,549,o),
(813,432,cs),
(813,417,ls),
(813,299,o),
(729,225,o),
(584,225,cs),
(426,225,o),
(340,309,o),
(276,426,c),
(49,250,l),
(141,106,o),
(291,-25,o),
(577,-25,cs)
);
}
);
};
layerId = "37592465-92F2-495E-B16D-530DC4536628";
name = "25. März 24, 19:23";
shapes = (
{
closed = 1;
nodes = (
(916,-25,o),
(1137,141,o),
(1137,397,cs),
(1137,594,o),
(1006,711,o),
(831,741,c),
(831,753,l),
(983,780,o),
(1110,893,o),
(1110,1075,cs,{
name = hr01;
}),
(1110,1305,o),
(907,1454,o),
(598,1454,cs),
(348,1454,o),
(207,1356,o),
(96,1215,c),
(291,1034,l),
(362,1143,o),
(469,1204,o),
(585,1204,cs),
(713,1204,o),
(786,1137,o),
(786,1034,cs),
(786,1020,ls),
(786,932,o),
(717,864,o),
(559,864,cs),
(424,864,l),
(424,608,l),
(557,608,ls),
(717,608,o),
(813,549,o),
(813,432,cs),
(813,417,ls),
(813,299,o),
(729,225,o),
(584,225,cs),
(426,225,o),
(340,309,o),
(276,426,c),
(49,250,l),
(141,106,o),
(291,-25,o),
(577,-25,cs)
);
}
);
width = 1229;
},
{
associatedMasterId = "661A777E-9960-44AA-8623-3AD7C626B4F3";
background = {
shapes = (
{
closed = 1;
nodes = (
(395,676,l),
(565,676,ls),
(774,676,o),
(881,577,o),
(881,409,cs),
(881,393,ls),
(881,223,o),
(768,125,o),
(567,125,cs),
(387,125,o),
(303,205,o),
(228,317,c),
(98,219,l),
(186,96,o),
(316,-25,o),
(567,-25,cs),
(864,-25,o),
(1061,145,o),
(1061,391,cs),
(1061,607,o),
(911,721,o),
(753,751,c),
(753,760,l),
(909,799,o),
(1032,909,o),
(1032,1094,cs,{
name = hr01;
}),
(1032,1325,o),
(838,1454,o),
(594,1454,cs),
(361,1454,o),
(233,1335,o),
(160,1220,c),
(289,1122,l),
(348,1231,o),
(439,1305,o),
(590,1305,cs),
(745,1305,o),
(852,1227,o),
(852,1075,cs),
(852,1061,ls),
(852,924,o),
(751,823,o),
(553,823,cs),
(395,823,l)
);
}
);
};
layerId = "1BB2AF10-7045-48F1-B7CC-B731B951AFB1";
name = "25. März 24, 23:07";
shapes = (
{
closed = 1;
nodes = (
(922,-25,o),
(1112,146,o),
(1112,390,cs),
(1112,607,o),
(956,727,o),
(790,751,c),
(790,760,l),
(945,799,o),
(1068,909,o),
(1068,1094,cs,{
name = hr01;
}),
(1068,1325,o),
(874,1454,o),
(612,1454,cs),
(349,1454,o),
(162,1361,o),
(155,1118,c),
(335,1118,l),
(350,1263,o),
(441,1305,o),
(612,1305,cs),
(782,1305,o),
(888,1227,o),
(888,1075,cs),
(888,1061,ls),
(888,924,o),
(788,823,o),
(589,823,cs),
(431,823,l),
(431,676,l),
(616,676,ls),
(825,676,o),
(932,577,o),
(932,409,cs),
(932,393,ls),
(932,223,o),
(826,125,o),
(618,125,cs),
(417,125,o),
(319,187,o),
(305,357,c),
(124,355,l),
(132,109,o),
(321,-25,o),
(618,-25,cs)
);
}
);
width = 1229;
},
{
associatedMasterId = "D7CFBB37-D300-46E8-A355-ECFF19545BAA";
background = {
shapes = (
{
closed = 1;
nodes = (
(916,-25,o),
(1137,141,o),
(1137,397,cs),
(1137,594,o),
(1006,711,o),
(831,741,c),
(831,753,l),
(983,780,o),
(1110,893,o),
(1110,1075,cs,{
name = hr01;
}),
(1110,1305,o),
(907,1454,o),
(598,1454,cs),
(348,1454,o),
(207,1356,o),
(96,1215,c),
(291,1034,l),
(362,1143,o),
(469,1204,o),
(585,1204,cs),
(713,1204,o),
(786,1137,o),
(786,1034,cs),
(786,1020,ls),
(786,932,o),
(717,864,o),
(559,864,cs),
(424,864,l),
(424,608,l),
(557,608,ls),
(717,608,o),
(813,549,o),
(813,432,cs),
(813,417,ls),
(813,299,o),
(729,225,o),
(584,225,cs),
(426,225,o),
(340,309,o),
(276,426,c),
(49,250,l),
(141,106,o),
(291,-25,o),
(577,-25,cs)
);
}
);
};
layerId = "8A4AC495-79A3-4B38-B313-729055C9873F";
name = "25. März 24, 23:07";
shapes = (
{
closed = 1;
nodes = (
(940,-25,o),
(1159,142,o),
(1159,393,cs),
(1159,594,o),
(1017,709,o),
(839,741,c),
(839,753,l),
(991,780,o),
(1117,893,o),
(1117,1075,cs,{
name = hr01;
}),
(1117,1305,o),
(914,1454,o),
(593,1454,cs),
(271,1454,o),
(68,1327,o),
(68,1056,c),
(385,1056,l),
(399,1159,o),
(465,1204,o),
(593,1204,cs),
(720,1204,o),
(793,1137,o),
(793,1034,cs),
(793,1020,ls),
(793,932,o),
(724,864,o),
(567,864,cs),
(431,864,l),
(431,608,l),
(564,608,ls),
(724,608,o),
(835,549,o),
(835,432,cs),
(835,417,ls),
(835,299,o),
(755,225,o),
(599,225,cs),
(448,225,o),
(373,265,o),
(356,388,c),
(40,388,l),
(40,112,o),
(258,-25,o),
(599,-25,cs)
);
}
);
width = 1229;
},
{
associatedMasterId = "661A777E-9960-44AA-8623-3AD7C626B4F3";
background = {
shapes = (
{
closed = 1;
nodes = (
(395,676,l),
(565,676,ls),
(774,676,o),
(881,577,o),
(881,409,cs),
(881,393,ls),
(881,223,o),
(768,125,o),
(567,125,cs),
(387,125,o),
(303,205,o),
(228,317,c),
(98,219,l),
(186,96,o),
(316,-25,o),
(567,-25,cs),
(864,-25,o),
(1061,145,o),
(1061,391,cs),
(1061,607,o),
(911,721,o),
(753,751,c),
(753,760,l),
(909,799,o),
(1032,909,o),
(1032,1094,cs,{
name = hr01;
}),
(1032,1325,o),
(838,1454,o),
(594,1454,cs),
(361,1454,o),
(233,1335,o),
(160,1220,c),
(289,1122,l),
(348,1231,o),
(439,1305,o),
(590,1305,cs),
(745,1305,o),
(852,1227,o),
(852,1075,cs),
(852,1061,ls),
(852,924,o),
(751,823,o),
(553,823,cs),
(395,823,l)
);
}
);
};
layerId = "59323AEE-BF87-42F5-9E2B-68B942397861";
name = "8. Apr. 24, 10:10";
shapes = (
{
closed = 1;
nodes = (
(908,-25,o),
(1112,146,o),
(1112,390,cs),
(1112,607,o),
(956,727,o),
(790,751,c),
(790,760,l),
(945,799,o),
(1068,909,o),
(1068,1094,cs,{
name = hr01;
}),
(1068,1325,o),
(874,1454,o),
(612,1454,cs),
(349,1454,o),
(162,1325,o),
(155,1081,c),
(335,1081,l),
(350,1227,o),
(441,1305,o),
(612,1305,cs),
(782,1305,o),
(888,1227,o),
(888,1075,cs),
(888,1061,ls),
(888,924,o),
(788,823,o),
(589,823,cs),
(431,823,l),
(431,676,l),
(616,676,ls),
(825,676,o),
(932,577,o),
(932,409,cs),
(932,393,ls),
(932,223,o),
(812,125,o),
(611,125,cs),
(403,125,o),
(319,201,o),
(305,393,c),
(124,391,l),
(132,124,o),
(307,-25,o),
(611,-25,cs)
);
}
);
width = 1229;
},
{
associatedMasterId = "D7CFBB37-D300-46E8-A355-ECFF19545BAA";
background = {
shapes = (
{
closed = 1;
nodes = (
(916,-25,o),
(1137,141,o),
(1137,397,cs),
(1137,594,o),
(1006,711,o),
(831,741,c),
(831,753,l),
(983,780,o),
(1110,893,o),
(1110,1075,cs,{
name = hr01;
}),
(1110,1305,o),
(907,1454,o),
(598,1454,cs),
(348,1454,o),
(207,1356,o),
(96,1215,c),
(291,1034,l),
(362,1143,o),
(469,1204,o),
(585,1204,cs),
(713,1204,o),
(786,1137,o),
(786,1034,cs),
(786,1020,ls),
(786,932,o),
(717,864,o),
(559,864,cs),
(424,864,l),
(424,608,l),
(557,608,ls),
(717,608,o),
(813,549,o),
(813,432,cs),
(813,417,ls),
(813,299,o),
(729,225,o),
(584,225,cs),
(426,225,o),
(340,309,o),
(276,426,c),
(49,250,l),
(141,106,o),
(291,-25,o),
(577,-25,cs)
);
}
);
};
layerId = "409AB2EE-961C-4C42-A661-DB2530302E20";
name = "9. Apr. 24, 00:54";
shapes = (
{
closed = 1;
nodes = (
(940,-25,o),
(1159,142,o),
(1159,393,cs),
(1159,594,o),
(1017,709,o),
(839,741,c),
(839,753,l),
(991,780,o),
(1117,893,o),
(1117,1075,cs,{
name = hr01;
}),
(1117,1305,o),
(914,1454,o),
(593,1454,cs),
(271,1454,o),
(68,1305,o),
(68,1034,c),
(385,1034,l),
(399,1137,o),
(465,1204,o),
(593,1204,cs),
(720,1204,o),
(793,1137,o),
(793,1034,cs),
(793,1020,ls),
(793,932,o),
(724,864,o),
(567,864,cs),
(431,864,l),
(431,608,l),
(564,608,ls),
(724,608,o),
(835,549,o),
(835,432,cs),
(835,417,ls),
(835,299,o),
(755,225,o),
(599,225,cs),
(448,225,o),
(373,294,o),
(356,417,c),
(40,417,l),
(40,141,o),
(258,-25,o),
(599,-25,cs)
);
}
);
width = 1229;
},
{
associatedMasterId = master01;
background = {
shapes = (
{
closed = 1;
nodes = (
(381,729,l),
(577,729,ls),
(809,729,o),
(954,600,o),
(954,406,cs),
(954,348,ls),
(954,150,o),
(801,17,o),
(580,17,cs),
(395,17,o),
(268,78,o),
(180,217,c),
(143,195,l),
(238,45,o),
(381,-25,o),
(580,-25,cs),
(840,-25,o),
(1004,131,o),
(1004,383,cs),
(1004,594,o),
(879,723,o),
(686,748,c),
(686,753,l),
(854,786,o),
(973,895,o),
(973,1097,cs,{
name = hr01;
}),
(973,1315,o),
(821,1454,o),
(588,1454,cs),
(383,1454,o),
(252,1360,o),
(195,1227,c),
(231,1210,l),
(293,1333,o),
(397,1413,o),
(588,1413,cs),
(786,1413,o),
(924,1295,o),
(924,1119,cs),
(924,1069,ls),
(924,893,o),
(780,770,o),
(573,770,cs),
(381,770,l)
);
}
);
};
layerId = "00C5D1E6-EBA7-4EFE-9996-E31335D755C6";
name = "9. Apr. 24, 01:21";
shapes = (
{
closed = 1;
nodes = (
(847,-25,o),
(1011,131,o),
(1011,383,cs),
(1011,594,o),
(879,728,o),
(686,748,c),
(686,753,l),
(854,786,o),
(973,895,o),
(973,1097,cs,{
name = hr01;
}),
(973,1315,o),
(821,1454,o),
(588,1454,cs),
(354,1454,o),
(202,1315,o),
(202,1097,c),
(249,1097,l),
(252,1295,o),
(389,1413,o),
(588,1413,cs),
(786,1413,o),
(924,1295,o),
(924,1119,cs),
(924,1069,ls),
(924,893,o),
(780,770,o),
(573,770,cs),
(381,770,l),
(381,729,l),
(585,729,ls),
(809,729,o),
(961,600,o),
(961,406,cs),
(961,348,ls),
(961,150,o),
(808,17,o),
(587,17,cs),
(366,17,o),
(212,150,o),
(210,383,c),
(163,383,l),
(163,131,o),
(327,-25,o),
(587,-25,cs)
);
}
);
width = 1229;
},
{
associatedMasterId = "D7CFBB37-D300-46E8-A355-ECFF19545BAA";
background = {
shapes = (
{
closed = 1;
nodes = (
(916,-25,o),
(1137,141,o),
(1137,397,cs),
(1137,594,o),
(1006,711,o),
(831,741,c),
(831,753,l),
(983,780,o),
(1110,893,o),
(1110,1075,cs,{
name = hr01;
}),
(1110,1305,o),
(907,1454,o),
(598,1454,cs),
(348,1454,o),
(207,1356,o),
(96,1215,c),
(291,1034,l),
(362,1143,o),
(469,1204,o),
(585,1204,cs),
(713,1204,o),
(786,1137,o),
(786,1034,cs),
(786,1020,ls),
(786,932,o),
(717,864,o),
(559,864,cs),
(424,864,l),
(424,608,l),
(557,608,ls),
(717,608,o),
(813,549,o),
(813,432,cs),
(813,417,ls),
(813,299,o),
(729,225,o),
(584,225,cs),
(426,225,o),
(340,309,o),
(276,426,c),
(49,250,l),
(141,106,o),
(291,-25,o),
(577,-25,cs)
);
}
);
};
layerId = "3EDB5C33-B3EC-4B43-ADEC-55DD9A9839CF";
name = "9. Apr. 24, 13:45";
shapes = (
{
closed = 1;
nodes = (
(940,-25,o),
(1159,127,o),
(1159,416,cs),
(1159,667,o),
(993,716,o),
(839,741,c),
(839,753,l),
(989,780,o),
(1117,857,o),
(1117,1073,cs,{
name = hr01;
}),
(1117,1347,o),
(914,1454,o),
(601,1454,cs),
(272,1454,o),
(68,1337,o),
(68,1034,c),
(385,1034,l),
(401,1170,o),
(465,1204,o),
(601,1204,cs),
(720,1204,o),
(793,1178,o),
(793,1034,cs),
(793,1020,ls),
(793,895,o),
(724,864,o),
(567,864,cs),
(431,864,l),
(431,608,l),
(564,608,ls),
(724,608,o),
(835,585,o),
(835,432,cs),
(835,417,ls),
(835,294,o),
(755,225,o),
(586,225,cs),
(448,225,o),
(371,271,o),
(356,417,c),
(40,417,l),
(40,112,o),
(261,-25,o),
(591,-25,cs)
);
}
);
width = 1229;
}
);
unicode = 51;
}
{
glyphname = four;
layers = (
{
layerId = master01;
shapes = (
{
closed = 1;
nodes = (
(887,328,l),
(1127,328,l),
(1127,367,l),
(887,367,l),
(887,1430,l),
(833,1430,l),
(96,371,l),
(96,328,l),
(844,328,l),
(844,0,l),
(887,0,l,{
name = hr00;
})
);
},
{
closed = 1;
nodes = (
(844,1372,l),
(844,367,l),
(141,367,l),
(840,1372,l)
);
}
);
width = 1229;
},
{
layerId = "D7CFBB37-D300-46E8-A355-ECFF19545BAA";
shapes = (
{
closed = 1;
nodes = (
(989,274,l),
(1174,274,l),
(1174,512,l),
(989,512,l),
(989,1430,l),
(620,1430,l),
(51,537,l),
(51,274,l),
(695,274,l),
(695,0,l),
(989,0,l,{
name = hr00;
})
);
},
{
closed = 1;
nodes = (
(695,1112,l),
(695,512,l),
(299,512,l),
(676,1112,l)
);
}
);
width = 1229;
},
{
layerId = "661A777E-9960-44AA-8623-3AD7C626B4F3";
shapes = (
{
closed = 1;
nodes = (
(938,281,l),
(1151,281,l),
(1151,422,l),
(938,422,l),
(938,1430,l),
(688,1430,l),
(70,432,l),
(70,281,l),
(774,281,l),
(774,0,l),
(938,0,l,{
name = hr00;
})
);
},
{
closed = 1;
nodes = (
(774,1297,l),
(774,422,l),
(223,422,l),
(766,1297,l)
);
}
);
width = 1229;
}
);
unicode = 52;
}
{
glyphname = five;
layers = (
{
background = {
shapes = (
{
pos = (-16,0);
ref = six;
}
);
};
layerId = master01;
shapes = (
{
closed = 1;
nodes = (
(394,1966,l),
(322,926,l),
(387,918,l),
(498,1052,o),
(627,1118,o),
(841,1118,cs),
(1163,1118,o),
(1354,968,o),
(1354,608,cs),
(1354,529,ls),
(1354,174,o),
(1174,23,o),
(821,23,cs),
(393,23,o),
(292,245,o),
(288,497,c),
(224,497,l),
(224,182,o),
(387,-34,o),
(818,-34,cs),
(1208,-34,o),
(1422,142,o),
(1422,571,cs),
(1422,1002,o),
(1207,1174,o),
(842,1174,cs),
(636,1174,o),
(495,1119,o),
(387,974,c),
(378,977,l),
(445,1909,l),
(1354,1909,l),
(1354,1966,l,{
name = hr00;
})
);
}
);
width = 1690;
},
{
background = {
shapes = (
{
closed = 1;
nodes = (
(259,1966,l),
(186,853,l),
(532,805,l),
(586,865,o),
(687,943,o),
(845,943,cs),
(1033,943,o),
(1152,891,o),
(1152,648,cs),
(1152,625,ls),
(1152,374,o),
(1042,310,o),
(834,310,c),
(625,310,o),
(513,434,o),
(425,586,c),
(118,344,l),
(239,146,o),
(445,-34,o),
(831,-34,cs),
(1321,-34,o),
(1597,202,o),
(1597,659,cs),
(1597,1113,o),
(1321,1284,o),
(997,1284,cs),
(755,1284,o),
(631,1157,o),
(549,974,c),
(524,974,l),
(569,1597,l),
(1478,1597,l),
(1478,1966,l,{
name = hr00;
})
);
}
);
};
layerId = "D7CFBB37-D300-46E8-A355-ECFF19545BAA";
shapes = (
{
closed = 1;
nodes = (
(259,1966,l),
(186,853,l),
(532,805,l),
(589,877,o),
(677,943,o),
(861,943,cs),
(1033,943,o),
(1152,885,o),
(1152,648,cs),
(1152,625,ls),
(1152,374,o),
(1042,310,o),
(834,310,c),
(625,310,o),
(543,431,o),
(530,586,c),
(128,586,l),
(128,146,o),
(438,-34,o),
(846,-34,cs),
(1313,-34,o),
(1597,202,o),
(1597,659,cs),
(1597,1113,o),
(1316,1284,o),
(1009,1284,cs),
(755,1284,o),
(637,1167,o),
(549,974,c),
(524,974,l),
(569,1597,l),
(1478,1597,l),
(1478,1966,l,{
name = hr00;
})
);
}
);
width = 1690;
},
{
layerId = "661A777E-9960-44AA-8623-3AD7C626B4F3";
shapes = (
{
closed = 1;
nodes = (
(341,1966,l),
(270,884,l),
(470,856,l),
(567,960,o),
(645,1022,o),
(847,1022,cs),
(1104,1022,o),
(1256,921,o),
(1256,608,cs),
(1256,586,ls),
(1256,270,o),
(1114,172,o),
(846,172,cs),
(591,172,o),
(460,261,o),
(433,473,c),
(195,473,l),
(195,132,o),
(490,-34,o),
(849,-34,cs),
(1250,-34,o),
(1501,174,o),
(1501,614,cs),
(1501,1058,o),
(1245,1222,o),
(919,1222,cs),
(698,1222,o),
(597,1147,o),
(496,1008,c),
(476,1008,l),
(532,1760,l),
(1411,1760,l),
(1411,1966,l,{
name = hr00;
})
);
}
);
width = 1690;
},
{
associatedMasterId = "D7CFBB37-D300-46E8-A355-ECFF19545BAA";
background = {
shapes = (
{
closed = 1;
nodes = (
(259,1966,l),
(186,853,l),
(532,805,l),
(586,865,o),
(687,943,o),
(845,943,cs),
(1033,943,o),
(1152,891,o),
(1152,648,cs),
(1152,625,ls),
(1152,374,o),
(1042,310,o),
(834,310,c),
(625,310,o),
(513,434,o),
(425,586,c),
(118,344,l),
(239,146,o),
(445,-34,o),
(831,-34,cs),
(1321,-34,o),
(1597,202,o),
(1597,659,cs),
(1597,1113,o),
(1321,1284,o),
(997,1284,cs),
(755,1284,o),
(631,1157,o),
(549,974,c),
(524,974,l),
(569,1597,l),
(1478,1597,l),
(1478,1966,l,{
name = hr00;
})
);
}
);
};
layerId = "397075C5-9D3B-4502-A571-AC4B06979DBD";
name = "9. Apr. 24, 00:57";
shapes = (
{
closed = 1;
nodes = (
(259,1966,l),
(186,853,l),
(532,805,l),
(586,865,o),
(687,943,o),
(845,943,cs),
(1033,943,o),
(1152,891,o),
(1152,648,cs),
(1152,625,ls),
(1152,374,o),
(1042,310,o),
(834,310,c),
(625,310,o),
(513,434,o),
(425,586,c),
(118,344,l),
(239,146,o),
(445,-34,o),
(831,-34,cs),
(1321,-34,o),
(1597,202,o),
(1597,659,cs),
(1597,1113,o),
(1321,1284,o),
(997,1284,cs),
(755,1284,o),
(631,1157,o),
(549,974,c),
(524,974,l),
(569,1597,l),
(1478,1597,l),
(1478,1966,l,{
name = hr00;
})
);
}
);
width = 1690;
},
{
associatedMasterId = "661A777E-9960-44AA-8623-3AD7C626B4F3";
background = {
shapes = (
{
ref = three;
}
);
};
layerId = "37655B7B-18B5-475D-844A-675E82BEF83D";
name = "9. Apr. 24, 00:58";
shapes = (
{
closed = 1;
nodes = (
(341,1966,l),
(270,884,l),
(470,856,l),
(555,949,o),
(645,1022,o),
(831,1022,cs),
(1104,1022,o),
(1256,867,o),
(1256,608,cs),
(1256,586,ls),
(1256,329,o),
(1107,172,o),
(836,172,cs),
(594,172,o),
(487,282,o),
(383,436,c),
(206,301,l),
(327,132,o),
(498,-34,o),
(831,-34,cs),
(1250,-34,o),
(1501,234,o),
(1501,617,cs),
(1501,997,o),
(1250,1222,o),
(907,1222,cs),
(698,1222,o),
(591,1140,o),
(496,1008,c),
(476,1008,l),
(532,1760,l),
(1411,1760,l),
(1411,1966,l,{
name = hr00;
})
);
}
);
width = 1690;
},
{
associatedMasterId = master01;
layerId = "BF8EA102-DDDD-483A-94ED-2DA57973D1AE";
name = "9. Apr. 24, 00:58";
shapes = (
{
closed = 1;
nodes = (
(394,1966,l),
(321,918,l),
(386,910,l),
(501,1045,o),
(617,1107,o),
(856,1107,cs),
(1180,1107,o),
(1354,904,o),
(1354,608,cs),
(1354,529,ls),
(1354,234,o),
(1166,23,o),
(836,23,cs),
(583,23,o),
(408,107,o),
(287,298,c),
(237,268,l),
(366,62,o),
(563,-34,o),
(836,-34,cs),
(1194,-34,o),
(1422,197,o),
(1422,572,cs),
(1422,941,o),
(1214,1163,o),
(856,1163,cs),
(645,1163,o),
(498,1112,o),
(386,966,c),
(377,969,l),
(445,1909,l),
(1354,1909,l),
(1354,1966,l,{
name = hr00;
})
);
}
);
width = 1690;
}
);
unicode = 53;
}
{
glyphname = six;
layers = (
{
layerId = master01;
shapes = (
{
closed = 1;
nodes = (
(1208,-34,o),
(1439,148,o),
(1439,577,cs),
(1439,1026,o),
(1205,1174,o),
(842,1174,cs),
(611,1174,o),
(425,1076,o),
(327,873,c),
(318,876,l),
(397,1343,o),
(648,1681,o),
(1104,1966,c),
(1014,1966,l),
(580,1698,o),
(245,1273,o),
(245,636,cs),
(245,202,o),
(417,-34,o),
(845,-34,cs,{
name = hr00;
})
);
},
{
closed = 1;
nodes = (
(515,23,o),
(313,182,o),
(313,535,cs),
(313,614,ls),
(313,898,o),
(507,1118,o),
(842,1118,cs),
(1174,1118,o),
(1371,978,o),
(1371,614,cs),
(1371,527,ls),
(1371,179,o),
(1171,23,o),
(842,23,cs)
);
}
);
width = 1690;
},
{
layerId = "D7CFBB37-D300-46E8-A355-ECFF19545BAA";
shapes = (
{
closed = 1;
nodes = (
(1307,-34,o),
(1602,193,o),
(1602,651,cs),
(1602,1078,o),
(1345,1267,o),
(1030,1267,cs),
(762,1267,o),
(651,1130,o),
(574,972,c),
(549,980,l),
(631,1360,o),
(921,1625,o),
(1408,1966,c),
(825,1966,l),
(464,1719,o),
(107,1298,o),
(107,725,cs),
(107,222,o),
(383,-34,o),
(859,-34,cs,{
name = hr00;
})
);
},
{
closed = 1;
nodes = (
(653,296,o),
(546,368,o),
(546,603,cs),
(546,642,ls),
(546,877,o),
(663,943,o),
(856,943,cs),
(1051,943,o),
(1163,875,o),
(1163,642,cs),
(1163,603,ls),
(1163,368,o),
(1056,296,o),
(853,296,c)
);
}
);
width = 1690;
},
{
layerId = "661A777E-9960-44AA-8623-3AD7C626B4F3";
shapes = (
{
closed = 1;
nodes = (
(1247,-34,o),
(1509,171,o),
(1509,617,cs),
(1509,1048,o),
(1264,1222,o),
(921,1222,cs),
(676,1222,o),
(532,1101,o),
(436,941,c),
(422,946,l),
(532,1402,o),
(769,1659,o),
(1197,1966,c),
(893,1966,l),
(572,1760,o),
(180,1304,o),
(180,721,cs),
(180,193,o),
(434,-34,o),
(848,-34,cs,{
name = hr00;
})
);
},
{
closed = 1;
nodes = (
(577,166,o),
(420,261,o),
(420,586,cs),
(420,608,ls),
(420,873,o),
(577,1028,o),
(845,1028,cs),
(1112,1028,o),
(1270,933,o),
(1270,608,cs),
(1270,586,ls),
(1270,261,o),
(1112,166,o),
(845,166,cs)
);
}
);
width = 1690;
},
{
associatedMasterId = "661A777E-9960-44AA-8623-3AD7C626B4F3";
layerId = "875FF717-E172-4162-81D1-97B86268456F";
name = "8. Apr. 24, 10:13";
shapes = (
{
closed = 1;
nodes = (
(1247,-34,o),
(1509,231,o),
(1509,617,cs),
(1509,988,o),
(1264,1222,o),
(921,1222,cs),
(676,1222,o),
(532,1101,o),
(436,941,c),
(422,946,l),
(532,1402,o),
(769,1659,o),
(1197,1966,c),
(893,1966,l),
(572,1760,o),
(180,1304,o),
(180,721,cs),
(180,253,o),
(434,-34,o),
(848,-34,cs,{
name = hr00;
})
);
},
{
closed = 1;
nodes = (
(577,166,o),
(420,321,o),
(420,586,cs),
(420,608,ls),
(420,873,o),
(577,1028,o),
(845,1028,cs),
(1112,1028,o),
(1270,873,o),
(1270,608,cs),
(1270,586,ls),
(1270,321,o),
(1112,166,o),
(845,166,c)
);
}
);
width = 1690;
}
);
unicode = 54;
}
{
glyphname = seven;
layers = (
{
layerId = master01;
shapes = (
{
closed = 1;
nodes = (
(1049,1388,l),
(1049,1430,l),
(158,1430,l),
(158,1049,l),
(203,1049,l),
(203,1388,l),
(1001,1388,l),
(383,0,l),
(432,0,l,{
name = hr00;
})
);
}
);
width = 1229;
},
{
layerId = "D7CFBB37-D300-46E8-A355-ECFF19545BAA";
shapes = (
{
closed = 1;
nodes = (
(1132,1163,l),
(1132,1430,l),
(105,1430,l),
(105,919,l),
(364,919,l),
(364,1180,l),
(828,1180,l),
(336,0,l),
(660,0,l,{
name = hr00;
})
);
}
);
width = 1229;
},
{
layerId = "661A777E-9960-44AA-8623-3AD7C626B4F3";
shapes = (
{
closed = 1;
nodes = (
(1087,1278,l),
(1087,1430,l),
(133,1430,l),
(133,1016,l),
(287,1016,l),
(287,1282,l),
(913,1282,l),
(354,0,l),
(539,0,l,{
name = hr00;
})
);
}
);
width = 1229;
}
);
unicode = 55;
}
{
glyphname = eight;
layers = (
{
layerId = master01;
shapes = (
{
closed = 1;
nodes = (
(901,-25,o),
(1081,87,o),
(1081,369,cs),
(1081,615,o),
(961,713,o),
(766,745,c),
(766,753,l),
(929,786,o),
(1032,868,o),
(1032,1096,cs),
(1032,1359,o),
(871,1454,o),
(615,1454,cs),
(359,1454,o),
(196,1359,o),
(196,1096,cs),
(196,868,o),
(299,786,o),
(463,753,c),
(463,745,l),
(268,713,o),
(148,615,o),
(148,369,cs),
(148,87,o),
(328,-25,o),
(615,-25,cs)
);
},
{
closed = 1;
nodes = (
(361,17,o),
(196,108,o),
(196,346,cs),
(196,399,ls),
(196,638,o),
(361,729,o),
(615,729,cs),
(868,729,o),
(1032,638,o),
(1032,399,cs),
(1032,346,ls),
(1032,108,o),
(868,17,o),
(615,17,cs)
);
},
{
closed = 1;
nodes = (
(391,770,o),
(246,845,o),
(246,1067,cs,{
name = hr01;
}),
(246,1116,ls),
(246,1338,o),
(391,1413,o),
(615,1413,cs),
(838,1413,o),
(983,1338,o),
(983,1116,cs),
(983,1067,ls),
(983,845,o),
(838,770,o),
(615,770,cs)
);
}
);
width = 1229;
},
{
layerId = "D7CFBB37-D300-46E8-A355-ECFF19545BAA";
shapes = (
{
closed = 1;
nodes = (
(959,-25,o),
(1155,122,o),
(1155,393,cs),
(1155,607,o),
(1036,692,o),
(871,737,c),
(871,753,l),
(1012,805,o),
(1112,882,o),
(1112,1077,cs,{
name = hr01;
}),
(1112,1326,o),
(934,1454,o),
(615,1454,cs),
(295,1454,o),
(117,1326,o),
(117,1077,cs),
(117,882,o),
(217,805,o),
(359,753,c),
(359,737,l),
(193,692,o),
(73,607,o),
(73,393,cs,{
name = hr02;
}),
(73,122,o),
(271,-25,o),
(615,-25,cs)
);
},
{
closed = 1;
nodes = (
(473,211,o),
(395,254,o),
(395,393,cs),
(395,434,ls),
(395,576,o),
(471,617,o),
(615,617,cs),
(758,617,o),
(833,576,o),
(833,434,cs),
(833,393,ls),
(833,254,o),
(756,211,o),
(615,211,cs)
);
},
{
closed = 1;
nodes = (
(479,841,o),
(406,880,o),
(406,1016,cs,{
name = hr03;
}),
(406,1047,ls),
(406,1182,o),
(481,1219,o),
(615,1219,cs),
(748,1219,o),
(823,1182,o),
(823,1047,cs),
(823,1016,ls),
(823,880,o),
(750,841,o),
(615,841,cs)
);
}
);
width = 1229;
},
{
layerId = "661A777E-9960-44AA-8623-3AD7C626B4F3";
shapes = (
{
closed = 1;
nodes = (
(946,-25,o),
(1116,117,o),
(1116,389,cs),
(1116,620,o),
(999,696,o),
(825,743,c),
(825,760,l),
(977,811,o),
(1073,903,o),
(1073,1096,cs,{
name = hr01;
}),
(1073,1342,o),
(903,1454,o),
(615,1454,cs),
(326,1454,o),
(156,1342,o),
(156,1096,cs),
(156,903,o),
(252,811,o),
(404,760,c),
(404,743,l),
(229,696,o),
(113,620,o),
(113,389,cs,{
name = hr02;
}),
(113,117,o),
(283,-25,o),
(615,-25,cs)
);
},
{
closed = 1;
nodes = (
(414,121,o),
(291,180,o),
(291,379,cs),
(291,424,ls),
(291,624,o),
(409,682,o),
(615,682,cs),
(819,682,o),
(938,624,o),
(938,424,cs),
(938,379,ls),
(938,180,o),
(815,121,o),
(615,121,cs)
);
},
{
closed = 1;
nodes = (
(430,821,o),
(329,876,o),
(329,1051,cs,{
name = hr03;
}),
(329,1079,ls),
(329,1254,o),
(434,1308,o),
(615,1308,cs),
(795,1308,o),
(899,1254,o),
(899,1079,cs),
(899,1051,ls),
(899,876,o),
(799,821,o),
(615,821,cs)
);
}
);
width = 1229;
},
{
associatedMasterId = "661A777E-9960-44AA-8623-3AD7C626B4F3";
layerId = "B8968940-FB49-465F-A155-9DD74D391466";
name = "9. Apr. 24, 00:50";
shapes = (
{
closed = 1;
nodes = (
(946,-25,o),
(1116,153,o),
(1116,389,cs),
(1116,584,o),
(999,696,o),
(825,743,c),
(825,760,l),
(977,811,o),
(1073,932,o),
(1073,1096,cs,{
name = hr01;
}),
(1073,1313,o),
(903,1454,o),
(615,1454,cs),
(326,1454,o),
(156,1313,o),
(156,1096,cs),
(156,932,o),
(252,811,o),
(404,760,c),
(404,743,l),
(229,696,o),
(113,584,o),
(113,389,cs,{
name = hr02;
}),
(113,153,o),
(283,-25,o),
(615,-25,cs)
);
},
{
closed = 1;
nodes = (
(414,121,o),
(291,217,o),
(291,379,cs),
(291,424,ls),
(291,588,o),
(409,682,o),
(615,682,cs),
(819,682,o),
(938,588,o),
(938,424,cs),
(938,379,ls),
(938,217,o),
(815,121,o),
(615,121,cs)
);
},
{
closed = 1;
nodes = (
(430,821,o),
(329,905,o),
(329,1051,cs,{
name = hr03;
}),
(329,1079,ls),
(329,1225,o),
(434,1308,o),
(615,1308,cs),
(795,1308,o),
(899,1225,o),
(899,1079,cs),
(899,1051,ls),
(899,905,o),
(799,821,o),
(615,821,cs)
);
}
);
width = 1229;
}
);
unicode = 56;
}
{
glyphname = less;
layers = (
{
layerId = master01;
shapes = (
{
closed = 1;
nodes = (
(1055,125,l),
(221,623,l),
(221,627,l),
(1055,1124,l),
(1055,1172,l),
(174,643,l),
(174,607,l),
(1055,78,l,{
name = hr00;
})
);
}
);
width = 1229;
},
{
layerId = "D7CFBB37-D300-46E8-A355-ECFF19545BAA";
shapes = (
{
closed = 1;
nodes = (
(1055,295,l),
(447,617,l),
(447,633,l),
(1055,954,l),
(1055,1237,l),
(174,766,l),
(174,484,l),
(1055,12,l,{
name = hr00;
})
);
}
);
width = 1229;
},
{
layerId = "661A777E-9960-44AA-8623-3AD7C626B4F3";
shapes = (
{
closed = 1;
nodes = (
(1055,207,l),
(328,618,l),
(328,635,l),
(1055,1047,l),
(1055,1217,l),
(174,707,l),
(174,543,l),
(1055,33,l,{
name = hr00;
})
);
}
);
width = 1229;
}
);
unicode = 60;
}
{
glyphname = equal;
layers = (
{
layerId = master01;
shapes = (
{
closed = 1;
nodes = (
(1102,828,l),
(127,828,l),
(127,788,l),
(1102,788,l,{
name = hr00;
})
);
},
{
closed = 1;
nodes = (
(1102,463,l),
(127,463,l),
(127,424,l),
(1102,424,l)
);
}
);
width = 1229;
},
{
layerId = "D7CFBB37-D300-46E8-A355-ECFF19545BAA";
shapes = (
{
closed = 1;
nodes = (
(1102,981,l),
(127,981,l),
(127,740,l),
(1102,740,l,{
name = hr00;
})
);
},
{
closed = 1;
nodes = (
(1102,510,l),
(127,510,l),
(127,268,l),
(1102,268,l)
);
}
);
width = 1229;
},
{
layerId = "661A777E-9960-44AA-8623-3AD7C626B4F3";
shapes = (
{
closed = 1;
nodes = (
(1102,901,l),
(127,901,l),
(127,762,l),
(1102,762,l,{
name = hr00;
})
);
},
{
closed = 1;
nodes = (
(1102,492,l),
(127,492,l),
(127,352,l),
(1102,352,l)
);
}
);
width = 1229;
}
);
unicode = 61;
}
{
glyphname = greater;
layers = (
{
layerId = master01;
shapes = (
{
closed = 1;
nodes = (
(1055,607,l),
(1055,643,l),
(174,1172,l),
(174,1124,l),
(1007,627,l),
(1007,623,l),
(174,125,l),
(174,78,l,{
name = hr00;
})
);
}
);
width = 1229;
},
{
layerId = "D7CFBB37-D300-46E8-A355-ECFF19545BAA";
shapes = (
{
closed = 1;
nodes = (
(1055,484,l),
(1055,766,l),
(174,1237,l),
(174,954,l),
(783,633,l),
(783,617,l),
(174,295,l),
(174,12,l,{
name = hr00;
})
);
}
);
width = 1229;
},
{
layerId = "661A777E-9960-44AA-8623-3AD7C626B4F3";
shapes = (
{
closed = 1;
nodes = (
(1055,543,l),
(1055,707,l),
(174,1217,l),
(174,1042,l),
(901,631,l),
(901,615,l),
(174,203,l),
(174,33,l,{
name = hr00;
})
);
}
);
width = 1229;
}
);
unicode = 62;
}
{
glyphname = question;
layers = (
{
background = {
shapes = (
{
ref = three;
}
);
};
layerId = master01;
shapes = (
{
closed = 1;
nodes = (
(594,676,l),
(857,699,o),
(1018,756,o),
(1018,1076,cs),
(1018,1373,o),
(881,1454,o),
(620,1454,cs),
(379,1454,o),
(203,1385,o),
(203,1105,c),
(249,1105,l),
(253,1351,o),
(390,1415,o),
(617,1415,cs),
(844,1415,o),
(971,1351,o),
(971,1110,cs),
(971,1057,ls),
(971,764,o),
(817,719,o),
(549,715,c),
(549,361,l),
(594,361,l)
);
},
{
pos = (-37,0);
ref = period;
}
);
width = 1229;
},
{
background = {
shapes = (
{
closed = 1;
nodes = (
(713,625,l),
(909,657,o),
(1079,803,o),
(1079,1034,cs),
(1079,1282,o),
(887,1454,o),
(596,1454,cs),
(313,1454,o),
(172,1290,o),
(125,1127,c),
(375,1022,l),
(401,1124,o),
(475,1196,o),
(585,1196,cs),
(684,1196,o),
(760,1149,o),
(760,1036,cs),
(760,1007,ls),
(760,852,o),
(631,799,o),
(426,791,c),
(426,477,l),
(713,477,l)
);
}
);
};
layerId = "D7CFBB37-D300-46E8-A355-ECFF19545BAA";
shapes = (
{
closed = 1;
nodes = (
(713,625,l),
(905,656,o),
(1079,730,o),
(1079,1030,cs),
(1079,1343,o),
(887,1454,o),
(593,1454,cs),
(314,1454,o),
(125,1355,o),
(125,1020,c),
(382,1022,l),
(401,1165,o),
(459,1196,o),
(577,1196,cs),
(670,1196,o),
(760,1177,o),
(760,1036,cs),
(760,1007,ls),
(760,801,o),
(652,799,o),
(426,791,c),
(426,477,l),
(713,477,l)
);
},
{
pos = (-36,0);
ref = period;
}
);
width = 1229;
},
{
layerId = "661A777E-9960-44AA-8623-3AD7C626B4F3";
shapes = (
{
closed = 1;
nodes = (
(651,647,l),
(844,665,o),
(1044,733,o),
(1044,1057,cs),
(1044,1344,o),
(881,1454,o),
(609,1454,cs),
(349,1454,o),
(158,1353,o),
(158,1065,c),
(326,1065,l),
(345,1268,o),
(440,1305,o),
(605,1305,cs),
(767,1305,o),
(866,1269,o),
(866,1072,cs),
(866,1044,ls),
(866,787,o),
(723,772,o),
(489,762,c),
(489,440,l),
(651,440,l)
);
},
{
pos = (-30,0);
ref = period;
}
);
width = 1229;
},
{
associatedMasterId = "661A777E-9960-44AA-8623-3AD7C626B4F3";
layerId = "4ED63DA7-FF18-48AE-84D2-00E5C2B2DDF1";
name = "9. Apr. 24, 01:25";
shapes = (
{
closed = 1;
nodes = (
(651,647,l),
(844,682,o),
(1044,809,o),
(1044,1067,cs),
(1044,1303,o),
(876,1454,o),
(617,1454,cs),
(354,1454,o),
(211,1303,o),
(158,1122,c),
(311,1065,l),
(348,1202,o),
(447,1305,o),
(610,1305,cs),
(768,1305,o),
(866,1227,o),
(866,1075,cs),
(866,1047,ls),
(866,863,o),
(723,772,o),
(489,762,c),
(489,440,l),
(651,440,l)
);
},
{
pos = (-30,0);
ref = period;
}
);
width = 1229;
},
{
associatedMasterId = "D7CFBB37-D300-46E8-A355-ECFF19545BAA";
layerId = "5A029524-757F-4994-9E5B-D3DCF22CA583";
name = "9. Apr. 24, 01:27";
shapes = (
{
closed = 1;
nodes = (
(713,625,l),
(909,657,o),
(1079,803,o),
(1079,1034,cs),
(1079,1282,o),
(887,1454,o),
(596,1454,cs),
(313,1454,o),
(172,1290,o),
(125,1127,c),
(375,1022,l),
(401,1124,o),
(475,1196,o),
(585,1196,cs),
(684,1196,o),
(760,1149,o),
(760,1036,cs),
(760,1007,ls),
(760,852,o),
(631,799,o),
(426,791,c),
(426,477,l),
(713,477,l)
);
},
{
pos = (-36,0);
ref = period;
}
);
width = 1229;
}
);
unicode = 63;
}
{
glyphname = at;
layers = (
{
layerId = master01;
shapes = (
{
closed = 1;
nodes = (
(907,-245,ls),
(425,-245,o),
(324,163,o),
(324,766,cs),
(324,893,ls),
(324,1639,o),
(476,1946,o),
(850,1946,cs),
(1211,1946,o),
(1329,1664,o),
(1329,1304,cs),
(1329,1217,l),
(1321,1217,l),
(1270,1329,o),
(1180,1405,o),
(1019,1405,cs),
(769,1405,o),
(625,1239,o),
(625,825,cs),
(625,411,o),
(769,245,o),
(1019,245,cs),
(1180,245,o),
(1270,321,o),
(1321,434,c),
(1329,434,l),
(1329,268,l),
(1385,268,l),
(1385,1304,ls),
(1385,1667,o),
(1264,1999,o),
(848,1999,cs),
(422,1999,o),
(262,1656,o),
(262,825,cs),
(262,141,o),
(369,-298,o),
(907,-298,cs),
(1326,-298,l),
(1326,-245,l,{
name = hr00;
})
);
},
{
closed = 1;
nodes = (
(825,296,o),
(687,422,o),
(687,780,cs),
(687,870,ls),
(687,1228,o),
(825,1354,o),
(1028,1354,cs),
(1214,1354,o),
(1329,1228,o),
(1329,1028,cs),
(1329,622,ls),
(1329,422,o),
(1214,296,o),
(1028,296,cs)
);
}
);
width = 1690;
},
{
layerId = "D7CFBB37-D300-46E8-A355-ECFF19545BAA";
shapes = (
{
closed = 1;
nodes = (
(960,-48,ls),
(572,-48,o),
(422,208,o),
(422,645,cs),
(422,1008,ls),
(422,1574,o),
(589,1732,o),
(865,1732,cs),
(1098,1732,o),
(1256,1622,o),
(1256,1304,cs),
(1256,1228,l),
(1236,1228,l),
(1194,1366,o),
(1101,1433,o),
(972,1433,cs),
(752,1433,o),
(622,1245,o),
(622,828,cs),
(622,411,o),
(752,222,o),
(972,222,cs),
(1101,222,o),
(1194,290,o),
(1236,428,c),
(1256,428,l),
(1256,256,l),
(1557,256,l),
(1557,1304,ls),
(1557,1695,o),
(1335,1999,o),
(848,1999,cs),
(372,1999,o),
(107,1712,o),
(107,859,cs),
(107,68,o),
(335,-318,o),
(960,-318,cs),
(1256,-318,l),
(1256,-48,l,{
name = hr00;
})
);
},
{
closed = 1;
nodes = (
(994,465,o),
(938,527,o),
(938,735,c),
(938,921,ls),
(938,1129,o),
(994,1191,o),
(1095,1191,cs),
(1200,1191,o),
(1256,1126,o),
(1256,1025,cs),
(1256,631,ls),
(1256,529,o),
(1200,465,o),
(1095,465,cs)
);
}
);
width = 1690;
},
{
layerId = "661A777E-9960-44AA-8623-3AD7C626B4F3";
shapes = (
{
closed = 1;
nodes = (
(932,-135,ls),
(484,-135,o),
(386,208,o),
(386,645,cs),
(386,1008,ls),
(386,1574,o),
(518,1819,o),
(853,1819,cs),
(1155,1819,o),
(1278,1622,o),
(1278,1304,cs),
(1278,1236,l),
(1264,1236,l),
(1228,1332,o),
(1149,1431,o),
(983,1431,cs),
(755,1431,o),
(608,1242,o),
(608,825,cs),
(608,411,o),
(755,222,o),
(983,222,cs),
(1149,222,o),
(1228,321,o),
(1264,417,c),
(1278,417,l),
(1278,256,l),
(1478,256,l),
(1478,1304,ls),
(1478,1698,o),
(1298,1999,o),
(848,1999,cs),
(408,1999,o),
(175,1715,o),
(175,845,cs),
(175,68,o),
(360,-315,o),
(932,-315,cs),
(1278,-315,l),
(1278,-135,l,{
name = hr00;
})
);
},
{
closed = 1;
nodes = (
(901,391,o),
(817,490,o),
(817,741,c),
(817,912,ls),
(817,1163,o),
(901,1262,o),
(1056,1262,cs),
(1191,1262,o),
(1278,1186,o),
(1278,1042,cs),
(1278,611,ls),
(1278,467,o),
(1191,391,o),
(1056,391,cs)
);
}
);
width = 1690;
}
);
unicode = 64;
}
{
glyphname = A;
layers = (
{
anchors = (
{
name = bottom;
pos = (615,0);
},
{
name = bottomright;
pos = (1122,0);
},
{
name = top;
pos = (615,1430);
}
);
layerId = master01;
shapes = (
{
closed = 1;
nodes = (
(645,1430,l),
(584,1430,l),
(106,0,l),
(153,0,l),
(313,479,l),
(916,479,l),
(1075,0,l),
(1122,0,l,{
name = hr00;
})
);
},
{
closed = 1;
nodes = (
(326,518,l),
(610,1378,l),
(617,1378,l),
(903,518,l)
);
}
);
width = 1229;
},
{
anchors = (
{
name = bottom;
pos = (615,36);
},
{
name = bottomright;
pos = (1219,0);
},
{
name = top;
pos = (615,1430);
}
);
layerId = "D7CFBB37-D300-46E8-A355-ECFF19545BAA";
shapes = (
{
closed = 1;
nodes = (
(831,1430,l),
(397,1430,l),
(10,0,l),
(321,0,l),
(409,344,l),
(801,344,l),
(891,0,l),
(1219,0,l,{
name = hr00;
})
);
},
{
closed = 1;
nodes = (
(459,592,l),
(598,1132,l),
(615,1132,l),
(753,592,l)
);
}
);
width = 1229;
},
{
anchors = (
{
name = bottom;
pos = (615,0);
},
{
name = bottomright;
pos = (1167,0);
},
{
name = top;
pos = (615,1430);
}
);
layerId = "661A777E-9960-44AA-8623-3AD7C626B4F3";
shapes = (
{
closed = 1;
nodes = (
(729,1430,l),
(502,1430,l),
(63,0,l),
(241,0,l),
(362,407,l),
(864,407,l),
(985,0,l),
(1167,0,l,{
name = hr00;
})
);
},
{
closed = 1;
nodes = (
(404,557,l),
(604,1247,l),
(623,1247,l),
(823,557,l)
);
}
);
width = 1229;
}
);
unicode = 65;
}
{
glyphname = B;
layers = (
{
anchors = (
{
name = bottom;
pos = (828,0);
},
{
name = top;
pos = (772,1966);
}
);
layerId = master01;
shapes = (
{
closed = 1;
nodes = (
(963,0,ls),
(1284,0,o),
(1453,203,o),
(1453,513,cs),
(1453,780,o),
(1332,960,o),
(1090,1005,c),
(1090,1011,l),
(1262,1067,o),
(1363,1211,o),
(1363,1467,cs),
(1363,1794,o),
(1191,1966,o),
(901,1966,cs),
(276,1966,l),
(276,0,l,{
name = hr00;
})
);
},
{
closed = 1;
nodes = (
(338,969,l),
(963,969,ls),
(1253,969,o),
(1385,777,o),
(1385,572,cs),
(1385,453,ls),
(1385,248,o),
(1253,56,o),
(963,56,cs),
(338,56,l)
);
},
{
closed = 1;
nodes = (
(338,1909,l),
(901,1909,ls),
(1171,1909,o),
(1295,1729,o),
(1295,1526,cs),
(1295,1408,ls),
(1295,1205,o),
(1171,1025,o),
(901,1025,cs),
(338,1025,l)
);
}
);
width = 1690;
},
{
anchors = (
{
name = bottom;
pos = (845,0);
},
{
name = top;
pos = (831,1966);
}
);
layerId = "D7CFBB37-D300-46E8-A355-ECFF19545BAA";
shapes = (
{
closed = 1;
nodes = (
(972,0,ls),
(1343,0,o),
(1566,211,o),
(1566,541,cs),
(1566,805,o),
(1425,952,o),
(1183,1011,c),
(1183,1028,l),
(1388,1087,o),
(1504,1219,o),
(1504,1442,cs,{
name = hr01;
}),
(1504,1763,o),
(1290,1966,o),
(907,1966,cs),
(217,1966,l),
(217,0,l)
);
},
{
closed = 1;
nodes = (
(628,850,l),
(842,850,ls),
(1042,850,o),
(1135,791,o),
(1135,614,cs,{
name = hr02;
}),
(1135,532,ls),
(1135,352,o),
(1042,296,o),
(842,296,cs),
(628,296,l)
);
},
{
closed = 1;
nodes = (
(628,1670,l),
(788,1670,ls),
(986,1670,o),
(1073,1616,o),
(1073,1445,cs,{
name = hr03;
}),
(1073,1360,ls),
(1073,1188,o),
(986,1132,o),
(788,1132,cs),
(628,1132,l)
);
}
);
width = 1690;
},
{
anchors = (
{
name = bottom;
pos = (887,0);
},
{
name = top;
pos = (831,1966);
}
);
layerId = "661A777E-9960-44AA-8623-3AD7C626B4F3";
shapes = (
{
closed = 1;
nodes = (
(1000,0,ls),
(1304,0,o),
(1529,248,o),
(1529,566,cs),
(1529,839,o),
(1369,977,o),
(1149,1028,c),
(1149,1036,l),
(1329,1093,o),
(1456,1225,o),
(1456,1459,cs,{
name = hr01;
}),
(1456,1766,o),
(1250,1966,o),
(915,1966,cs),
(248,1966,l),
(248,0,l)
);
},
{
closed = 1;
nodes = (
(484,918,l),
(929,918,ls),
(1146,918,o),
(1278,817,o),
(1278,620,cs,{
name = hr02;
}),
(1278,504,ls),
(1278,304,o),
(1146,206,o),
(929,206,cs),
(484,206,l)
);
},
{
closed = 1;
nodes = (
(484,1760,l),
(890,1760,ls),
(1087,1760,o),
(1208,1670,o),
(1208,1490,cs,{
name = hr03;
}),
(1208,1380,ls),
(1208,1200,o),
(1087,1112,o),
(890,1112,cs),
(484,1112,l)
);
}
);
width = 1690;
}
);
unicode = 66;
}
{
glyphname = C;
layers = (
{
anchors = (
{
name = bottom;
pos = (881,0);
},
{
name = top;
pos = (915,1966);
}
);
layerId = master01;
shapes = (
{
closed = 1;
nodes = (
(1180,-34,o),
(1374,121,o),
(1459,363,c),
(1405,383,l),
(1329,161,o),
(1155,23,o),
(915,23,cs),
(507,23,o),
(290,315,o),
(290,893,cs),
(290,1073,ls),
(290,1650,o),
(507,1943,o),
(915,1943,cs),
(1155,1943,o),
(1329,1805,o),
(1405,1583,c),
(1459,1602,l),
(1374,1844,o),
(1180,1999,o),
(915,1999,cs),
(470,1999,o),
(222,1704,o),
(222,983,cs),
(222,262,o),
(470,-34,o),
(915,-34,cs,{
name = hr00;
})
);
}
);
width = 1690;
},
{
anchors = (
{
name = bottom;
pos = (853,0);
},
{
name = top;
pos = (879,1966);
}
);
layerId = "D7CFBB37-D300-46E8-A355-ECFF19545BAA";
shapes = (
{
closed = 1;
nodes = (
(1295,-34,o),
(1507,189,o),
(1585,532,c),
(1191,628,l),
(1149,442,o),
(1079,307,o),
(881,307,cs),
(653,307,o),
(566,498,o),
(566,811,cs),
(566,1155,l),
(566,1467,o),
(653,1659,o),
(881,1659,cs),
(1079,1659,o),
(1149,1523,o),
(1191,1338,c),
(1585,1433,l),
(1507,1777,o),
(1295,1999,o),
(890,1999,cs),
(363,1999,o),
(115,1628,o),
(115,983,cs),
(115,338,o),
(363,-34,o),
(890,-34,cs,{
name = hr00;
})
);
}
);
width = 1690;
},
{
anchors = (
{
name = bottom;
pos = (867,0);
},
{
name = top;
pos = (924,1966);
}
);
layerId = "661A777E-9960-44AA-8623-3AD7C626B4F3";
shapes = (
{
closed = 1;
nodes = (
(1270,-34,o),
(1419,183,o),
(1515,397,c),
(1312,490,l),
(1242,315,o),
(1149,172,o),
(910,172,cs),
(597,172,o),
(448,428,o),
(448,822,cs),
(448,1143,ls),
(448,1538,o),
(597,1794,o),
(910,1794,cs),
(1149,1794,o),
(1242,1650,o),
(1312,1476,c),
(1515,1569,l),
(1419,1783,o),
(1270,1999,o),
(910,1999,cs),
(431,1999,o),
(197,1636,o),
(197,983,cs),
(197,329,o),
(431,-34,o),
(910,-34,cs,{
name = hr00;
})
);
}
);
width = 1690;
},
{
anchors = (
{
name = bottom;
pos = (867,0);
},
{
name = top;
pos = (924,1966);
}
);
associatedMasterId = "661A777E-9960-44AA-8623-3AD7C626B4F3";
background = {
shapes = (
{
closed = 1;
nodes = (
(1270,-34,o),
(1419,183,o),
(1515,397,c),
(1312,490,l),
(1242,315,o),
(1149,172,o),
(910,172,cs),
(597,172,o),
(448,428,o),
(448,822,cs),
(448,1143,ls),
(448,1538,o),
(597,1794,o),
(910,1794,cs),
(1149,1794,o),
(1242,1650,o),
(1312,1476,c),
(1515,1569,l),
(1419,1783,o),
(1270,1999,o),
(910,1999,cs),
(431,1999,o),
(197,1636,o),
(197,983,cs),
(197,329,o),
(431,-34,o),
(910,-34,cs,{
name = hr00;
})
);
}
);
};
guides = (
{
angle = 270;
pos = (1515,911);
}
);
layerId = "B0E80E4F-2162-4871-BAED-54DA23A5BB20";
name = "19. März 24, 13:08";
shapes = (
{
closed = 1;
nodes = (
(1280,-34,o),
(1479,183,o),
(1525,560,c),
(1302,560,l),
(1254,321,o),
(1159,172,o),
(915,172,cs),
(594,172,o),
(448,429,o),
(448,822,cs),
(448,1143,ls),
(448,1538,o),
(595,1794,o),
(914,1794,cs),
(1149,1794,o),
(1254,1655,o),
(1302,1436,c),
(1515,1436,l),
(1468,1786,o),
(1270,1999,o),
(907,1999,cs),
(432,1999,o),
(197,1636,o),
(197,982,cs),
(197,329,o),
(431,-34,o),
(910,-34,cs,{
name = hr00;
})
);
}
);
width = 1690;
},
{
anchors = (
{
name = bottom;
pos = (867,0);
},
{
name = top;
pos = (924,1966);
}
);
associatedMasterId = "661A777E-9960-44AA-8623-3AD7C626B4F3";
background = {
shapes = (
{
closed = 1;
nodes = (
(1270,-34,o),
(1419,183,o),
(1515,397,c),
(1312,490,l),
(1242,315,o),
(1149,172,o),
(910,172,cs),
(597,172,o),
(448,428,o),
(448,822,cs),
(448,1143,ls),
(448,1538,o),
(597,1794,o),
(910,1794,cs),
(1149,1794,o),
(1242,1650,o),
(1312,1476,c),
(1515,1569,l),
(1419,1783,o),
(1270,1999,o),
(910,1999,cs),
(431,1999,o),
(197,1636,o),
(197,983,cs),
(197,329,o),
(431,-34,o),
(910,-34,cs,{
name = hr00;
})
);
},
{
pos = (40,0);
ref = O;
}
);
};
guides = (
{
angle = 270;
pos = (1515,911);
}
);
layerId = "9BA69531-9C0B-492F-89B0-F8DA77809569";
name = "19. März 24, 16:15";
shapes = (
{
closed = 1;
nodes = (
(1280,-34,o),
(1475,214,o),
(1545,620,c),
(1308,620,l),
(1270,321,o),
(1114,172,o),
(915,172,cs),
(594,172,o),
(448,429,o),
(448,822,cs),
(448,1143,ls),
(448,1538,o),
(595,1794,o),
(914,1794,cs),
(1103,1794,o),
(1254,1655,o),
(1302,1386,c),
(1535,1386,l),
(1484,1722,o),
(1270,1999,o),
(907,1999,cs),
(432,1999,o),
(197,1636,o),
(197,982,cs),
(197,329,o),
(431,-34,o),
(910,-34,cs,{
name = hr00;
})
);
}
);
width = 1690;
},
{
anchors = (
{
name = bottom;
pos = (867,0);
},
{
name = top;
pos = (924,1966);
}
);
associatedMasterId = "661A777E-9960-44AA-8623-3AD7C626B4F3";
background = {
shapes = (
{
closed = 1;
nodes = (
(1270,-34,o),
(1419,183,o),
(1515,397,c),
(1312,490,l),
(1242,315,o),
(1149,172,o),
(910,172,cs),
(597,172,o),
(448,428,o),
(448,822,cs),
(448,1143,ls),
(448,1538,o),
(597,1794,o),
(910,1794,cs),
(1149,1794,o),
(1242,1650,o),
(1312,1476,c),
(1515,1569,l),
(1419,1783,o),
(1270,1999,o),
(910,1999,cs),
(431,1999,o),
(197,1636,o),
(197,983,cs),
(197,329,o),
(431,-34,o),
(910,-34,cs,{
name = hr00;
})
);
},
{
pos = (40,0);
ref = O;
}
);
};
guides = (
{
angle = 270;
pos = (1515,911);
}
);
layerId = "E99FF472-9BEF-45C8-86BC-66861CE5EDF6";
name = "19. März 24, 16:17";
shapes = (
{
closed = 1;
nodes = (
(1280,-34,o),
(1525,183,o),
(1525,620,c),
(1312,620,l),
(1284,321,o),
(1159,172,o),
(915,172,cs),
(594,172,o),
(448,429,o),
(448,822,cs),
(448,1143,ls),
(448,1538,o),
(595,1794,o),
(914,1794,cs),
(1149,1794,o),
(1274,1655,o),
(1302,1386,c),
(1515,1386,l),
(1515,1786,o),
(1270,1999,o),
(907,1999,cs),
(432,1999,o),
(197,1636,o),
(197,982,cs),
(197,329,o),
(431,-34,o),
(910,-34,cs,{
name = hr00;
})
);
}
);
width = 1690;
}
);
unicode = 67;
}
{
glyphname = D;
layers = (
{
anchors = (
{
name = bottom;
pos = (780,0);
},
{
name = top;
pos = (780,1966);
}
);
layerId = master01;
shapes = (
{
closed = 1;
nodes = (
(817,0,ls),
(1287,0,o),
(1487,332,o),
(1487,983,cs),
(1487,1633,o),
(1287,1966,o),
(817,1966,cs),
(304,1966,l),
(304,0,l,{
name = hr00;
})
);
},
{
closed = 1;
nodes = (
(366,1909,l),
(819,1909,ls),
(1239,1909,o),
(1419,1594,o),
(1419,1073,cs),
(1419,893,ls),
(1419,372,o),
(1239,56,o),
(819,56,cs),
(366,56,l)
);
}
);
width = 1690;
},
{
anchors = (
{
name = bottom;
pos = (783,0);
},
{
name = top;
pos = (783,1966);
}
);
layerId = "D7CFBB37-D300-46E8-A355-ECFF19545BAA";
shapes = (
{
closed = 1;
nodes = (
(814,0,l),
(1340,0,o),
(1594,352,o),
(1594,983,cs),
(1594,1614,o),
(1340,1966,o),
(814,1966,cs),
(180,1966,l),
(180,0,l,{
name = hr00;
})
);
},
{
closed = 1;
nodes = (
(597,1633,l),
(786,1633,ls),
(1036,1633,o),
(1149,1467,o),
(1149,1163,cs),
(1149,805,l),
(1149,498,o),
(1036,332,o),
(786,332,cs),
(597,332,l)
);
}
);
width = 1690;
},
{
anchors = (
{
name = bottom;
pos = (780,0);
},
{
name = top;
pos = (780,1966);
}
);
layerId = "661A777E-9960-44AA-8623-3AD7C626B4F3";
shapes = (
{
closed = 1;
nodes = (
(817,0,l),
(1295,0,o),
(1532,338,o),
(1532,983,cs),
(1532,1628,o),
(1295,1966,o),
(817,1966,cs),
(268,1966,l),
(268,0,l,{
name = hr00;
})
);
},
{
closed = 1;
nodes = (
(504,1760,l),
(805,1760,ls),
(1118,1760,o),
(1281,1529,o),
(1281,1135,cs),
(1281,831,l),
(1281,436,o),
(1118,206,o),
(805,206,cs),
(504,206,l)
);
}
);
width = 1690;
}
);
unicode = 68;
}
{
glyphname = E;
layers = (
{
anchors = (
{
name = bottom;
pos = (629,0);
},
{
name = bottomright;
pos = (1052,0);
},
{
name = top;
pos = (633,1430);
}
);
layerId = master01;
shapes = (
{
closed = 1;
nodes = (
(1052,41,l),
(266,41,l),
(266,705,l),
(1024,705,l),
(1024,745,l),
(266,745,l),
(266,1388,l),
(1052,1388,l),
(1052,1430,l),
(221,1430,l),
(221,0,l),
(1052,0,l,{
name = hr00;
})
);
}
);
width = 1229;
},
{
anchors = (
{
name = bottom;
pos = (620,0);
},
{
name = bottomright;
pos = (1077,0);
},
{
name = top;
pos = (620,1430);
}
);
layerId = "D7CFBB37-D300-46E8-A355-ECFF19545BAA";
shapes = (
{
closed = 1;
nodes = (
(1077,252,l),
(471,252,l),
(471,598,l),
(1057,598,l),
(1057,850,l),
(471,850,l),
(471,1177,l),
(1077,1177,l),
(1077,1430,l),
(164,1430,l),
(164,0,l),
(1077,0,l,{
name = hr00;
})
);
}
);
width = 1229;
},
{
anchors = (
{
name = bottom;
pos = (625,0);
},
{
name = bottomright;
pos = (1065,0);
},
{
name = top;
pos = (625,1430);
}
);
layerId = "661A777E-9960-44AA-8623-3AD7C626B4F3";
shapes = (
{
closed = 1;
nodes = (
(1065,150,l),
(356,150,l),
(356,649,l),
(1041,649,l),
(1041,799,l),
(356,799,l),
(356,1280,l),
(1065,1280,l),
(1065,1430,l),
(184,1430,l),
(184,0,l),
(1065,0,l,{
name = hr00;
})
);
}
);
width = 1229;
}
);
unicode = 69;
}
{
glyphname = F;
layers = (
{
anchors = (
{
name = bottom;
pos = (244,0);
},
{
name = top;
pos = (633,1430);
}
);
layerId = master01;
shapes = (
{
closed = 1;
nodes = (
(266,705,l),
(1004,705,l),
(1004,745,l),
(266,745,l),
(266,1388,l),
(1061,1388,l),
(1061,1430,l),
(221,1430,l),
(221,0,l),
(266,0,l,{
name = hr00;
})
);
}
);
width = 1229;
},
{
anchors = (
{
name = bottom;
pos = (309,0);
},
{
name = top;
pos = (637,1430);
}
);
layerId = "D7CFBB37-D300-46E8-A355-ECFF19545BAA";
shapes = (
{
closed = 1;
nodes = (
(471,598,l),
(1044,598,l),
(1044,850,l),
(471,850,l),
(471,1177,l),
(1112,1177,l),
(1112,1430,l),
(164,1430,l),
(164,0,l),
(471,0,l,{
name = hr00;
})
);
}
);
width = 1229;
},
{
anchors = (
{
name = bottom;
pos = (271,0);
},
{
name = top;
pos = (635,1430);
}
);
layerId = "661A777E-9960-44AA-8623-3AD7C626B4F3";
shapes = (
{
closed = 1;
nodes = (
(356,649,l),
(1024,649,l),
(1024,799,l),
(356,799,l),
(356,1280,l),
(1085,1280,l),
(1085,1430,l),
(184,1430,l),
(184,0,l),
(356,0,l,{
name = hr00;
})
);
}
);
width = 1229;
}
);
unicode = 70;
}
{
glyphname = G;
layers = (
{
anchors = (
{
name = bottom;
pos = (623,0);
},
{
name = top;
pos = (641,1430);
}
);
background = {
shapes = (
{
closed = 1;
nodes = (
(1051,0,l),
(1051,645,l),
(641,645,l),
(641,604,l),
(1006,604,l),
(1006,399,ls),
(1006,176,o),
(868,17,o),
(641,17,cs,{
name = hr01;
}),
(356,17,o),
(203,229,o),
(203,649,cs),
(203,780,ls),
(203,1200,o),
(356,1413,o),
(641,1413,cs),
(811,1413,o),
(938,1313,o),
(991,1151,c),
(1030,1165,l),
(971,1341,o),
(829,1454,o),
(641,1454,cs),
(329,1454,o),
(153,1239,o),
(153,715,cs),
(153,191,o),
(329,-25,o),
(641,-25,cs),
(854,-25,o),
(944,78,o),
(999,211,c,{
name = hr02;
}),
(1006,211,l),
(1006,0,l)
);
}
);
};
guides = (
{
angle = 270;
pos = (1445,1158);
}
);
layerId = master01;
shapes = (
{
closed = 1;
nodes = (
(1051,0,l),
(1051,645,l),
(641,645,l),
(641,604,l),
(1006,604,l),
(1006,399,ls),
(1006,176,o),
(868,17,o),
(641,17,cs,{
name = hr01;
}),
(356,17,o),
(203,229,o),
(203,649,cs),
(203,780,ls),
(203,1200,o),
(356,1413,o),
(641,1413,cs),
(811,1413,o),
(975,1313,o),
(999,1056,c),
(1044,1056,l),
(1015,1348,o),
(829,1454,o),
(641,1454,cs),
(329,1454,o),
(153,1239,o),
(153,715,cs),
(153,191,o),
(329,-25,o),
(641,-25,cs),
(854,-25,o),
(944,78,o),
(999,211,c,{
name = hr02;
}),
(1006,211,l),
(1006,0,l)
);
}
);
width = 1229;
},
{
anchors = (
{
name = bottom;
pos = (610,0);
},
{
name = top;
pos = (617,1430);
}
);
background = {
shapes = (
{
pos = (-20,0);
ref = C;
}
);
};
layerId = "D7CFBB37-D300-46E8-A355-ECFF19545BAA";
shapes = (
{
closed = 1;
nodes = (
(1116,0,l),
(1116,764,l),
(598,764,l),
(598,547,l),
(841,547,l),
(841,442,ls),
(841,307,o),
(772,223,o),
(618,223,cs,{
name = hr01;
}),
(457,223,o),
(397,314,o),
(397,607,cs),
(397,840,ls),
(397,1086,o),
(440,1207,o),
(628,1207,cs),
(759,1207,o),
(823,1149,o),
(840,979,c),
(1124,979,l),
(1124,1317,o),
(910,1454,o),
(620,1454,cs),
(228,1454,o),
(70,1204,o),
(70,692,cs),
(70,172,o),
(233,-25,o),
(495,-25,cs),
(681,-25,o),
(772,76,o),
(823,203,c,{
name = hr02;
}),
(841,203,l),
(841,0,l)
);
}
);
width = 1229;
},
{
anchors = (
{
name = bottom;
pos = (615,0);
},
{
name = top;
pos = (627,1430);
}
);
background = {
shapes = (
{
pos = (-39,0);
ref = C;
}
);
};
layerId = "661A777E-9960-44AA-8623-3AD7C626B4F3";
shapes = (
{
closed = 1;
nodes = (
(1069,0,l),
(1069,707,l),
(608,707,l),
(608,569,l),
(909,569,l),
(909,422,ls),
(909,246,o),
(804,121,o),
(604,121,cs,{
name = hr01;
}),
(345,121,o),
(297,334,o),
(297,610,cs),
(297,831,ls),
(297,1121,o),
(351,1305,o),
(608,1305,cs),
(817,1305,o),
(879,1183,o),
(900,1042,c),
(1069,1042,l),
(1055,1271,o),
(913,1454,o),
(606,1454,cs),
(236,1454,o),
(115,1188,o),
(115,709,cs),
(115,242,o),
(230,-25,o),
(567,-25,cs),
(772,-25,o),
(848,73,o),
(899,191,c,{
name = hr02;
}),
(909,191,l),
(909,0,l)
);
}
);
width = 1229;
},
{
anchors = (
{
name = bottom;
pos = (615,0);
},
{
name = top;
pos = (627,1430);
}
);
associatedMasterId = "661A777E-9960-44AA-8623-3AD7C626B4F3";
layerId = "27F4B7E7-D9FC-405F-AAB3-47C4D1959AEA";
name = "25. März 24, 17:02";
shapes = (
{
closed = 1;
nodes = (
(1069,0,l),
(1069,707,l),
(608,707,l),
(608,569,l),
(909,569,l),
(909,422,ls),
(909,246,o),
(799,121,o),
(615,121,cs,{
name = hr01;
}),
(381,121,o),
(297,324,o),
(297,610,cs),
(297,831,ls),
(297,1119,o),
(401,1305,o),
(631,1305,cs),
(803,1305,o),
(871,1200,o),
(921,1073,c),
(1069,1141,l),
(1007,1297,o),
(893,1454,o),
(625,1454,cs),
(281,1454,o),
(115,1192,o),
(115,705,cs),
(115,238,o),
(266,-25,o),
(575,-25,cs),
(772,-25,o),
(852,80,o),
(899,191,c,{
name = hr02;
}),
(909,191,l),
(909,0,l)
);
}
);
width = 1229;
},
{
anchors = (
{
name = bottom;
pos = (610,0);
},
{
name = top;
pos = (617,1430);
}
);
associatedMasterId = "D7CFBB37-D300-46E8-A355-ECFF19545BAA";
layerId = "4903B034-A3A1-47CB-BCCC-F9C37B99B6E3";
name = "25. März 24, 17:03";
shapes = (
{
closed = 1;
nodes = (
(1116,0,l),
(1116,764,l),
(598,764,l),
(598,547,l),
(841,547,l),
(841,442,ls),
(841,316,o),
(772,223,o),
(635,223,cs,{
name = hr01;
}),
(457,223,o),
(397,375,o),
(397,607,cs),
(397,840,ls),
(397,1069,o),
(455,1207,o),
(610,1207,cs),
(751,1207,o),
(799,1094,o),
(829,973,c),
(1116,1042,l),
(1059,1288,o),
(911,1454,o),
(617,1454,cs),
(246,1454,o),
(72,1188,o),
(72,703,cs),
(72,248,o),
(223,-25,o),
(504,-25,cs),
(680,-25,o),
(776,84,o),
(823,203,c,{
name = hr02;
}),
(841,203,l),
(841,0,l)
);
}
);
width = 1229;
},
{
anchors = (
{
name = bottom;
pos = (623,0);
},
{
name = top;
pos = (641,1430);
}
);
associatedMasterId = master01;
layerId = "0BD72D08-D2EE-492A-B1E8-6C3BF7072804";
name = "25. März 24, 17:04";
shapes = (
{
closed = 1;
nodes = (
(1051,0,l),
(1051,645,l),
(641,645,l),
(641,604,l),
(1006,604,l),
(1006,399,ls),
(1006,176,o),
(868,17,o),
(641,17,cs,{
name = hr01;
}),
(356,17,o),
(203,229,o),
(203,649,cs),
(203,780,ls),
(203,1200,o),
(356,1413,o),
(641,1413,cs),
(811,1413,o),
(938,1313,o),
(991,1151,c),
(1030,1165,l),
(971,1341,o),
(829,1454,o),
(641,1454,cs),
(329,1454,o),
(153,1239,o),
(153,715,cs),
(153,191,o),
(329,-25,o),
(641,-25,cs),
(854,-25,o),
(944,78,o),
(999,211,c,{
name = hr02;
}),
(1006,211,l),
(1006,0,l)
);
}
);
width = 1229;
},
{
anchors = (
{
name = bottom;
pos = (615,0);
},
{
name = top;
pos = (627,1430);
}
);
associatedMasterId = "661A777E-9960-44AA-8623-3AD7C626B4F3";
background = {
shapes = (
{
closed = 1;
nodes = (
(1069,0,l),
(1069,707,l),
(608,707,l),
(608,569,l),
(909,569,l),
(909,422,ls),
(909,246,o),
(799,121,o),
(615,121,cs,{
name = hr01;
}),
(381,121,o),
(297,324,o),
(297,610,cs),
(297,831,ls),
(297,1119,o),
(401,1305,o),
(631,1305,cs),
(803,1305,o),
(871,1200,o),
(921,1073,c),
(1069,1141,l),
(1007,1297,o),
(893,1454,o),
(625,1454,cs),
(281,1454,o),
(115,1192,o),
(115,705,cs),
(115,238,o),
(266,-25,o),
(575,-25,cs),
(772,-25,o),
(852,80,o),
(899,191,c,{
name = hr02;
}),
(909,191,l),
(909,0,l)
);
}
);
};
layerId = "9E3299DF-0830-412D-85C2-785DF497E9BC";
name = "7. Apr. 24, 23:51";
shapes = (
{
closed = 1;
nodes = (
(1069,0,l),
(1069,707,l),
(608,707,l),
(608,569,l),
(909,569,l),
(909,422,ls),
(909,246,o),
(799,121,o),
(615,121,cs,{
name = hr01;
}),
(381,121,o),
(297,324,o),
(297,610,cs),
(297,831,ls),
(297,1119,o),
(401,1305,o),
(631,1305,cs),
(803,1305,o),
(871,1200,o),
(900,1057,c),
(1069,1057,l),
(1056,1283,o),
(893,1454,o),
(625,1454,cs),
(281,1454,o),
(115,1192,o),
(115,705,cs),
(115,238,o),
(266,-25,o),
(575,-25,cs),
(772,-25,o),
(852,80,o),
(899,191,c,{
name = hr02;
}),
(909,191,l),
(909,0,l)
);
}
);
width = 1229;
},
{
anchors = (
{
name = bottom;
pos = (610,0);
},
{
name = top;
pos = (617,1430);
}
);
associatedMasterId = "D7CFBB37-D300-46E8-A355-ECFF19545BAA";
background = {
shapes = (
{
closed = 1;
nodes = (
(1116,0,l),
(1116,764,l),
(598,764,l),
(598,547,l),
(841,547,l),
(841,442,ls),
(841,316,o),
(772,223,o),
(635,223,cs,{
name = hr01;
}),
(457,223,o),
(397,375,o),
(397,607,cs),
(397,840,ls),
(397,1069,o),
(455,1207,o),
(610,1207,cs),
(751,1207,o),
(799,1094,o),
(829,973,c),
(1116,1042,l),
(1059,1288,o),
(911,1454,o),
(617,1454,cs),
(246,1454,o),
(72,1188,o),
(72,703,cs),
(72,248,o),
(223,-25,o),
(504,-25,cs),
(680,-25,o),
(776,84,o),
(823,203,c,{
name = hr02;
}),
(841,203,l),
(841,0,l)
);
}
);
};
layerId = "E7F6EDBF-0CFE-4300-9C1E-D4F8D8FA7803";
name = "8. Apr. 24, 18:50";
shapes = (
{
closed = 1;
nodes = (
(1116,0,l),
(1116,764,l),
(598,764,l),
(598,547,l),
(841,547,l),
(841,442,ls),
(841,316,o),
(772,223,o),
(635,223,cs,{
name = hr01;
}),
(457,223,o),
(397,375,o),
(397,607,cs),
(397,840,ls),
(397,1069,o),
(455,1207,o),
(610,1207,cs),
(751,1207,o),
(806,1094,o),
(829,973,c),
(1116,973,l),
(1095,1281,o),
(911,1454,o),
(617,1454,cs),
(246,1454,o),
(72,1188,o),
(72,703,cs),
(72,248,o),
(223,-25,o),
(504,-25,cs),
(680,-25,o),
(776,84,o),
(823,203,c,{
name = hr02;
}),
(841,203,l),
(841,0,l)
);
}
);
width = 1229;
}
);
unicode = 71;
}
{
glyphname = H;
layers = (
{
anchors = (
{
name = bottom;
pos = (615,0);
},
{
name = top;
pos = (615,1430);
}
);
layerId = master01;
shapes = (
{
closed = 1;
nodes = (
(1028,0,l),
(1028,1430,l),
(983,1430,l),
(983,745,l),
(246,745,l),
(246,1430,l),
(201,1430,l),
(201,0,l),
(246,0,l),
(246,705,l),
(983,705,l),
(983,0,l,{
name = hr00;
})
);
}
);
width = 1229;
},
{
anchors = (
{
name = bottom;
pos = (615,0);
},
{
name = top;
pos = (615,1430);
}
);
layerId = "D7CFBB37-D300-46E8-A355-ECFF19545BAA";
shapes = (
{
closed = 1;
nodes = (
(1104,0,l),
(1104,1430,l),
(795,1430,l),
(795,850,l),
(434,850,l),
(434,1430,l),
(125,1430,l),
(125,0,l),
(434,0,l),
(434,598,l),
(795,598,l),
(795,0,l,{
name = hr00;
})
);
}
);
width = 1229;
},
{
anchors = (
{
name = bottom;
pos = (615,0);
},
{
name = top;
pos = (615,1430);
}
);
layerId = "661A777E-9960-44AA-8623-3AD7C626B4F3";
shapes = (
{
closed = 1;
nodes = (
(1065,0,l),
(1065,1430,l),
(893,1430,l),
(893,799,l),
(336,799,l),
(336,1430,l),
(164,1430,l),
(164,0,l),
(336,0,l),
(336,649,l),
(893,649,l),
(893,0,l,{
name = hr00;
})
);
}
);
width = 1229;
}
);
unicode = 72;
}
{
glyphname = I;
layers = (
{
anchors = (
{
name = bottom;
pos = (615,0);
},
{
name = bottomright;
pos = (1041,0);
},
{
name = top;
pos = (615,1430);
}
);
layerId = master01;
shapes = (
{
closed = 1;
nodes = (
(1041,39,l),
(637,39,l),
(637,1391,l),
(1041,1391,l),
(1041,1430,l),
(188,1430,l),
(188,1391,l),
(592,1391,l),
(592,39,l),
(188,39,l),
(188,0,l),
(1041,0,l,{
name = hr00;
})
);
}
);
width = 1229;
},
{
anchors = (
{
name = bottom;
pos = (615,0);
},
{
name = bottomright;
pos = (1075,0);
},
{
name = top;
pos = (615,1430);
}
);
layerId = "D7CFBB37-D300-46E8-A355-ECFF19545BAA";
shapes = (
{
closed = 1;
nodes = (
(1075,228,l),
(768,228,l),
(768,1202,l),
(1075,1202,l),
(1075,1430,l),
(153,1430,l),
(153,1202,l),
(461,1202,l),
(461,228,l),
(153,228,l),
(153,0,l),
(1075,0,l,{
name = hr00;
})
);
}
);
width = 1229;
},
{
anchors = (
{
name = bottom;
pos = (615,0);
},
{
name = bottomright;
pos = (1057,0);
},
{
name = top;
pos = (615,1430);
}
);
layerId = "661A777E-9960-44AA-8623-3AD7C626B4F3";
shapes = (
{
closed = 1;
nodes = (
(1057,137,l),
(700,137,l),
(700,1292,l),
(1057,1292,l),
(1057,1430,l),
(172,1430,l),
(172,1292,l),
(529,1292,l),
(529,137,l),
(172,137,l),
(172,0,l),
(1057,0,l,{
name = hr00;
})
);
}
);
width = 1229;
}
);
unicode = 73;
}
{
glyphname = J;
layers = (
{
anchors = (
{
name = bottom;
pos = (572,0);
},
{
name = top;
pos = (627,1430);
}
);
background = {
shapes = (
{
closed = 1;
nodes = (
(796,-25,o),
(944,123,o),
(944,387,cs),
(944,1430,l),
(321,1430,l,{
name = hr00;
}),
(321,1388,l),
(899,1388,l),
(899,391,ls),
(899,150,o),
(776,17,o),
(567,17,cs),
(383,17,o),
(274,108,o),
(239,254,c),
(196,244,l),
(233,76,o),
(371,-25,o),
(567,-25,cs)
);
}
);
};
layerId = master01;
shapes = (
{
ref = _J;
},
{
closed = 1;
nodes = (
(321,1430,l,{
name = hr00;
}),
(321,1388,l),
(944,1388,l),
(944,1430,l)
);
}
);
width = 1229;
},
{
anchors = (
{
name = bottom;
pos = (563,0);
},
{
name = top;
pos = (657,1430);
}
);
background = {
shapes = (
{
pos = (-100,0);
ref = U;
}
);
};
layerId = "D7CFBB37-D300-46E8-A355-ECFF19545BAA";
shapes = (
{
ref = _J;
},
{
closed = 1;
nodes = (
(264,1430,l,{
name = hr00;
}),
(264,1177,l),
(1047,1177,l),
(1047,1430,l)
);
}
);
width = 1229;
},
{
anchors = (
{
name = bottom;
pos = (567,0);
},
{
name = top;
pos = (641,1430);
}
);
background = {
shapes = (
{
closed = 1;
nodes = (
(295,1280,l),
(811,1280,l),
(811,401,ls),
(811,215,o),
(721,127,o),
(565,127,cs),
(406,127,o),
(342,219,o),
(316,334,c),
(151,299,l),
(195,95,o),
(344,-25,o),
(561,-25,cs),
(809,-25,o),
(983,129,o),
(983,371,c),
(983,1430,l),
(295,1430,l,{
name = hr00;
})
);
}
);
};
layerId = "661A777E-9960-44AA-8623-3AD7C626B4F3";
shapes = (
{
ref = _J;
},
{
closed = 1;
nodes = (
(295,1430,l,{
name = hr00;
}),
(295,1280,l),
(983,1280,l),
(983,1430,l)
);
}
);
width = 1229;
},
{
anchors = (
{
name = bottom;
pos = (567,0);
},
{
name = top;
pos = (641,1430);
}
);
associatedMasterId = "661A777E-9960-44AA-8623-3AD7C626B4F3";
layerId = "EE92B363-8EA6-494C-8729-33BD4B632E0D";
name = "25. März 24, 19:34";
shapes = (
{
closed = 1;
nodes = (
(295,1280,l),
(811,1280,l),
(811,401,ls),
(811,215,o),
(721,127,o),
(565,127,cs),
(406,127,o),
(342,219,o),
(316,334,c),
(151,299,l),
(195,95,o),
(344,-25,o),
(561,-25,cs),
(809,-25,o),
(983,129,o),
(983,371,c),
(983,1430,l),
(295,1430,l,{
name = hr00;
})
);
}
);
width = 1229;
},
{
anchors = (
{
name = bottom;
pos = (563,0);
},
{
name = top;
pos = (657,1430);
}
);
associatedMasterId = "D7CFBB37-D300-46E8-A355-ECFF19545BAA";
background = {
shapes = (
{
closed = 1;
nodes = (
(264,1177,l),
(735,1177,l),
(735,430,ls),
(735,291,o),
(673,225,o),
(569,225,cs),
(447,225,o),
(391,311,o),
(369,432,c),
(78,373,l),
(123,135,o),
(276,-25,o),
(569,-25,cs),
(860,-25,o),
(1047,141,o),
(1047,399,cs),
(1047,1430,l),
(264,1430,l,{
name = hr00;
})
);
}
);
};
layerId = "4E28CA9E-EF2F-4BB5-B35B-270CF8C526B9";
name = "25. März 24, 19:35";
shapes = (
{
closed = 1;
nodes = (
(264,1177,l),
(735,1177,l),
(735,430,ls),
(735,291,o),
(673,225,o),
(569,225,cs),
(447,225,o),
(391,311,o),
(369,432,c),
(78,373,l),
(123,135,o),
(276,-25,o),
(569,-25,cs),
(860,-25,o),
(1047,141,o),
(1047,399,cs),
(1047,1430,l),
(264,1430,l,{
name = hr00;
})
);
}
);
width = 1229;
},
{
anchors = (
{
name = bottom;
pos = (572,0);
},
{
name = top;
pos = (627,1430);
}
);
associatedMasterId = master01;
layerId = "6A1A0677-43D9-4884-9A3C-1C0FA679D5C6";
name = "25. März 24, 19:37";
shapes = (
{
closed = 1;
nodes = (
(796,-25,o),
(944,123,o),
(944,387,cs),
(944,1430,l),
(321,1430,l,{
name = hr00;
}),
(321,1388,l),
(899,1388,l),
(899,391,ls),
(899,150,o),
(776,17,o),
(567,17,cs),
(383,17,o),
(274,108,o),
(239,254,c),
(196,244,l),
(233,76,o),
(371,-25,o),
(567,-25,cs)
);
}
);
width = 1229;
},
{
anchors = (
{
name = bottom;
pos = (563,0);
},
{
name = top;
pos = (657,1430);
}
);
associatedMasterId = "D7CFBB37-D300-46E8-A355-ECFF19545BAA";
layerId = "704DAC96-34CA-4072-BF83-C9366876002F";
name = "25. März 24, 21:17";
shapes = (
{
closed = 1;
nodes = (
(889,-25,o),
(1090,141,o),
(1090,399,cs),
(1090,1430,l),
(308,1430,l,{
name = hr00;
}),
(308,1177,l),
(779,1177,l),
(779,430,ls),
(779,291,o),
(703,225,o),
(584,225,cs),
(427,225,o),
(385,346,o),
(377,500,c),
(93,500,l),
(93,197,o),
(252,-25,o),
(584,-25,cs,{
name = hr00;
})
);
}
);
width = 1229;
},
{
anchors = (
{
name = bottom;
pos = (563,0);
},
{
name = top;
pos = (657,1430);
}
);
associatedMasterId = "D7CFBB37-D300-46E8-A355-ECFF19545BAA";
layerId = "E620A854-9E85-4E22-A137-28E52911D183";
name = "25. März 24, 21:18";
shapes = (
{
closed = 1;
nodes = (
(892,-25,o),
(1090,139,o),
(1090,399,cs),
(1090,1430,l),
(308,1430,l,{
name = hr00;
}),
(308,1177,l),
(779,1177,l),
(779,430,ls),
(779,291,o),
(708,225,o),
(571,225,cs),
(427,225,o),
(384,297,o),
(377,441,c),
(93,441,l),
(93,139,o),
(257,-25,o),
(575,-25,cs,{
name = hr00;
})
);
}
);
width = 1229;
},
{
anchors = (
{
name = bottom;
pos = (567,0);
},
{
name = top;
pos = (641,1430);
}
);
associatedMasterId = "661A777E-9960-44AA-8623-3AD7C626B4F3";
background = {
shapes = (
{
closed = 1;
nodes = (
(295,1280,l),
(811,1280,l),
(811,401,ls),
(811,215,o),
(721,127,o),
(565,127,cs),
(406,127,o),
(342,219,o),
(316,334,c),
(151,299,l),
(195,95,o),
(344,-25,o),
(561,-25,cs),
(809,-25,o),
(983,129,o),
(983,371,c),
(983,1430,l),
(295,1430,l,{
name = hr00;
})
);
}
);
};
layerId = "6D87A82F-DFE7-4681-B4EE-C9DD0D99FC6F";
name = "25. März 24, 23:10";
shapes = (
{
closed = 1;
nodes = (
(809,-25,o),
(983,129,o),
(983,371,cs),
(983,1430,l),
(295,1430,l,{
name = hr00;
}),
(295,1280,l),
(811,1280,l),
(811,401,ls),
(811,215,o),
(721,127,o),
(561,127,cs),
(403,127,o),
(313,215,o),
(305,401,c),
(140,401,l),
(140,129,o),
(314,-25,o),
(561,-25,cs)
);
}
);
width = 1229;
},
{
anchors = (
{
name = bottom;
pos = (563,0);
},
{
name = top;
pos = (657,1430);
}
);
associatedMasterId = "D7CFBB37-D300-46E8-A355-ECFF19545BAA";
background = {
shapes = (
{
closed = 1;
nodes = (
(264,1177,l),
(735,1177,l),
(735,430,ls),
(735,291,o),
(673,225,o),
(569,225,cs),
(447,225,o),
(391,311,o),
(369,432,c),
(78,373,l),
(123,135,o),
(276,-25,o),
(569,-25,cs),
(860,-25,o),
(1047,141,o),
(1047,399,cs),
(1047,1430,l),
(264,1430,l,{
name = hr00;
})
);
}
);
};
layerId = "20462222-49F6-4C2E-AF23-0242557D581A";
name = "25. März 24, 23:10";
shapes = (
{
closed = 1;
nodes = (
(860,-25,o),
(1047,141,o),
(1047,399,cs),
(1047,1430,l),
(264,1430,l,{
name = hr00;
}),
(264,1177,l),
(735,1177,l),
(735,430,ls),
(735,291,o),
(673,225,o),
(569,225,cs),
(465,225,o),
(404,291,o),
(389,430,c),
(92,430,l),
(92,141,o),
(279,-25,o),
(569,-25,cs)
);
}
);
width = 1229;
},
{
anchors = (
{
name = bottom;
pos = (572,0);
},
{
name = top;
pos = (627,1430);
}
);
associatedMasterId = master01;
background = {
shapes = (
{
closed = 1;
nodes = (
(796,-25,o),
(944,123,o),
(944,387,cs),
(944,1430,l),
(321,1430,l,{
name = hr00;
}),
(321,1388,l),
(899,1388,l),
(899,391,ls),
(899,150,o),
(776,17,o),
(567,17,cs),
(383,17,o),
(274,108,o),
(239,254,c),
(196,244,l),
(233,76,o),
(371,-25,o),
(567,-25,cs)
);
}
);
};
layerId = "4A36076B-3765-4E58-ACDD-ADFEFF872DBA";
name = "25. März 24, 23:10";
shapes = (
{
closed = 1;
nodes = (
(796,-25,o),
(944,123,o),
(944,387,cs),
(944,1430,l),
(321,1430,l,{
name = hr00;
}),
(321,1388,l),
(899,1388,l),
(899,391,ls),
(899,150,o),
(776,17,o),
(567,17,cs),
(359,17,o),
(236,150,o),
(233,388,c),
(191,388,l),
(191,123,o),
(338,-25,o),
(567,-25,cs)
);
}
);
width = 1229;
},
{
anchors = (
{
name = bottom;
pos = (567,0);
},
{
name = top;
pos = (641,1430);
}
);
associatedMasterId = "661A777E-9960-44AA-8623-3AD7C626B4F3";
background = {
shapes = (
{
closed = 1;
nodes = (
(295,1280,l),
(811,1280,l),
(811,401,ls),
(811,215,o),
(721,127,o),
(565,127,cs),
(406,127,o),
(342,219,o),
(316,334,c),
(151,299,l),
(195,95,o),
(344,-25,o),
(561,-25,cs),
(809,-25,o),
(983,129,o),
(983,371,c),
(983,1430,l),
(295,1430,l,{
name = hr00;
})
);
}
);
};
layerId = "6FF32887-786E-42AD-81C3-657077F54D80";
name = "8. Apr. 24, 09:27";
shapes = (
{
closed = 1;
nodes = (
(815,-25,o),
(983,129,o),
(983,371,cs),
(983,1430,l),
(295,1430,l,{
name = hr00;
}),
(295,1280,l),
(811,1280,l),
(811,401,ls),
(811,209,o),
(721,127,o),
(550,127,cs),
(396,127,o),
(311,187,o),
(305,365,c),
(140,365,l),
(140,92,o),
(312,-25,o),
(551,-25,cs)
);
}
);
width = 1229;
}
);
unicode = 74;
}
{
glyphname = K;
layers = (
{
anchors = (
{
name = bottom;
pos = (662,0);
},
{
name = top;
pos = (641,1430);
}
);
layerId = master01;
shapes = (
{
closed = 1;
nodes = (
(1122,0,l),
(573,825,l),
(1116,1430,l),
(1063,1430,l),
(551,863,l),
(271,551,l),
(266,551,l),
(266,1430,l),
(221,1430,l),
(221,0,l),
(266,0,l),
(266,489,l),
(540,793,l),
(1069,0,l,{
name = hr00;
})
);
}
);
width = 1229;
},
{
anchors = (
{
name = bottom;
pos = (665,0);
},
{
name = top;
pos = (649,1430);
}
);
layerId = "D7CFBB37-D300-46E8-A355-ECFF19545BAA";
shapes = (
{
closed = 1;
nodes = (
(1235,0,l),
(786,825,l),
(1215,1430,l),
(871,1430,l),
(618,1069,l),
(463,831,l),
(447,831,l),
(447,1430,l),
(139,1430,l),
(139,0,l),
(447,0,l),
(447,417,l),
(573,596,l),
(889,0,l,{
name = hr00;
})
);
}
);
width = 1229;
},
{
anchors = (
{
name = bottom;
pos = (660,0);
},
{
name = top;
pos = (641,1430);
}
);
layerId = "661A777E-9960-44AA-8623-3AD7C626B4F3";
shapes = (
{
closed = 1;
nodes = (
(1184,0,l),
(668,828,l),
(1169,1430,l),
(963,1430,l),
(540,921,l),
(352,684,l),
(346,684,l),
(346,1430,l),
(174,1430,l),
(174,0,l),
(346,0,l),
(346,459,l),
(551,700,l),
(983,0,l,{
name = hr00;
})
);
}
);
width = 1229;
}
);
unicode = 75;
}
{
glyphname = L;
layers = (
{
anchors = (
{
name = bottom;
pos = (690,0);
},
{
name = top;
pos = (319,1430);
},
{
name = topright;
pos = (559,1516);
}
);
layerId = master01;
shapes = (
{
closed = 1;
nodes = (
(1081,41,l),
(344,41,l),
(344,1430,l),
(299,1430,l),
(299,0,l),
(1081,0,l,{
name = hr00;
})
);
}
);
width = 1229;
},
{
anchors = (
{
name = bottom;
pos = (649,0);
},
{
name = top;
pos = (342,1430);
},
{
name = topright;
pos = (655,1516);
}
);
layerId = "D7CFBB37-D300-46E8-A355-ECFF19545BAA";
shapes = (
{
closed = 1;
nodes = (
(1112,252,l),
(497,252,l),
(497,1430,l),
(188,1430,l),
(188,0,l),
(1112,0,l,{
name = hr00;
})
);
}
);
width = 1229;
},
{
anchors = (
{
name = bottom;
pos = (670,0);
},
{
name = top;
pos = (332,1430);
},
{
name = topright;
pos = (594,1516);
}
);
layerId = "661A777E-9960-44AA-8623-3AD7C626B4F3";
shapes = (
{
closed = 1;
nodes = (
(1096,150,l),
(417,150,l),
(417,1430,l),
(246,1430,l),
(246,0,l),
(1096,0,l,{
name = hr00;
})
);
}
);
width = 1229;
}
);
unicode = 76;
}
{
glyphname = M;
layers = (
{
anchors = (
{
name = bottom;
pos = (922,0);
},
{
name = top;
pos = (922,1430);
}
);
layerId = master01;
shapes = (
{
closed = 1;
nodes = (
(307,0,l),
(307,956,l),
(307,1366,l),
(313,1366,l),
(897,0,l),
(946,0,l),
(1531,1366,l),
(1537,1366,l),
(1537,987,l),
(1537,0,l,{
name = hr00;
}),
(1580,0,l),
(1580,1430,l),
(1511,1430,l),
(925,59,l),
(919,59,l),
(333,1430,l),
(264,1430,l),
(264,0,l)
);
}
);
width = 1844;
},
{
anchors = (
{
name = bottom;
pos = (922,0);
},
{
name = top;
pos = (922,1430);
}
);
background = {
shapes = (
{
closed = 1;
nodes = (
(1652,0,l),
(1652,1430,l),
(1197,1430,l),
(930,548,l),
(913,548,l),
(647,1430,l),
(191,1430,l),
(191,0,l),
(494,0,l),
(494,752,l),
(494,985,l),
(513,985,l),
(818,0,l),
(1025,0,l),
(1332,985,l),
(1350,985,l),
(1350,752,l),
(1350,0,l,{
name = hr00;
})
);
}
);
};
layerId = "D7CFBB37-D300-46E8-A355-ECFF19545BAA";
shapes = (
{
closed = 1;
nodes = (
(494,0,l),
(494,752,l),
(472,1057,l),
(491,1057,l),
(818,0,l),
(1025,0,l),
(1354,1057,l),
(1372,1057,l),
(1350,752,l),
(1350,0,l,{
name = hr00;
}),
(1652,0,l),
(1652,1430,l),
(1197,1430,l),
(930,548,l),
(913,548,l),
(647,1430,l),
(191,1430,l),
(191,0,l)
);
}
);
width = 1844;
},
{
anchors = (
{
name = bottom;
pos = (920,0);
},
{
name = top;
pos = (920,1430);
}
);
layerId = "661A777E-9960-44AA-8623-3AD7C626B4F3";
shapes = (
{
closed = 1;
nodes = (
(420,0,l),
(420,717,l),
(420,1169,l),
(437,1169,l),
(859,0,l),
(981,0,l),
(1403,1169,l),
(1419,1169,l),
(1419,717,l),
(1419,0,l,{
name = hr00;
}),
(1577,0,l),
(1577,1430,l),
(1340,1430,l),
(927,284,l),
(913,284,l),
(499,1430,l),
(263,1430,l),
(263,0,l)
);
}
);
width = 1844;
}
);
unicode = 77;
}
{
glyphname = N;
layers = (
{
anchors = (
{
name = bottom;
pos = (615,0);
},
{
name = top;
pos = (615,1430);
}
);
layerId = master01;
shapes = (
{
closed = 1;
nodes = (
(1028,0,l),
(1028,1430,l),
(985,1430,l),
(985,61,l),
(979,61,l),
(266,1430,l),
(201,1430,l),
(201,0,l),
(244,0,l),
(244,1368,l),
(250,1368,l),
(963,0,l,{
name = hr00;
})
);
}
);
width = 1229;
},
{
anchors = (
{
name = bottom;
pos = (615,0);
},
{
name = top;
pos = (615,1430);
}
);
layerId = "D7CFBB37-D300-46E8-A355-ECFF19545BAA";
shapes = (
{
closed = 1;
nodes = (
(1104,0,l),
(1104,1430,l),
(841,1430,l),
(841,479,l),
(819,479,l),
(494,1430,l),
(125,1430,l),
(125,0,l),
(387,0,l),
(387,951,l),
(409,951,l),
(735,0,l,{
name = hr00;
})
);
}
);
width = 1229;
},
{
anchors = (
{
name = bottom;
pos = (615,0);
},
{
name = top;
pos = (615,1430);
}
);
layerId = "661A777E-9960-44AA-8623-3AD7C626B4F3";
shapes = (
{
closed = 1;
nodes = (
(1065,0,l),
(1065,1430,l),
(909,1430,l),
(909,225,l),
(895,225,l),
(407,1430,l),
(164,1430,l),
(164,0,l),
(319,0,l),
(319,1204,l),
(334,1204,l),
(821,0,l,{
name = hr00;
})
);
}
);
width = 1229;
}
);
unicode = 78;
}
{
glyphname = O;
layers = (
{
anchors = (
{
name = bottom;
pos = (615,0);
},
{
name = top;
pos = (615,1430);
}
);
layerId = master01;
shapes = (
{
closed = 1;
nodes = (
(913,-25,o),
(1084,154,o),
(1084,715,cs),
(1084,1276,o),
(913,1454,o),
(615,1454,cs),
(316,1454,o),
(145,1276,o),
(145,715,cs),
(145,154,o),
(316,-25,o),
(615,-25,cs,{
name = hr00;
})
);
},
{
closed = 1;
nodes = (
(342,17,o),
(195,193,o),
(195,649,cs),
(195,780,ls),
(195,1236,o),
(342,1413,o),
(615,1413,cs),
(887,1413,o),
(1034,1236,o),
(1034,780,cs),
(1034,649,ls),
(1034,193,o),
(887,17,o),
(615,17,cs)
);
}
);
width = 1229;
},
{
anchors = (
{
name = bottom;
pos = (615,0);
},
{
name = top;
pos = (615,1430);
}
);
layerId = "D7CFBB37-D300-46E8-A355-ECFF19545BAA";
shapes = (
{
closed = 1;
nodes = (
(997,-25,o),
(1174,197,o),
(1174,715,cs),
(1174,1225,o),
(997,1454,o),
(615,1454,cs),
(231,1454,o),
(55,1225,o),
(55,715,cs),
(55,197,o),
(231,-25,o),
(615,-25,cs,{
name = hr00;
})
);
},
{
closed = 1;
nodes = (
(440,223,o),
(383,310,o),
(383,590,cs),
(383,840,ls),
(383,1113,o),
(440,1207,o),
(615,1207,cs),
(788,1207,o),
(846,1113,o),
(846,840,cs),
(846,592,l),
(846,310,o),
(788,223,o),
(615,223,cs)
);
}
);
width = 1229;
},
{
anchors = (
{
name = bottom;
pos = (615,0);
},
{
name = top;
pos = (615,1430);
}
);
associatedMasterId = "661A777E-9960-44AA-8623-3AD7C626B4F3";
layerId = "5321290A-F145-4ABA-9008-B83D68EA75E4";
name = "7. Apr. 24, 23:25";
shapes = (
{
closed = 1;
nodes = (
(963,-25,o),
(1114,248,o),
(1114,715,cs),
(1114,1182,o),
(963,1454,o),
(615,1454,cs),
(266,1454,o),
(115,1182,o),
(115,715,cs),
(115,248,o),
(266,-25,o),
(615,-25,cs,{
name = hr00;
})
);
},
{
closed = 1;
nodes = (
(387,125,o),
(297,311,o),
(297,598,cs),
(297,831,ls),
(297,1119,o),
(387,1305,o),
(615,1305,cs),
(841,1305,o),
(932,1119,o),
(932,831,cs),
(932,598,l),
(932,311,o),
(841,125,o),
(615,125,cs)
);
}
);
width = 1229;
},
{
anchors = (
{
name = bottom;
pos = (615,0);
},
{
name = top;
pos = (615,1430);
}
);
associatedMasterId = master01;
layerId = "CD3D47BF-AE1D-466D-8A74-22A077C05A70";
name = "7. Apr. 24, 23:32";
shapes = (
{
closed = 1;
nodes = (
(913,-25,o),
(1084,191,o),
(1084,715,cs),
(1084,1239,o),
(913,1454,o),
(615,1454,cs),
(316,1454,o),
(145,1239,o),
(145,715,cs),
(145,191,o),
(316,-25,o),
(615,-25,cs,{
name = hr00;
})
);
},
{
closed = 1;
nodes = (
(342,17,o),
(195,229,o),
(195,649,cs),
(195,780,ls),
(195,1200,o),
(342,1413,o),
(615,1413,cs),
(887,1413,o),
(1034,1200,o),
(1034,780,cs),
(1034,649,ls),
(1034,229,o),
(887,17,o),
(615,17,cs)
);
}
);
width = 1229;
},
{
anchors = (
{
name = bottom;
pos = (615,0);
},
{
name = top;
pos = (615,1430);
}
);
associatedMasterId = "661A777E-9960-44AA-8623-3AD7C626B4F3";
layerId = "D8C14243-023D-4BA6-A315-789611743869";
name = "7. Apr. 24, 23:46";
shapes = (
{
closed = 1;
nodes = (
(963,-25,o),
(1114,204,o),
(1114,715,cs),
(1114,1218,o),
(963,1454,o),
(615,1454,cs),
(266,1454,o),
(115,1218,o),
(115,715,cs),
(115,204,o),
(266,-25,o),
(615,-25,cs,{
name = hr00;
})
);
},
{
closed = 1;
nodes = (
(387,125,o),
(297,268,o),
(297,598,cs),
(297,831,ls),
(297,1155,o),
(387,1305,o),
(615,1305,cs),
(841,1305,o),
(932,1155,o),
(932,831,cs),
(932,598,l),
(932,268,o),
(841,125,o),
(615,125,cs)
);
}
);
width = 1229;
},
{
anchors = (
{
name = bottom;
pos = (615,0);
},
{
name = top;
pos = (615,1430);
}
);
layerId = "661A777E-9960-44AA-8623-3AD7C626B4F3";
name = Regular;
shapes = (
{
closed = 1;
nodes = (
(977,-25,o),
(1114,190,o),
(1114,715,cs),
(1114,1233,o),
(977,1454,o),
(615,1454,cs),
(252,1454,o),
(115,1233,o),
(115,715,cs),
(115,190,o),
(252,-25,o),
(615,-25,cs,{
name = hr00;
})
);
},
{
closed = 1;
nodes = (
(372,125,o),
(297,253,o),
(297,598,cs),
(297,831,ls),
(297,1169,o),
(372,1305,o),
(615,1305,cs),
(856,1305,o),
(932,1169,o),
(932,831,cs),
(932,598,l),
(932,253,o),
(856,125,o),
(615,125,cs)
);
}
);
width = 1229;
}
);
unicode = 79;
}
{
glyphname = P;
layers = (
{
anchors = (
{
name = bottom;
pos = (324,0);
},
{
name = top;
pos = (845,1966);
}
);
layerId = master01;
shapes = (
{
closed = 1;
nodes = (
(366,1966,l),
(304,1966,l),
(304,0,l),
(366,0,l,{
name = hr00;
})
);
},
{
ref = _part.P;
}
);
width = 1690;
},
{
anchors = (
{
name = bottom;
pos = (425,0);
},
{
name = top;
pos = (845,1966);
}
);
layerId = "D7CFBB37-D300-46E8-A355-ECFF19545BAA";
shapes = (
{
closed = 1;
nodes = (
(639,1966,l),
(214,1966,l),
(214,0,l),
(639,0,l,{
name = hr00;
})
);
},
{
ref = _part.P;
}
);
width = 1690;
},
{
anchors = (
{
name = bottom;
pos = (372,0);
},
{
name = top;
pos = (845,1966);
}
);
layerId = "661A777E-9960-44AA-8623-3AD7C626B4F3";
shapes = (
{
closed = 1;
nodes = (
(490,1966,l),
(253,1966,l),
(253,0,l),
(490,0,l,{
name = hr00;
})
);
},
{
ref = _part.P;
}
);
width = 1690;
},
{
anchors = (
{
name = bottom;
pos = (372,0);
},
{
name = top;
pos = (845,1966);
}
);
associatedMasterId = "661A777E-9960-44AA-8623-3AD7C626B4F3";
layerId = "CB17CD33-B8CB-49DE-98EB-CB7414F79C22";
name = "8. Apr. 24, 09:34";
shapes = (
{
closed = 1;
nodes = (
(490,834,l),
(969,834,ls),
(1332,834,o),
(1529,1045,o),
(1529,1400,cs),
(1529,1754,o),
(1332,1966,o),
(969,1966,cs),
(253,1966,l),
(253,0,l),
(490,0,l,{
name = hr00;
})
);
},
{
closed = 1;
nodes = (
(963,1760,ls),
(1160,1760,o),
(1278,1656,o),
(1278,1473,cs),
(1278,1326,ls),
(1278,1143,o),
(1160,1039,o),
(963,1039,cs),
(490,1039,l),
(490,1760,l)
);
}
);
width = 1690;
}
);
unicode = 80;
}
{
glyphname = Q;
layers = (
{
anchors = (
{
name = top;
pos = (615,1430);
}
);
layerId = master01;
shapes = (
{
closed = 1;
nodes = (
(592,-13,l),
(592,-219,ls),
(592,-260,o),
(612,-279,o),
(653,-279,c),
(973,-279,l),
(973,-238,l,{
name = hr00;
}),
(637,-238,l),
(637,-13,l)
);
},
{
ref = O;
}
);
width = 1229;
},
{
anchors = (
{
name = top;
pos = (615,1430);
}
);
layerId = "D7CFBB37-D300-46E8-A355-ECFF19545BAA";
shapes = (
{
closed = 1;
nodes = (
(481,-1,l),
(481,-96,ls),
(481,-274,o),
(565,-391,o),
(786,-391,cs),
(1077,-391,l),
(1077,-172,l,{
name = hr00;
}),
(748,-172,l),
(748,-1,l)
);
},
{
ref = O;
}
);
width = 1229;
},
{
anchors = (
{
name = top;
pos = (615,1430);
}
);
layerId = "661A777E-9960-44AA-8623-3AD7C626B4F3";
shapes = (
{
closed = 1;
nodes = (
(532,-7,l),
(532,-95,ls),
(532,-236,o),
(607,-336,o),
(766,-336,cs),
(1006,-336,l),
(1006,-196,l,{
name = hr00;
}),
(696,-196,l),
(696,-7,l)
);
},
{
ref = O;
}
);
width = 1229;
}
);
unicode = 81;
}
{
glyphname = R;
layers = (
{
anchors = (
{
name = bottom;
pos = (618,0);
},
{
name = top;
pos = (612,1430);
}
);
layerId = master01;
shapes = (
{
closed = 1;
nodes = (
(266,0,l),
(266,660,l,{
name = hr00;
}),
(750,660,ls),
(983,660,o),
(1077,796,o),
(1077,1044,cs),
(1077,1292,o),
(983,1430,o),
(750,1430,cs),
(221,1430,l),
(221,0,l)
);
},
{
closed = 1;
nodes = (
(1067,0,l),
(745,669,l),
(695,669,l),
(1014,0,l)
);
},
{
closed = 1;
nodes = (
(266,1388,l),
(750,1388,ls),
(961,1388,o),
(1028,1257,o),
(1028,1087,cs),
(1028,1001,ls),
(1028,831,o),
(961,700,o),
(750,700,cs),
(266,700,l)
);
}
);
width = 1229;
},
{
anchors = (
{
name = bottom;
pos = (645,0);
},
{
name = top;
pos = (623,1430);
}
);
background = {
shapes = (
{
ref = P;
}
);
};
layerId = "D7CFBB37-D300-46E8-A355-ECFF19545BAA";
shapes = (
{
closed = 1;
nodes = (
(459,0,l),
(459,530,l,{
name = hr00;
}),
(721,530,ls),
(1002,530,o),
(1147,645,o),
(1147,975,cs),
(1147,1295,o),
(989,1430,o),
(708,1430,cs),
(156,1430,l),
(156,0,l)
);
},
{
closed = 1;
nodes = (
(1175,0,l),
(890,582,l),
(595,541,l),
(840,0,l)
);
},
{
closed = 1;
nodes = (
(459,1182,l),
(664,1182,ls),
(785,1182,o),
(828,1130,o),
(828,1006,cs),
(828,944,ls),
(828,819,o),
(785,768,o),
(664,768,cs),
(459,768,l)
);
}
);
width = 1229;
},
{
anchors = (
{
name = bottom;
pos = (631,0);
},
{
name = top;
pos = (631,1430);
}
);
background = {
shapes = (
{
closed = 1;
nodes = (
(356,607,l),
(727,607,ls),
(991,607,o),
(1112,760,o),
(1112,1018,cs),
(1112,1276,o),
(991,1430,o),
(727,1430,cs),
(184,1430,l),
(184,0,l),
(356,0,l,{
name = hr00;
})
);
},
{
closed = 1;
nodes = (
(722,1280,ls),
(865,1280,o),
(929,1204,o),
(929,1071,cs),
(929,964,ls),
(929,831,o),
(865,756,o),
(722,756,cs),
(356,756,l),
(356,1280,l)
);
}
);
};
layerId = "661A777E-9960-44AA-8623-3AD7C626B4F3";
shapes = (
{
closed = 1;
nodes = (
(356,0,l),
(356,610,l,{
name = hr00;
}),
(768,610,ls),
(982,610,o),
(1112,775,o),
(1112,1018,cs),
(1112,1276,o),
(991,1430,o),
(727,1430,cs),
(184,1430,l),
(184,0,l)
);
},
{
closed = 1;
nodes = (
(1124,0,l),
(754,628,l),
(578,620,l),
(932,0,l)
);
},
{
closed = 1;
nodes = (
(356,1280,l),
(722,1280,ls),
(865,1280,o),
(929,1204,o),
(929,1071,cs),
(929,964,ls),
(929,831,o),
(865,756,o),
(722,756,cs),
(356,756,l)
);
}
);
width = 1229;
},
{
anchors = (
{
name = bottom;
pos = (631,0);
},
{
name = top;
pos = (631,1430);
}
);
associatedMasterId = "661A777E-9960-44AA-8623-3AD7C626B4F3";
layerId = "1744D242-ABDD-4D7B-BBBE-ECC913AB7747";
name = "8. Apr. 24, 09:28";
shapes = (
{
closed = 1;
nodes = (
(584,610,l),
(932,0,l),
(1124,0,l),
(760,618,l),
(885,631,o),
(979,682,o),
(1039,762,cs),
(1087,828,o),
(1112,916,o),
(1112,1018,cs),
(1112,1276,o),
(969,1430,o),
(705,1430,cs),
(184,1430,l),
(184,0,l),
(356,0,l),
(356,610,l,{
name = hr00;
})
);
},
{
closed = 1;
nodes = (
(356,1280,l),
(700,1280,ls),
(844,1280,o),
(929,1204,o),
(929,1071,cs),
(929,964,ls),
(929,831,o),
(844,756,o),
(700,756,cs),
(356,756,l)
);
}
);
width = 1229;
}
);
unicode = 82;
}
{
glyphname = S;
layers = (
{
anchors = (
{
name = bottom;
pos = (850,0);
},
{
name = top;
pos = (822,1966);
}
);
background = {
shapes = (
{
closed = 1;
nodes = (
(1239,-34,o),
(1484,146,o),
(1484,498,cs),
(1484,729,o),
(1385,952,o),
(972,1019,cs),
(746,1056,ls),
(501,1095,o),
(293,1200,o),
(293,1507,cs),
(293,1799,o),
(498,1943,o),
(836,1943,cs),
(1118,1943,o),
(1290,1856,o),
(1405,1687,c),
(1453,1726,l),
(1343,1887,o),
(1163,1999,o),
(842,1999,cs),
(473,1999,o),
(231,1839,o),
(231,1507,cs),
(231,1276,o),
(338,1062,o),
(735,997,cs),
(960,960,ls),
(1202,921,o),
(1422,822,o),
(1422,496,cs),
(1422,186,o),
(1214,23,o),
(856,23,cs),
(535,23,o),
(375,144,o),
(237,324,c),
(186,287,l),
(327,101,o),
(510,-34,o),
(856,-34,cs,{
name = hr00;
})
);
}
);
};
layerId = master01;
shapes = (
{
closed = 1;
nodes = (
(1259,-34,o),
(1494,146,o),
(1494,500,cs),
(1494,729,o),
(1395,959,o),
(982,1019,cs),
(726,1056,ls),
(482,1091,o),
(273,1200,o),
(273,1505,cs),
(273,1799,o),
(468,1943,o),
(840,1943,cs),
(1166,1943,o),
(1371,1833,o),
(1371,1547,c),
(1433,1547,l),
(1433,1873,o),
(1192,1999,o),
(840,1999,cs),
(443,1999,o),
(211,1839,o),
(211,1505,cs),
(211,1276,o),
(320,1054,o),
(715,997,cs),
(970,960,ls),
(1212,925,o),
(1432,822,o),
(1432,496,cs),
(1432,182,o),
(1228,23,o),
(826,23,cs),
(458,23,o),
(240,142,o),
(240,446,c),
(178,446,l),
(178,96,o),
(441,-34,o),
(828,-34,cs,{
name = hr00;
})
);
}
);
width = 1690;
},
{
anchors = (
{
name = bottom;
pos = (822,0);
},
{
name = top;
pos = (859,1966);
}
);
background = {
shapes = (
{
closed = 1;
nodes = (
(1307,-34,o),
(1566,237,o),
(1566,605,cs),
(1566,915,o),
(1383,1101,o),
(1067,1157,cs),
(862,1194,ls),
(670,1228,o),
(591,1287,o),
(591,1422,cs),
(591,1577,o),
(687,1656,o),
(876,1656,cs),
(1053,1656,o),
(1200,1585,o),
(1304,1470,c),
(1543,1737,l),
(1405,1898,o),
(1174,1999,o),
(873,1999,cs),
(428,1999,o),
(166,1780,o),
(166,1402,cs),
(166,1115,o),
(315,898,o),
(667,839,cs),
(873,805,ls),
(1064,774,o),
(1138,710,o),
(1138,572,cs),
(1138,403,o),
(1028,310,o),
(828,310,cs),
(653,310,o),
(476,383,o),
(332,541,c),
(87,270,l),
(237,84,o),
(487,-34,o),
(814,-34,cs,{
name = hr00;
})
);
}
);
};
layerId = "D7CFBB37-D300-46E8-A355-ECFF19545BAA";
shapes = (
{
closed = 1;
nodes = (
(1341,-34,o),
(1587,237,o),
(1587,602,cs),
(1587,905,o),
(1417,1092,o),
(1108,1149,cs),
(803,1205,ls),
(617,1239,o),
(542,1286,o),
(542,1427,cs),
(542,1587,o),
(639,1656,o),
(828,1656,cs),
(996,1656,o),
(1098,1602,o),
(1122,1432,c),
(1517,1432,l),
(1517,1832,o),
(1245,1999,o),
(834,1999,cs),
(368,1999,o),
(117,1785,o),
(117,1410,cs),
(117,1114,o),
(274,906,o),
(618,848,cs),
(914,798,ls),
(1098,767,o),
(1159,701,o),
(1159,563,cs),
(1159,367,o),
(1035,310,o),
(849,310,cs),
(643,310,o),
(524,367,o),
(500,562,c),
(102,562,l),
(102,154,o),
(375,-34,o),
(814,-34,cs,{
name = hr00;
})
);
}
);
width = 1690;
},
{
anchors = (
{
name = bottom;
pos = (836,0);
},
{
name = top;
pos = (839,1966);
}
);
associatedMasterId = "661A777E-9960-44AA-8623-3AD7C626B4F3";
layerId = "05F86AA5-83DD-45A4-82BD-99B32B429F18";
name = "25. März 24, 16:32";
shapes = (
{
closed = 1;
nodes = (
(1276,-34,o),
(1526,186,o),
(1526,549,cs),
(1526,805,o),
(1400,1019,o),
(1014,1087,cs),
(803,1124,ls),
(524,1171,o),
(434,1284,o),
(434,1459,cs),
(434,1681,o),
(583,1797,o),
(848,1797,cs),
(1093,1797,o),
(1233,1698,o),
(1343,1554,c),
(1509,1698,l),
(1377,1887,o),
(1163,1999,o),
(850,1999,cs),
(451,1999,o),
(194,1814,o),
(194,1453,cs),
(194,1205,o),
(315,983,o),
(701,918,cs),
(921,881,ls),
(1188,836,o),
(1287,735,o),
(1287,543,cs),
(1287,307,o),
(1132,169,o),
(848,169,cs),
(611,169,o),
(451,262,o),
(298,453,c),
(127,313,l),
(273,110,o),
(487,-34,o),
(839,-34,cs,{
name = hr00;
})
);
}
);
width = 1690;
},
{
anchors = (
{
name = bottom;
pos = (822,0);
},
{
name = top;
pos = (859,1966);
}
);
associatedMasterId = "D7CFBB37-D300-46E8-A355-ECFF19545BAA";
layerId = "534E3475-6CB4-442D-AE6D-04DAF00EB1D1";
name = "25. März 24, 16:35";
shapes = (
{
closed = 1;
nodes = (
(1307,-34,o),
(1566,237,o),
(1566,605,cs),
(1566,915,o),
(1383,1101,o),
(1067,1157,cs),
(862,1194,ls),
(670,1228,o),
(591,1287,o),
(591,1422,cs),
(591,1577,o),
(687,1656,o),
(876,1656,cs),
(1053,1656,o),
(1200,1585,o),
(1304,1470,c),
(1543,1737,l),
(1405,1898,o),
(1174,1999,o),
(873,1999,cs),
(428,1999,o),
(166,1780,o),
(166,1402,cs),
(166,1115,o),
(315,898,o),
(667,839,cs),
(873,805,ls),
(1064,774,o),
(1138,710,o),
(1138,572,cs),
(1138,403,o),
(1028,310,o),
(828,310,cs),
(653,310,o),
(476,383,o),
(332,541,c),
(87,270,l),
(237,84,o),
(487,-34,o),
(814,-34,cs,{
name = hr00;
})
);
}
);
width = 1690;
},
{
anchors = (
{
name = bottom;
pos = (850,0);
},
{
name = top;
pos = (822,1966);
}
);
associatedMasterId = master01;
layerId = "097E4828-921B-4589-9F57-954A5F7BE7D4";
name = "25. März 24, 16:38";
shapes = (
{
closed = 1;
nodes = (
(1239,-34,o),
(1484,146,o),
(1484,498,cs),
(1484,729,o),
(1385,952,o),
(972,1019,cs),
(746,1056,ls),
(501,1095,o),
(293,1200,o),
(293,1507,cs),
(293,1799,o),
(498,1943,o),
(836,1943,cs),
(1118,1943,o),
(1290,1856,o),
(1405,1687,c),
(1453,1726,l),
(1343,1887,o),
(1163,1999,o),
(842,1999,cs),
(473,1999,o),
(231,1839,o),
(231,1507,cs),
(231,1276,o),
(338,1062,o),
(735,997,cs),
(960,960,ls),
(1202,921,o),
(1422,822,o),
(1422,496,cs),
(1422,186,o),
(1214,23,o),
(856,23,cs),
(535,23,o),
(375,144,o),
(237,324,c),
(186,287,l),
(327,101,o),
(510,-34,o),
(856,-34,cs,{
name = hr00;
})
);
}
);
width = 1690;
},
{
anchors = (
{
name = bottom;
pos = (836,0);
},
{
name = top;
pos = (839,1966);
}
);
associatedMasterId = "661A777E-9960-44AA-8623-3AD7C626B4F3";
background = {
shapes = (
{
closed = 1;
nodes = (
(1276,-34,o),
(1526,186,o),
(1526,549,cs),
(1526,805,o),
(1400,1019,o),
(1014,1087,cs),
(803,1124,ls),
(524,1171,o),
(434,1284,o),
(434,1459,cs),
(434,1681,o),
(583,1797,o),
(848,1797,cs),
(1093,1797,o),
(1233,1698,o),
(1343,1554,c),
(1509,1698,l),
(1377,1887,o),
(1163,1999,o),
(850,1999,cs),
(451,1999,o),
(194,1814,o),
(194,1453,cs),
(194,1205,o),
(315,983,o),
(701,918,cs),
(921,881,ls),
(1188,836,o),
(1287,735,o),
(1287,543,cs),
(1287,307,o),
(1132,169,o),
(848,169,cs),
(611,169,o),
(451,262,o),
(298,453,c),
(127,313,l),
(273,110,o),
(487,-34,o),
(839,-34,cs,{
name = hr00;
})
);
}
);
};
layerId = "267E92DB-F43C-4486-9B5F-9B74266325FC";
name = "25. März 24, 23:11";
shapes = (
{
closed = 1;
nodes = (
(1285,-34,o),
(1536,186,o),
(1536,550,cs),
(1536,805,o),
(1412,1022,o),
(1024,1087,cs),
(803,1124,ls),
(524,1171,o),
(434,1284,o),
(434,1459,cs),
(434,1681,o),
(583,1797,o),
(830,1797,cs),
(1077,1797,o),
(1216,1681,o),
(1236,1459,c),
(1466,1459,l),
(1466,1814,o),
(1209,1999,o),
(830,1999,cs),
(451,1999,o),
(194,1814,o),
(194,1453,cs),
(194,1205,o),
(315,980,o),
(701,918,cs),
(931,881,ls),
(1198,838,o),
(1297,734,o),
(1297,545,cs),
(1297,307,o),
(1141,169,o),
(842,169,cs),
(546,169,o),
(402,304,o),
(381,549,c),
(152,549,l),
(152,186,o),
(401,-34,o),
(843,-34,cs,{
name = hr00;
})
);
}
);
width = 1690;
},
{
anchors = (
{
name = bottom;
pos = (850,0);
},
{
name = top;
pos = (822,1966);
}
);
associatedMasterId = master01;
background = {
shapes = (
{
closed = 1;
nodes = (
(1239,-34,o),
(1484,146,o),
(1484,498,cs),
(1484,729,o),
(1385,952,o),
(972,1019,cs),
(746,1056,ls),
(501,1095,o),
(293,1200,o),
(293,1507,cs),
(293,1799,o),
(498,1943,o),
(836,1943,cs),
(1118,1943,o),
(1290,1856,o),
(1405,1687,c),
(1453,1726,l),
(1343,1887,o),
(1163,1999,o),
(842,1999,cs),
(473,1999,o),
(231,1839,o),
(231,1507,cs),
(231,1276,o),
(338,1062,o),
(735,997,cs),
(960,960,ls),
(1202,921,o),
(1422,822,o),
(1422,496,cs),
(1422,186,o),
(1214,23,o),
(856,23,cs),
(535,23,o),
(375,144,o),
(237,324,c),
(186,287,l),
(327,101,o),
(510,-34,o),
(856,-34,cs,{
name = hr00;
})
);
}
);
};
layerId = "25B7444F-5DD7-4B56-A5E8-0C9CF4D46D9E";
name = "25. März 24, 23:11";
shapes = (
{
closed = 1;
nodes = (
(1249,-34,o),
(1494,146,o),
(1494,498,cs),
(1494,729,o),
(1395,959,o),
(982,1019,cs),
(726,1056,ls),
(481,1091,o),
(273,1200,o),
(273,1507,cs),
(273,1799,o),
(478,1943,o),
(822,1943,cs),
(1166,1943,o),
(1371,1799,o),
(1371,1507,c),
(1433,1507,l),
(1433,1839,o),
(1191,1999,o),
(822,1999,cs),
(453,1999,o),
(211,1839,o),
(211,1507,cs),
(211,1276,o),
(318,1055,o),
(715,997,cs),
(970,960,ls),
(1212,925,o),
(1432,822,o),
(1432,496,cs),
(1432,186,o),
(1224,23,o),
(846,23,cs),
(478,23,o),
(240,186,o),
(240,496,c),
(178,496,l),
(178,146,o),
(453,-34,o),
(846,-34,cs,{
name = hr00;
})
);
}
);
width = 1690;
},
{
anchors = (
{
name = bottom;
pos = (822,0);
},
{
name = top;
pos = (859,1966);
}
);
associatedMasterId = "D7CFBB37-D300-46E8-A355-ECFF19545BAA";
background = {
shapes = (
{
closed = 1;
nodes = (
(1307,-34,o),
(1566,237,o),
(1566,605,cs),
(1566,915,o),
(1383,1101,o),
(1067,1157,cs),
(862,1194,ls),
(670,1228,o),
(591,1287,o),
(591,1422,cs),
(591,1577,o),
(687,1656,o),
(876,1656,cs),
(1053,1656,o),
(1200,1585,o),
(1304,1470,c),
(1543,1737,l),
(1405,1898,o),
(1174,1999,o),
(873,1999,cs),
(428,1999,o),
(166,1780,o),
(166,1402,cs),
(166,1115,o),
(315,898,o),
(667,839,cs),
(873,805,ls),
(1064,774,o),
(1138,710,o),
(1138,572,cs),
(1138,403,o),
(1028,310,o),
(828,310,cs),
(653,310,o),
(476,383,o),
(332,541,c),
(87,270,l),
(237,84,o),
(487,-34,o),
(814,-34,cs,{
name = hr00;
})
);
}
);
};
layerId = "A9DAE8BA-78D7-4676-B922-D948AC697FE4";
name = "25. März 24, 23:11";
shapes = (
{
closed = 1;
nodes = (
(1333,-34,o),
(1587,237,o),
(1587,605,cs),
(1587,915,o),
(1407,1119,o),
(1098,1157,cs),
(793,1194,ls),
(608,1216,o),
(532,1287,o),
(532,1423,cs),
(532,1576,o),
(627,1656,o),
(807,1656,cs),
(986,1656,o),
(1082,1577,o),
(1102,1402,c),
(1507,1402,l),
(1507,1800,o),
(1242,1999,o),
(815,1999,cs),
(368,1999,o),
(107,1782,o),
(107,1401,cs),
(107,1115,o),
(254,877,o),
(598,839,cs),
(904,805,ls),
(1086,785,o),
(1159,710,o),
(1159,572,cs),
(1159,403,o),
(1049,310,o),
(844,310,cs),
(640,310,o),
(530,403,o),
(510,592,c),
(102,592,l),
(102,204,o),
(366,-34,o),
(833,-34,cs,{
name = hr00;
})
);
}
);
width = 1690;
},
{
anchors = (
{
name = bottom;
pos = (836,0);
},
{
name = top;
pos = (839,1966);
}
);
associatedMasterId = "661A777E-9960-44AA-8623-3AD7C626B4F3";
background = {
shapes = (
{
closed = 1;
nodes = (
(1276,-34,o),
(1526,186,o),
(1526,549,cs),
(1526,805,o),
(1400,1019,o),
(1014,1087,cs),
(803,1124,ls),
(524,1171,o),
(434,1284,o),
(434,1459,cs),
(434,1681,o),
(583,1797,o),
(848,1797,cs),
(1093,1797,o),
(1233,1698,o),
(1343,1554,c),
(1509,1698,l),
(1377,1887,o),
(1163,1999,o),
(850,1999,cs),
(451,1999,o),
(194,1814,o),
(194,1453,cs),
(194,1205,o),
(315,983,o),
(701,918,cs),
(921,881,ls),
(1188,836,o),
(1287,735,o),
(1287,543,cs),
(1287,307,o),
(1132,169,o),
(848,169,cs),
(611,169,o),
(451,262,o),
(298,453,c),
(127,313,l),
(273,110,o),
(487,-34,o),
(839,-34,cs,{
name = hr00;
})
);
}
);
};
layerId = "740CF81E-43BF-4DAC-96B7-0C75BB294825";
name = "25. März 24, 23:24";
shapes = (
{
closed = 1;
nodes = (
(1295,-34,o),
(1536,148,o),
(1536,535,cs),
(1536,812,o),
(1412,1022,o),
(1044,1084,cs),
(753,1133,ls),
(515,1173,o),
(434,1285,o),
(434,1473,cs),
(434,1711,o),
(576,1797,o),
(834,1797,cs),
(1078,1797,o),
(1217,1729,o),
(1236,1509,c),
(1466,1509,l),
(1466,1864,o),
(1208,1999,o),
(833,1999,cs),
(442,1999,o),
(194,1842,o),
(194,1467,cs),
(194,1204,o),
(309,982,o),
(651,927,cs),
(951,879,ls),
(1222,836,o),
(1297,737,o),
(1297,538,cs),
(1297,252,o),
(1141,169,o),
(844,169,cs),
(532,169,o),
(400,261,o),
(381,489,c),
(152,489,l),
(152,135,o),
(393,-34,o),
(836,-34,cs,{
name = hr00;
})
);
}
);
width = 1690;
},
{
anchors = (
{
name = bottom;
pos = (836,0);
},
{
name = top;
pos = (839,1966);
}
);
associatedMasterId = "661A777E-9960-44AA-8623-3AD7C626B4F3";
background = {
shapes = (
{
closed = 1;
nodes = (
(1276,-34,o),
(1526,186,o),
(1526,549,cs),
(1526,805,o),
(1400,1019,o),
(1014,1087,cs),
(803,1124,ls),
(524,1171,o),
(434,1284,o),
(434,1459,cs),
(434,1681,o),
(583,1797,o),
(848,1797,cs),
(1093,1797,o),
(1233,1698,o),
(1343,1554,c),
(1509,1698,l),
(1377,1887,o),
(1163,1999,o),
(850,1999,cs),
(451,1999,o),
(194,1814,o),
(194,1453,cs),
(194,1205,o),
(315,983,o),
(701,918,cs),
(921,881,ls),
(1188,836,o),
(1287,735,o),
(1287,543,cs),
(1287,307,o),
(1132,169,o),
(848,169,cs),
(611,169,o),
(451,262,o),
(298,453,c),
(127,313,l),
(273,110,o),
(487,-34,o),
(839,-34,cs,{
name = hr00;
})
);
}
);
};
layerId = "ED31D21A-F2C7-4E0E-BE75-C1C5794A8C67";
name = "9. Apr. 24, 01:01";
shapes = (
{
closed = 1;
nodes = (
(1295,-34,o),
(1536,186,o),
(1536,547,cs),
(1536,806,o),
(1412,1022,o),
(1024,1087,cs),
(803,1124,ls),
(523,1171,o),
(434,1284,o),
(434,1460,cs),
(434,1683,o),
(576,1797,o),
(852,1797,cs),
(1078,1797,o),
(1220,1720,o),
(1236,1509,c),
(1466,1509,l),
(1466,1864,o),
(1200,1999,o),
(851,1999,cs),
(442,1999,o),
(194,1814,o),
(194,1455,cs),
(194,1204,o),
(315,980,o),
(701,918,cs),
(931,881,ls),
(1198,838,o),
(1297,737,o),
(1297,541,cs),
(1297,294,o),
(1141,169,o),
(822,169,cs),
(547,169,o),
(396,262,o),
(381,489,c),
(152,489,l),
(152,135,o),
(401,-34,o),
(819,-34,cs,{
name = hr00;
})
);
}
);
width = 1690;
},
{
anchors = (
{
name = bottom;
pos = (836,0);
},
{
name = top;
pos = (839,1966);
}
);
background = {
shapes = (
{
closed = 1;
nodes = (
(1276,-34,o),
(1526,186,o),
(1526,549,cs),
(1526,805,o),
(1400,1019,o),
(1014,1087,cs),
(803,1124,ls),
(524,1171,o),
(434,1284,o),
(434,1459,cs),
(434,1681,o),
(583,1797,o),
(848,1797,cs),
(1093,1797,o),
(1233,1698,o),
(1343,1554,c),
(1509,1698,l),
(1377,1887,o),
(1163,1999,o),
(850,1999,cs),
(451,1999,o),
(194,1814,o),
(194,1453,cs),
(194,1205,o),
(315,983,o),
(701,918,cs),
(921,881,ls),
(1188,836,o),
(1287,735,o),
(1287,543,cs),
(1287,307,o),
(1132,169,o),
(848,169,cs),
(611,169,o),
(451,262,o),
(298,453,c),
(127,313,l),
(273,110,o),
(487,-34,o),
(839,-34,cs,{
name = hr00;
})
);
}
);
};
layerId = "661A777E-9960-44AA-8623-3AD7C626B4F3";
name = Regular;
shapes = (
{
closed = 1;
nodes = (
(1303,-34,o),
(1536,178,o),
(1536,542,cs),
(1536,808,o),
(1412,1022,o),
(1024,1087,cs),
(803,1124,ls),
(523,1171,o),
(434,1284,o),
(434,1460,cs),
(434,1683,o),
(578,1797,o),
(847,1797,cs),
(1078,1797,o),
(1219,1713,o),
(1236,1489,c),
(1466,1489,l),
(1466,1854,o),
(1202,1999,o),
(846,1999,cs),
(444,1999,o),
(194,1814,o),
(194,1454,cs),
(194,1204,o),
(315,980,o),
(701,918,cs),
(931,881,ls),
(1198,838,o),
(1297,739,o),
(1297,536,cs),
(1297,288,o),
(1149,169,o),
(836,169,cs),
(547,169,o),
(393,270,o),
(381,499,c),
(152,499,l),
(152,135,o),
(410,-34,o),
(831,-34,cs,{
name = hr00;
})
);
}
);
width = 1690;
}
);
unicode = 83;
}
{
glyphname = T;
layers = (
{
anchors = (
{
name = bottom;
pos = (845,0);
},
{
name = top;
pos = (845,1966);
}
);
layerId = master01;
shapes = (
{
closed = 1;
nodes = (
(1574,1966,l),
(115,1966,l),
(115,1909,l),
(814,1909,l),
(814,0,l),
(876,0,l),
(876,1909,l),
(1574,1909,l,{
name = hr00;
})
);
}
);
width = 1690;
},
{
anchors = (
{
name = bottom;
pos = (845,0);
},
{
name = top;
pos = (845,1966);
}
);
layerId = "D7CFBB37-D300-46E8-A355-ECFF19545BAA";
shapes = (
{
closed = 1;
nodes = (
(1622,1966,l),
(68,1966,l),
(68,1619,l),
(634,1619,l),
(634,0,l),
(1056,0,l),
(1056,1619,l),
(1622,1619,l,{
name = hr00;
})
);
}
);
width = 1690;
},
{
anchors = (
{
name = bottom;
pos = (845,0);
},
{
name = top;
pos = (845,1966);
}
);
layerId = "661A777E-9960-44AA-8623-3AD7C626B4F3";
shapes = (
{
closed = 1;
nodes = (
(1619,1966,l),
(70,1966,l),
(70,1760,l),
(727,1760,l),
(727,0,l),
(963,0,l),
(963,1760,l),
(1619,1760,l,{
name = hr00;
})
);
}
);
width = 1690;
}
);
unicode = 84;
}
{
glyphname = U;
layers = (
{
anchors = (
{
name = bottom;
pos = (615,0);
},
{
name = bottomright;
pos = (807,0);
},
{
name = top;
pos = (615,1430);
}
);
layerId = master01;
shapes = (
{
closed = 1;
nodes = (
(201,414,ls),
(201,111,o),
(301,-25,o),
(615,-25,cs),
(928,-25,o),
(1028,111,o),
(1028,414,cs),
(1028,1430,l),
(983,1430,l),
(983,414,ls),
(983,137,o),
(901,17,o),
(615,17,cs),
(328,17,o),
(246,137,o),
(246,414,cs),
(246,1430,l),
(201,1430,l,{
name = hr00;
})
);
}
);
width = 1229;
},
{
anchors = (
{
name = bottom;
pos = (615,0);
},
{
name = bottomright;
pos = (828,0);
},
{
name = top;
pos = (615,1430);
}
);
layerId = "D7CFBB37-D300-46E8-A355-ECFF19545BAA";
shapes = (
{
closed = 1;
nodes = (
(112,463,ls),
(112,181,o),
(199,-25,o),
(615,-25,cs),
(1030,-25,o),
(1116,181,o),
(1116,463,cs),
(1116,1430,l),
(809,1430,l),
(809,473,ls),
(809,320,o),
(795,223,o),
(615,223,cs),
(434,223,o),
(420,320,o),
(420,473,cs),
(420,1430,l),
(112,1430,l,{
name = hr00;
})
);
}
);
width = 1229;
},
{
anchors = (
{
name = bottom;
pos = (615,0);
},
{
name = bottomright;
pos = (807,0);
},
{
name = top;
pos = (615,1430);
}
);
background = {
shapes = (
{
closed = 1;
nodes = (
(164,467,ls),
(164,174,o),
(225,-25,o),
(615,-25,cs),
(1004,-25,o),
(1065,174,o),
(1065,467,cs),
(1065,1430,l),
(893,1430,l),
(893,426,ls),
(893,281,o),
(883,125,o),
(615,125,cs),
(346,125,o),
(336,281,o),
(336,426,cs),
(336,1430,l),
(164,1430,l,{
name = hr00;
})
);
}
);
};
layerId = "661A777E-9960-44AA-8623-3AD7C626B4F3";
shapes = (
{
closed = 1;
nodes = (
(164,467,ls),
(164,174,o),
(225,-25,o),
(615,-25,cs),
(1004,-25,o),
(1065,174,o),
(1065,467,cs),
(1065,1430,l),
(893,1430,l),
(893,426,ls),
(893,281,o),
(883,125,o),
(615,125,cs),
(346,125,o),
(336,281,o),
(336,426,cs),
(336,1430,l),
(164,1430,l,{
name = hr00;
})
);
}
);
width = 1229;
},
{
anchors = (
{
name = bottom;
pos = (615,0);
},
{
name = bottomright;
pos = (807,0);
},
{
name = top;
pos = (615,1430);
}
);
associatedMasterId = "661A777E-9960-44AA-8623-3AD7C626B4F3";
layerId = "9601BF7C-5FA9-4EBF-A363-FF0135D01C2A";
name = "8. Apr. 24, 09:26";
shapes = (
{
closed = 1;
nodes = (
(164,612,ls),
(164,188,o),
(225,-25,o),
(615,-25,cs),
(1004,-25,o),
(1065,188,o),
(1065,612,cs),
(1065,1430,l),
(893,1430,l),
(893,572,ls),
(893,295,o),
(883,125,o),
(615,125,cs),
(346,125,o),
(336,295,o),
(336,572,cs),
(336,1430,l),
(164,1430,l,{
name = hr00;
})
);
}
);
width = 1229;
},
{
anchors = (
{
name = bottom;
pos = (615,0);
},
{
name = bottomright;
pos = (799,0);
},
{
name = top;
pos = (615,1430);
}
);
associatedMasterId = master01;
layerId = "CD8DA725-04FC-49C0-9700-908BD5DCEBC2";
name = "10. Apr. 24, 16:35";
shapes = (
{
closed = 1;
nodes = (
(201,559,ls),
(201,111,o),
(301,-25,o),
(615,-25,cs),
(928,-25,o),
(1028,111,o),
(1028,559,cs),
(1028,1430,l),
(983,1430,l),
(983,559,ls),
(983,137,o),
(901,17,o),
(615,17,cs),
(328,17,o),
(246,137,o),
(246,559,cs),
(246,1430,l),
(201,1430,l,{
name = hr00;
})
);
}
);
width = 1229;
},
{
anchors = (
{
name = bottom;
pos = (615,0);
},
{
name = bottomright;
pos = (807,0);
},
{
name = top;
pos = (615,1430);
}
);
associatedMasterId = "661A777E-9960-44AA-8623-3AD7C626B4F3";
layerId = "FDC92EE8-56ED-469F-9F70-7FE2131FC16C";
name = "10. Apr. 24, 16:36";
shapes = (
{
closed = 1;
nodes = (
(164,591,ls),
(164,174,o),
(225,-25,o),
(615,-25,cs),
(1004,-25,o),
(1065,174,o),
(1065,591,cs),
(1065,1430,l),
(893,1430,l),
(893,550,ls),
(893,281,o),
(883,125,o),
(615,125,cs),
(346,125,o),
(336,281,o),
(336,550,cs),
(336,1430,l),
(164,1430,l,{
name = hr00;
})
);
}
);
width = 1229;
},
{
anchors = (
{
name = bottom;
pos = (615,0);
},
{
name = bottomright;
pos = (828,0);
},
{
name = top;
pos = (615,1430);
}
);
associatedMasterId = "D7CFBB37-D300-46E8-A355-ECFF19545BAA";
layerId = "D6E88ADC-AFBF-4643-BBC2-B47FAC24C9B8";
name = "10. Apr. 24, 16:36";
shapes = (
{
closed = 1;
nodes = (
(112,492,ls),
(112,181,o),
(199,-25,o),
(615,-25,cs),
(1030,-25,o),
(1116,181,o),
(1116,492,cs),
(1116,1430,l),
(809,1430,l),
(809,503,ls),
(809,320,o),
(795,223,o),
(615,223,cs),
(434,223,o),
(420,320,o),
(420,503,cs),
(420,1430,l),
(112,1430,l,{
name = hr00;
})
);
}
);
width = 1229;
},
{
anchors = (
{
name = bottom;
pos = (615,0);
},
{
name = bottomright;
pos = (807,0);
},
{
name = top;
pos = (615,1430);
}
);
associatedMasterId = "661A777E-9960-44AA-8623-3AD7C626B4F3";
background = {
shapes = (
{
closed = 1;
nodes = (
(164,467,ls),
(164,174,o),
(225,-25,o),
(615,-25,cs),
(1004,-25,o),
(1065,174,o),
(1065,467,cs),
(1065,1430,l),
(893,1430,l),
(893,426,ls),
(893,281,o),
(883,125,o),
(615,125,cs),
(346,125,o),
(336,281,o),
(336,426,cs),
(336,1430,l),
(164,1430,l,{
name = hr00;
})
);
}
);
};
layerId = "CA5A08E4-3A02-4BEA-A661-6B1DE4B3F462";
name = "26. Apr. 24, 10:19";
shapes = (
{
closed = 1;
nodes = (
(164,467,ls),
(164,174,o),
(225,-25,o),
(615,-25,cs),
(1004,-25,o),
(1065,174,o),
(1065,467,cs),
(1065,1430,l),
(893,1430,l),
(893,426,ls),
(893,201,o),
(810,125,o),
(615,125,cs),
(419,125,o),
(336,201,o),
(336,426,cs),
(336,1430,l),
(164,1430,l,{
name = hr00;
})
);
}
);
width = 1229;
}
);
unicode = 85;
}
{
glyphname = V;
layers = (
{
anchors = (
{
name = bottom;
pos = (615,0);
},
{
name = top;
pos = (615,1430);
}
);
layerId = master01;
shapes = (
{
closed = 1;
nodes = (
(1116,1430,l),
(1071,1430,l),
(863,791,l),
(618,51,l),
(612,51,l),
(377,772,l),
(161,1430,l),
(113,1430,l),
(584,0,l),
(645,0,l,{
name = hr00;
})
);
}
);
width = 1229;
},
{
anchors = (
{
name = bottom;
pos = (615,0);
},
{
name = top;
pos = (615,1430);
}
);
layerId = "D7CFBB37-D300-46E8-A355-ECFF19545BAA";
shapes = (
{
closed = 1;
nodes = (
(1210,1430,l),
(885,1430,l),
(715,703,l),
(629,291,l),
(612,291,l),
(529,703,l),
(361,1430,l),
(18,1430,l),
(397,0,l),
(831,0,l,{
name = hr00;
})
);
}
);
width = 1229;
},
{
anchors = (
{
name = bottom;
pos = (615,0);
},
{
name = top;
pos = (615,1430);
}
);
layerId = "661A777E-9960-44AA-8623-3AD7C626B4F3";
shapes = (
{
closed = 1;
nodes = (
(1155,1430,l),
(979,1430,l),
(776,715,l),
(623,174,l),
(612,174,l),
(459,715,l),
(256,1430,l),
(73,1430,l),
(497,0,l),
(731,0,l,{
name = hr00;
})
);
}
);
width = 1229;
}
);
unicode = 86;
}
{
glyphname = W;
layers = (
{
anchors = (
{
name = bottom;
pos = (922,0);
},
{
name = top;
pos = (922,1430);
}
);
layerId = master01;
shapes = (
{
closed = 1;
nodes = (
(517,0,l),
(921,1010,l),
(924,1010,l),
(1327,0,l),
(1398,0,l),
(1720,1430,l),
(1676,1430,l),
(1364,44,l),
(1357,44,l),
(952,1057,l),
(893,1057,l),
(488,44,l),
(481,44,l),
(168,1430,l),
(124,1430,l),
(446,0,l)
);
}
);
width = 1844;
},
{
anchors = (
{
name = bottom;
pos = (922,0);
},
{
name = top;
pos = (922,1430);
}
);
layerId = "D7CFBB37-D300-46E8-A355-ECFF19545BAA";
shapes = (
{
closed = 1;
nodes = (
(728,0,l),
(913,781,l),
(930,781,l),
(1115,0,l),
(1548,0,l),
(1798,1430,l),
(1495,1430,l,{
name = hr00;
}),
(1314,313,l),
(1296,313,l),
(1089,1130,l),
(755,1130,l),
(549,313,l),
(530,313,l),
(348,1430,l),
(46,1430,l),
(295,0,l)
);
}
);
width = 1844;
},
{
anchors = (
{
name = bottom;
pos = (921,0);
},
{
name = top;
pos = (921,1430);
}
);
layerId = "661A777E-9960-44AA-8623-3AD7C626B4F3";
shapes = (
{
closed = 1;
nodes = (
(622,0,l),
(912,851,l),
(924,851,l),
(1214,0,l),
(1460,0,l),
(1727,1430,l),
(1555,1430,l),
(1321,188,l),
(1309,188,l),
(1011,1057,l),
(825,1057,l),
(527,188,l),
(514,188,l),
(281,1430,l),
(109,1430,l),
(375,0,l)
);
}
);
width = 1844;
}
);
unicode = 87;
}
{
glyphname = X;
layers = (
{
anchors = (
{
name = bottom;
pos = (615,0);
},
{
name = top;
pos = (615,1430);
}
);
layerId = master01;
shapes = (
{
closed = 1;
nodes = (
(1110,1430,l),
(1057,1430,l),
(838,1100,l),
(618,768,l),
(612,768,l),
(406,1081,l),
(174,1430,l),
(119,1430,l),
(588,725,l),
(100,0,l),
(153,0,l),
(426,409,l),
(612,688,l),
(618,688,l),
(783,440,l),
(1073,0,l),
(1129,0,l),
(643,731,l,{
name = hr00;
})
);
}
);
width = 1229;
},
{
anchors = (
{
name = bottom;
pos = (615,0);
},
{
name = top;
pos = (615,1430);
}
);
layerId = "D7CFBB37-D300-46E8-A355-ECFF19545BAA";
shapes = (
{
closed = 1;
nodes = (
(1184,1430,l),
(863,1430,l),
(740,1202,l),
(633,973,l),
(617,973,l),
(512,1202,l),
(395,1430,l),
(45,1430,l),
(420,740,l),
(18,0,l),
(340,0,l),
(492,284,l),
(594,510,l),
(612,510,l),
(713,284,l),
(860,0,l),
(1210,0,l),
(809,735,l,{
name = hr00;
})
);
}
);
width = 1229;
},
{
anchors = (
{
name = bottom;
pos = (615,0);
},
{
name = top;
pos = (615,1430);
}
);
layerId = "661A777E-9960-44AA-8623-3AD7C626B4F3";
shapes = (
{
closed = 1;
nodes = (
(1163,1430,l),
(975,1430,l),
(803,1153,l),
(627,864,l),
(618,864,l),
(440,1153,l),
(274,1430,l),
(80,1430,l),
(520,729,l),
(53,0,l),
(241,0,l),
(422,284,l),
(617,596,l),
(625,596,l),
(813,284,l),
(983,0,l),
(1177,0,l),
(721,731,l,{
name = hr00;
})
);
}
);
width = 1229;
}
);
unicode = 88;
}
{
glyphname = Y;
layers = (
{
anchors = (
{
name = bottom;
pos = (845,0);
},
{
name = top;
pos = (845,1966);
}
);
layerId = master01;
shapes = (
{
closed = 1;
nodes = (
(876,828,l),
(1611,1966,l),
(1543,1966,l),
(1307,1599,l),
(850,895,l),
(842,895,l),
(397,1585,l),
(149,1966,l),
(79,1966,l),
(814,828,l),
(814,0,l),
(876,0,l,{
name = hr00;
})
);
}
);
width = 1690;
},
{
anchors = (
{
name = bottom;
pos = (845,0);
},
{
name = top;
pos = (845,1966);
}
);
layerId = "D7CFBB37-D300-46E8-A355-ECFF19545BAA";
shapes = (
{
closed = 1;
nodes = (
(1056,696,l),
(1678,1966,l),
(1225,1966,l),
(1017,1509,l),
(865,1124,l),
(842,1124,l),
(690,1509,l),
(482,1966,l),
(11,1966,l),
(634,696,l),
(634,0,l),
(1056,0,l,{
name = hr00;
})
);
}
);
width = 1690;
},
{
anchors = (
{
name = bottom;
pos = (845,0);
},
{
name = top;
pos = (845,1966);
}
);
layerId = "661A777E-9960-44AA-8623-3AD7C626B4F3";
shapes = (
{
closed = 1;
nodes = (
(963,772,l),
(1642,1966,l),
(1377,1966,l),
(1095,1453,l),
(850,1005,l),
(839,1005,l),
(600,1453,l),
(318,1966,l),
(48,1966,l),
(727,772,l),
(727,0,l),
(963,0,l,{
name = hr00;
})
);
}
);
width = 1690;
}
);
unicode = 89;
}
{
glyphname = Z;
layers = (
{
anchors = (
{
name = bottom;
pos = (617,0);
},
{
name = top;
pos = (615,1430);
}
);
layerId = master01;
shapes = (
{
closed = 1;
nodes = (
(148,41,l),
(1084,1385,l),
(1084,1430,l),
(145,1430,l),
(145,1388,l),
(1034,1388,l),
(98,45,l),
(98,0,l),
(1130,0,l),
(1130,41,l,{
name = hr00;
})
);
}
);
width = 1229;
},
{
anchors = (
{
name = bottom;
pos = (612,0);
},
{
name = top;
pos = (615,1430);
}
);
layerId = "D7CFBB37-D300-46E8-A355-ECFF19545BAA";
shapes = (
{
closed = 1;
nodes = (
(442,252,l),
(1108,1161,l),
(1108,1430,l),
(119,1430,l),
(119,1177,l),
(764,1177,l),
(98,268,l),
(98,0,l),
(1129,0,l),
(1129,252,l,{
name = hr00;
})
);
}
);
width = 1229;
},
{
anchors = (
{
name = bottom;
pos = (615,0);
},
{
name = top;
pos = (615,1430);
}
);
layerId = "661A777E-9960-44AA-8623-3AD7C626B4F3";
shapes = (
{
closed = 1;
nodes = (
(284,150,l),
(1096,1276,l),
(1096,1430,l),
(133,1430,l),
(133,1280,l),
(907,1280,l),
(98,153,l),
(98,0,l),
(1130,0,l),
(1130,150,l,{
name = hr00;
})
);
}
);
width = 1229;
}
);
unicode = 90;
}
{
glyphname = bracketleft;
layers = (
{
layerId = master01;
shapes = (
{
closed = 1;
nodes = (
(1416,-338,l),
(803,-338,l),
(803,2089,l),
(1416,2089,l),
(1416,2140,l),
(746,2140,l),
(746,-389,l),
(1416,-389,l,{
name = hr00;
})
);
}
);
width = 1690;
},
{
layerId = "D7CFBB37-D300-46E8-A355-ECFF19545BAA";
shapes = (
{
closed = 1;
nodes = (
(1428,-110,l),
(850,-110,l),
(850,1861,l),
(1428,1861,l),
(1428,2140,l),
(515,2140,l),
(515,-389,l),
(1428,-389,l,{
name = hr00;
})
);
}
);
width = 1690;
},
{
layerId = "661A777E-9960-44AA-8623-3AD7C626B4F3";
shapes = (
{
closed = 1;
nodes = (
(1422,-214,l),
(828,-214,l),
(828,1966,l),
(1422,1966,l),
(1422,2140,l),
(634,2140,l),
(634,-389,l),
(1422,-389,l,{
name = hr00;
})
);
}
);
width = 1690;
}
);
unicode = 91;
}
{
glyphname = backslash;
layers = (
{
layerId = master01;
shapes = (
{
closed = 1;
nodes = (
(254,1556,l),
(215,1556,l),
(975,-283,l),
(1014,-283,l,{
name = hr00;
})
);
}
);
width = 1229;
},
{
layerId = "D7CFBB37-D300-46E8-A355-ECFF19545BAA";
shapes = (
{
closed = 1;
nodes = (
(422,1556,l),
(150,1556,l),
(807,-283,l),
(1079,-283,l,{
name = hr00;
})
);
}
);
width = 1229;
},
{
layerId = "661A777E-9960-44AA-8623-3AD7C626B4F3";
shapes = (
{
closed = 1;
nodes = (
(332,1556,l),
(184,1556,l),
(897,-283,l),
(1044,-283,l,{
name = hr00;
})
);
}
);
width = 1229;
}
);
unicode = 92;
}
{
glyphname = bracketright;
layers = (
{
layerId = master01;
shapes = (
{
closed = 1;
nodes = (
(199,1519,l),
(645,1519,l),
(645,-246,l),
(199,-246,l),
(199,-283,l),
(686,-283,l),
(686,1556,l),
(199,1556,l,{
name = hr00;
})
);
}
);
width = 1229;
},
{
layerId = "D7CFBB37-D300-46E8-A355-ECFF19545BAA";
shapes = (
{
closed = 1;
nodes = (
(191,1353,l),
(610,1353,l),
(610,-80,l),
(191,-80,l),
(191,-283,l),
(854,-283,l),
(854,1556,l),
(191,1556,l,{
name = hr00;
})
);
}
);
width = 1229;
},
{
layerId = "661A777E-9960-44AA-8623-3AD7C626B4F3";
shapes = (
{
closed = 1;
nodes = (
(195,1430,l),
(627,1430,l),
(627,-156,l),
(195,-156,l),
(195,-283,l),
(768,-283,l),
(768,1556,l),
(195,1556,l,{
name = hr00;
})
);
}
);
width = 1229;
}
);
unicode = 93;
}
{
glyphname = asciicircum;
layers = (
{
background = {
shapes = (
{
closed = 1;
nodes = (
(637,1430,l),
(592,1430,l),
(139,680,l),
(176,660,l),
(612,1385,l),
(617,1385,l),
(1052,660,l),
(1089,680,l,{
name = hr00;
})
);
}
);
};
layerId = master01;
shapes = (
{
closed = 1;
nodes = (
(637,1430,l),
(592,1430,l),
(139,680,l),
(188,680,l),
(612,1385,l),
(617,1385,l),
(1040,680,l),
(1089,680,l,{
name = hr00;
})
);
}
);
width = 1229;
},
{
background = {
shapes = (
{
closed = 1;
nodes = (
(776,1430,l),
(455,1430,l),
(55,600,l),
(283,489,l),
(596,1151,l),
(620,1151,l),
(934,489,l),
(1174,600,l,{
name = hr00;
})
);
}
);
};
layerId = "D7CFBB37-D300-46E8-A355-ECFF19545BAA";
shapes = (
{
closed = 1;
nodes = (
(776,1430,l),
(455,1430,l),
(55,600,l),
(335,600,l),
(596,1151,l),
(620,1151,l),
(881,600,l),
(1174,600,l,{
name = hr00;
})
);
}
);
width = 1229;
},
{
background = {
shapes = (
{
closed = 1;
nodes = (
(707,1430,l),
(522,1430,l),
(92,651,l),
(219,588,l),
(607,1288,l),
(615,1288,l),
(1001,588,l),
(1137,651,l,{
name = hr00;
})
);
}
);
};
layerId = "661A777E-9960-44AA-8623-3AD7C626B4F3";
shapes = (
{
closed = 1;
nodes = (
(707,1430,l),
(522,1430,l),
(92,651,l),
(254,651,l),
(607,1288,l),
(615,1288,l),
(967,651,l),
(1137,651,l,{
name = hr00;
})
);
}
);
width = 1229;
}
);
unicode = 94;
}
{
glyphname = underscore;
layers = (
{
layerId = master01;
shapes = (
{
closed = 1;
nodes = (
(1106,-250,l),
(123,-250,l),
(123,-289,l),
(1106,-289,l,{
name = hr00;
})
);
}
);
width = 1229;
},
{
layerId = "D7CFBB37-D300-46E8-A355-ECFF19545BAA";
shapes = (
{
closed = 1;
nodes = (
(1106,-145,l),
(123,-145,l),
(123,-393,l),
(1106,-393,l,{
name = hr00;
})
);
}
);
width = 1229;
},
{
layerId = "661A777E-9960-44AA-8623-3AD7C626B4F3";
shapes = (
{
closed = 1;
nodes = (
(1106,-195,l),
(123,-195,l),
(123,-346,l),
(1106,-346,l,{
name = hr00;
})
);
}
);
width = 1229;
}
);
unicode = 95;
}
{
glyphname = grave;
layers = (
{
anchors = (
{
name = _top;
pos = (893,1453);
}
);
layerId = master01;
shapes = (
{
closed = 1;
nodes = (
(955,1681,l),
(622,2143,l),
(543,2143,l),
(893,1681,l,{
name = hr00;
})
);
}
);
width = 1690;
},
{
anchors = (
{
name = _top;
pos = (928,1453);
}
);
layerId = "D7CFBB37-D300-46E8-A355-ECFF19545BAA";
shapes = (
{
closed = 1;
nodes = (
(1048,1726,l),
(769,2273,l),
(298,2273,l),
(800,1726,l,{
name = hr00;
})
);
}
);
width = 1690;
},
{
anchors = (
{
name = _top;
pos = (845,1453);
}
);
layerId = "661A777E-9960-44AA-8623-3AD7C626B4F3";
shapes = (
{
closed = 1;
nodes = (
(1006,1647,l),
(732,2194,l),
(460,2196,l),
(825,1647,l,{
name = hr00;
})
);
}
);
width = 1690;
}
);
unicode = 96;
}
{
glyphname = a;
layers = (
{
anchors = (
{
name = bottom;
pos = (563,0);
},
{
name = bottomright;
pos = (1102,0);
},
{
name = top;
pos = (582,1057);
}
);
layerId = master01;
shapes = (
{
closed = 1;
nodes = (
(723,-25,o),
(825,56,o),
(879,158,c),
(885,158,l),
(885,60,ls),
(885,18,o),
(903,0,o),
(944,0,cs,{
name = hr02;
}),
(1102,0,l),
(1102,39,l),
(928,39,l),
(928,786,ls),
(928,993,o),
(800,1081,o),
(572,1081,cs),
(349,1081,o),
(216,996,o),
(216,772,c),
(259,772,l),
(259,984,o),
(380,1042,o),
(573,1042,cs),
(768,1042,o),
(885,981,o),
(885,780,cs),
(885,563,l),
(519,563,ls),
(244,563,o),
(175,446,o),
(175,284,cs),
(175,71,o),
(294,-25,o),
(518,-25,cs,{
name = hr01;
})
);
},
{
closed = 1;
nodes = (
(348,15,o),
(221,85,o),
(221,233,cs),
(221,299,ls),
(221,441,o),
(292,527,o),
(521,527,cs),
(885,527,l),
(885,303,ls),
(885,111,o),
(719,15,o),
(519,15,cs,{
name = hr03;
})
);
}
);
width = 1229;
},
{
anchors = (
{
name = bottom;
pos = (598,0);
},
{
name = bottomright;
pos = (1172,0);
},
{
name = top;
pos = (612,1057);
}
);
background = {
shapes = (
{
closed = 1;
nodes = (
(1172,219,l),
(1055,219,l),
(1055,682,ls),
(1055,948,o),
(883,1081,o),
(594,1081,cs),
(359,1081,o),
(205,993,o),
(135,874,c),
(301,727,l),
(359,805,o),
(432,860,o),
(559,860,cs),
(698,860,o),
(751,795,o),
(751,670,cs),
(751,617,l),
(582,617,ls),
(273,617,o),
(106,512,o),
(106,291,cs),
(106,92,o),
(241,-25,o),
(447,-25,cs,{
name = hr01;
}),
(608,-25,o),
(731,49,o),
(768,186,c),
(778,186,l),
(778,183,ls),
(778,65,o),
(874,0,o),
(997,0,cs,{
name = hr02;
}),
(1172,0,l)
);
},
{
closed = 1;
nodes = (
(465,174,o),
(404,213,o),
(404,287,cs),
(404,328,ls),
(404,409,o),
(469,452,o),
(590,452,cs),
(751,452,l),
(751,326,ls),
(751,228,o),
(668,174,o),
(561,174,cs,{
name = hr03;
})
);
}
);
};
layerId = "D7CFBB37-D300-46E8-A355-ECFF19545BAA";
shapes = (
{
closed = 1;
nodes = (
(608,-25,o),
(727,44,o),
(768,186,c),
(778,186,l),
(778,183,ls),
(778,65,o),
(874,0,o),
(997,0,cs,{
name = hr02;
}),
(1172,0,l),
(1172,219,l),
(1055,219,l),
(1055,711,ls),
(1055,963,o),
(889,1081,o),
(596,1081,cs),
(337,1081,o),
(135,988,o),
(135,713,c),
(407,713,l),
(420,815,o),
(456,860,o),
(585,860,cs),
(713,860,o),
(751,815,o),
(751,699,cs),
(751,617,l),
(545,617,ls),
(232,617,o),
(106,512,o),
(106,295,cs),
(106,92,o),
(215,-25,o),
(438,-25,cs,{
name = hr01;
})
);
},
{
closed = 1;
nodes = (
(460,174,o),
(404,213,o),
(404,294,cs),
(404,335,ls),
(404,409,o),
(455,452,o),
(568,452,cs),
(751,452,l),
(751,326,ls),
(751,228,o),
(670,174,o),
(556,174,cs,{
name = hr03;
})
);
}
);
width = 1229;
},
{
anchors = (
{
name = bottom;
pos = (580,0);
},
{
name = bottomright;
pos = (1127,0);
},
{
name = top;
pos = (580,1057);
}
);
associatedMasterId = "661A777E-9960-44AA-8623-3AD7C626B4F3";
background = {
shapes = (
{
closed = 1;
nodes = (
(1127,143,l),
(979,143,l),
(979,725,ls),
(979,948,o),
(821,1081,o),
(573,1081,cs),
(359,1081,o),
(223,979,o),
(170,868,c),
(281,786,l),
(336,883,o),
(422,942,o),
(563,942,cs),
(723,942,o),
(815,863,o),
(815,708,cs),
(815,604,l),
(590,604,ls),
(273,604,o),
(135,492,o),
(135,297,cs),
(135,98,o),
(276,-25,o),
(497,-25,cs,{
name = hr01;
}),
(670,-25,o),
(770,51,o),
(815,172,c),
(825,172,l),
(825,168,ls),
(825,70,o),
(889,0,o),
(1014,0,cs,{
name = hr02;
}),
(1127,0,l)
);
},
{
closed = 1;
nodes = (
(391,113,o),
(307,170,o),
(307,279,cs),
(307,321,ls),
(307,424,o),
(395,481,o),
(590,481,cs),
(815,481,l),
(815,307,ls),
(815,199,o),
(695,113,o),
(527,113,cs,{
name = hr03;
})
);
}
);
};
layerId = "13B70863-4E0E-4734-B32F-869A9F946B66";
name = "19. März 24, 13:06";
shapes = (
{
closed = 1;
nodes = (
(1127,143,l),
(979,143,l),
(979,725,ls),
(979,948,o),
(820,1081,o),
(587,1081,cs),
(358,1081,o),
(209,972,o),
(170,764,c),
(336,764,l),
(365,861,o),
(421,942,o),
(577,942,cs),
(722,942,o),
(815,863,o),
(815,708,cs),
(815,604,l),
(590,604,ls),
(273,604,o),
(135,492,o),
(135,297,cs),
(135,98,o),
(276,-25,o),
(497,-25,cs,{
name = hr01;
}),
(670,-25,o),
(770,51,o),
(815,172,c),
(825,172,l),
(825,168,ls),
(825,70,o),
(889,0,o),
(1014,0,cs,{
name = hr02;
}),
(1127,0,l)
);
},
{
closed = 1;
nodes = (
(391,113,o),
(307,170,o),
(307,279,cs),
(307,321,ls),
(307,424,o),
(395,481,o),
(590,481,cs),
(815,481,l),
(815,307,ls),
(815,199,o),
(695,113,o),
(527,113,cs,{
name = hr03;
})
);
}
);
width = 1229;
},
{
anchors = (
{
name = bottom;
pos = (580,0);
},
{
name = bottomright;
pos = (1127,0);
},
{
name = top;
pos = (580,1057);
}
);
associatedMasterId = "661A777E-9960-44AA-8623-3AD7C626B4F3";
layerId = "748A70CC-DAF5-4745-A989-8622421427EE";
name = "25. März 24, 19:39";
shapes = (
{
closed = 1;
nodes = (
(1127,143,l),
(979,143,l),
(979,725,ls),
(979,948,o),
(821,1081,o),
(573,1081,cs),
(359,1081,o),
(223,979,o),
(170,868,c),
(281,786,l),
(336,883,o),
(422,942,o),
(563,942,cs),
(723,942,o),
(815,863,o),
(815,708,cs),
(815,604,l),
(590,604,ls),
(273,604,o),
(135,492,o),
(135,297,cs),
(135,98,o),
(276,-25,o),
(497,-25,cs,{
name = hr01;
}),
(670,-25,o),
(770,51,o),
(815,172,c),
(825,172,l),
(825,168,ls),
(825,70,o),
(889,0,o),
(1014,0,cs,{
name = hr02;
}),
(1127,0,l)
);
},
{
closed = 1;
nodes = (
(391,113,o),
(307,170,o),
(307,279,cs),
(307,321,ls),
(307,424,o),
(395,481,o),
(590,481,cs),
(815,481,l),
(815,307,ls),
(815,199,o),
(695,113,o),
(527,113,cs,{
name = hr03;
})
);
}
);
width = 1229;
},
{
anchors = (
{
name = bottom;
pos = (598,0);
},
{
name = bottomright;
pos = (1172,0);
},
{
name = top;
pos = (598,1057);
}
);
associatedMasterId = "D7CFBB37-D300-46E8-A355-ECFF19545BAA";
background = {
shapes = (
{
closed = 1;
nodes = (
(1172,219,l),
(1055,219,l),
(1055,682,ls),
(1055,948,o),
(883,1081,o),
(594,1081,cs),
(359,1081,o),
(205,993,o),
(135,874,c),
(301,727,l),
(359,805,o),
(432,860,o),
(559,860,cs),
(698,860,o),
(751,795,o),
(751,670,cs),
(751,617,l),
(582,617,ls),
(273,617,o),
(106,512,o),
(106,291,cs),
(106,92,o),
(241,-25,o),
(447,-25,cs,{
name = hr01;
}),
(608,-25,o),
(731,49,o),
(768,186,c),
(778,186,l),
(778,183,ls),
(778,65,o),
(874,0,o),
(997,0,cs,{
name = hr02;
}),
(1172,0,l)
);
},
{
closed = 1;
nodes = (
(465,174,o),
(404,213,o),
(404,287,cs),
(404,328,ls),
(404,409,o),
(469,452,o),
(590,452,cs),
(751,452,l),
(751,326,ls),
(751,228,o),
(668,174,o),
(561,174,cs,{
name = hr03;
})
);
}
);
};
layerId = "1845FB2A-2F9C-45FE-BFCF-15BAB0094B30";
name = "25. März 24, 20:56";
shapes = (
{
closed = 1;
nodes = (
(1172,219,l),
(1055,219,l),
(1055,682,ls),
(1055,948,o),
(883,1081,o),
(594,1081,cs),
(359,1081,o),
(205,993,o),
(135,874,c),
(301,727,l),
(359,805,o),
(432,860,o),
(559,860,cs),
(698,860,o),
(751,795,o),
(751,670,cs),
(751,617,l),
(582,617,ls),
(273,617,o),
(106,512,o),
(106,291,cs),
(106,92,o),
(241,-25,o),
(447,-25,cs,{
name = hr01;
}),
(608,-25,o),
(731,49,o),
(768,186,c),
(778,186,l),
(778,183,ls),
(778,65,o),
(874,0,o),
(997,0,cs,{
name = hr02;
}),
(1172,0,l)
);
},
{
closed = 1;
nodes = (
(465,174,o),
(404,213,o),
(404,287,cs),
(404,328,ls),
(404,409,o),
(469,452,o),
(590,452,cs),
(751,452,l),
(751,326,ls),
(751,228,o),
(668,174,o),
(561,174,cs,{
name = hr03;
})
);
}
);
width = 1229;
},
{
anchors = (
{
name = bottom;
pos = (563,0);
},
{
name = bottomright;
pos = (1087,0);
},
{
name = top;
pos = (563,1057);
}
);
associatedMasterId = master01;
layerId = "305CD9A0-2AF2-4050-BE2F-7BDCD0F9384A";
name = "25. März 24, 20:58";
shapes = (
{
closed = 1;
nodes = (
(708,-25,o),
(813,60,o),
(864,158,c),
(871,158,l),
(871,60,ls),
(871,18,o),
(889,0,o),
(929,0,cs,{
name = hr02;
}),
(1087,0,l),
(1087,39,l),
(913,39,l),
(913,735,ls),
(913,954,o),
(785,1081,o),
(563,1081,cs),
(375,1081,o),
(254,996,o),
(195,860,c),
(229,840,l),
(289,981,o),
(414,1042,o),
(563,1042,cs),
(753,1042,o),
(871,942,o),
(871,729,cs),
(871,563,l),
(563,563,ls),
(252,563,o),
(160,439,o),
(160,266,cs),
(160,80,o),
(284,-25,o),
(510,-25,cs,{
name = hr01;
})
);
},
{
closed = 1;
nodes = (
(332,15,o),
(207,92,o),
(207,233,cs),
(207,299,ls),
(207,434,o),
(307,527,o),
(565,527,cs),
(871,527,l),
(871,303,ls),
(871,111,o),
(703,15,o),
(510,15,cs,{
name = hr03;
})
);
}
);
width = 1229;
},
{
anchors = (
{
name = bottom;
pos = (598,0);
},
{
name = bottomright;
pos = (1172,0);
},
{
name = top;
pos = (598,1057);
}
);
associatedMasterId = "D7CFBB37-D300-46E8-A355-ECFF19545BAA";
background = {
shapes = (
{
closed = 1;
nodes = (
(1172,219,l),
(1055,219,l),
(1055,682,ls),
(1055,948,o),
(883,1081,o),
(594,1081,cs),
(359,1081,o),
(205,993,o),
(135,874,c),
(301,727,l),
(359,805,o),
(432,860,o),
(559,860,cs),
(698,860,o),
(751,795,o),
(751,670,cs),
(751,617,l),
(582,617,ls),
(273,617,o),
(106,512,o),
(106,291,cs),
(106,92,o),
(241,-25,o),
(447,-25,cs,{
name = hr01;
}),
(608,-25,o),
(731,49,o),
(768,186,c),
(778,186,l),
(778,183,ls),
(778,65,o),
(874,0,o),
(997,0,cs,{
name = hr02;
}),
(1172,0,l)
);
},
{
closed = 1;
nodes = (
(465,174,o),
(404,213,o),
(404,287,cs),
(404,328,ls),
(404,409,o),
(469,452,o),
(590,452,cs),
(751,452,l),
(751,326,ls),
(751,228,o),
(668,174,o),
(561,174,cs,{
name = hr03;
})
);
}
);
};
layerId = "7B375A37-D065-4C06-AEA6-4D79B01FF7DC";
name = "25. März 24, 23:03";
shapes = (
{
closed = 1;
nodes = (
(608,-25,o),
(731,49,o),
(768,186,c),
(778,186,l),
(778,183,ls),
(778,65,o),
(874,0,o),
(997,0,cs,{
name = hr02;
}),
(1172,0,l),
(1172,219,l),
(1055,219,l),
(1055,682,ls),
(1055,948,o),
(883,1081,o),
(580,1081,cs),
(345,1081,o),
(142,1013,o),
(127,716,c),
(400,716,l),
(412,813,o),
(456,860,o),
(574,860,cs),
(713,860,o),
(751,795,o),
(751,670,cs),
(751,617,l),
(582,617,ls),
(273,617,o),
(106,512,o),
(106,291,cs),
(106,92,o),
(241,-25,o),
(447,-25,cs,{
name = hr01;
})
);
},
{
closed = 1;
nodes = (
(465,174,o),
(404,213,o),
(404,287,cs),
(404,328,ls),
(404,409,o),
(469,452,o),
(590,452,cs),
(751,452,l),
(751,326,ls),
(751,228,o),
(668,174,o),
(561,174,cs,{
name = hr03;
})
);
}
);
width = 1229;
},
{
anchors = (
{
name = bottom;
pos = (580,0);
},
{
name = bottomright;
pos = (1127,0);
},
{
name = top;
pos = (580,1057);
}
);
associatedMasterId = "661A777E-9960-44AA-8623-3AD7C626B4F3";
background = {
shapes = (
{
closed = 1;
nodes = (
(1127,143,l),
(979,143,l),
(979,725,ls),
(979,948,o),
(821,1081,o),
(573,1081,cs),
(359,1081,o),
(223,979,o),
(170,868,c),
(281,786,l),
(336,883,o),
(422,942,o),
(563,942,cs),
(723,942,o),
(815,863,o),
(815,708,cs),
(815,604,l),
(590,604,ls),
(273,604,o),
(135,492,o),
(135,297,cs),
(135,98,o),
(276,-25,o),
(497,-25,cs,{
name = hr01;
}),
(670,-25,o),
(770,51,o),
(815,172,c),
(825,172,l),
(825,168,ls),
(825,70,o),
(889,0,o),
(1014,0,cs,{
name = hr02;
}),
(1127,0,l)
);
},
{
closed = 1;
nodes = (
(391,113,o),
(307,170,o),
(307,279,cs),
(307,321,ls),
(307,424,o),
(395,481,o),
(590,481,cs),
(815,481,l),
(815,307,ls),
(815,199,o),
(695,113,o),
(527,113,cs,{
name = hr03;
})
);
}
);
};
layerId = "120FC675-AAA2-43BD-93F4-81CBE07028B1";
name = "25. März 24, 23:13";
shapes = (
{
closed = 1;
nodes = (
(670,-25,o),
(770,51,o),
(815,172,c),
(825,172,l),
(825,168,ls),
(825,70,o),
(889,0,o),
(1014,0,cs,{
name = hr02;
}),
(1127,0,l),
(1127,143,l),
(979,143,l),
(979,725,ls),
(979,948,o),
(819,1081,o),
(568,1081,cs),
(317,1081,o),
(161,948,o),
(161,725,c),
(313,725,l),
(325,879,o),
(418,942,o),
(562,942,cs),
(724,942,o),
(815,863,o),
(815,708,cs),
(815,604,l),
(590,604,ls),
(273,604,o),
(135,492,o),
(135,297,cs),
(135,98,o),
(276,-25,o),
(497,-25,cs,{
name = hr01;
})
);
},
{
closed = 1;
nodes = (
(391,113,o),
(307,170,o),
(307,279,cs),
(307,321,ls),
(307,424,o),
(395,481,o),
(590,481,cs),
(815,481,l),
(815,307,ls),
(815,199,o),
(695,113,o),
(527,113,cs,{
name = hr03;
})
);
}
);
width = 1229;
},
{
anchors = (
{
name = bottom;
pos = (580,0);
},
{
name = bottomright;
pos = (1127,0);
},
{
name = top;
pos = (587,1057);
}
);
background = {
shapes = (
{
closed = 1;
nodes = (
(1127,143,l),
(979,143,l),
(979,725,ls),
(979,948,o),
(821,1081,o),
(573,1081,cs),
(359,1081,o),
(223,979,o),
(170,868,c),
(281,786,l),
(336,883,o),
(422,942,o),
(563,942,cs),
(723,942,o),
(815,863,o),
(815,708,cs),
(815,604,l),
(590,604,ls),
(273,604,o),
(135,492,o),
(135,297,cs),
(135,98,o),
(276,-25,o),
(497,-25,cs,{
name = hr01;
}),
(670,-25,o),
(770,51,o),
(815,172,c),
(825,172,l),
(825,168,ls),
(825,70,o),
(889,0,o),
(1014,0,cs,{
name = hr02;
}),
(1127,0,l)
);
},
{
closed = 1;
nodes = (
(391,113,o),
(307,170,o),
(307,279,cs),
(307,321,ls),
(307,424,o),
(395,481,o),
(590,481,cs),
(815,481,l),
(815,307,ls),
(815,199,o),
(695,113,o),
(527,113,cs,{
name = hr03;
})
);
}
);
};
layerId = "661A777E-9960-44AA-8623-3AD7C626B4F3";
name = Regular;
shapes = (
{
closed = 1;
nodes = (
(663,-25,o),
(767,47,o),
(815,172,c),
(825,172,l),
(825,168,ls),
(825,70,o),
(889,0,o),
(1014,0,cs,{
name = hr02;
}),
(1127,0,l),
(1127,143,l),
(979,143,l),
(979,754,ls),
(979,977,o),
(824,1081,o),
(581,1081,cs),
(329,1081,o),
(169,970,o),
(169,740,c),
(320,740,l),
(333,903,o),
(433,942,o),
(572,942,cs),
(731,942,o),
(815,890,o),
(815,737,cs),
(815,604,l),
(524,604,ls),
(244,604,o),
(135,492,o),
(135,297,cs),
(135,98,o),
(250,-25,o),
(484,-25,cs,{
name = hr01;
})
);
},
{
closed = 1;
nodes = (
(362,113,o),
(307,173,o),
(307,279,cs),
(307,321,ls),
(307,424,o),
(366,481,o),
(524,481,cs),
(815,481,l),
(815,307,ls),
(815,199,o),
(691,113,o),
(512,113,cs,{
name = hr03;
})
);
}
);
width = 1229;
},
{
anchors = (
{
name = bottom;
pos = (563,0);
},
{
name = bottomright;
pos = (1087,0);
},
{
name = top;
pos = (563,1057);
}
);
associatedMasterId = master01;
background = {
shapes = (
{
closed = 1;
nodes = (
(708,-25,o),
(813,60,o),
(864,158,c),
(871,158,l),
(871,60,ls),
(871,18,o),
(889,0,o),
(929,0,cs,{
name = hr02;
}),
(1087,0,l),
(1087,39,l),
(913,39,l),
(913,735,ls),
(913,954,o),
(785,1081,o),
(563,1081,cs),
(375,1081,o),
(254,996,o),
(195,860,c),
(229,840,l),
(289,981,o),
(414,1042,o),
(563,1042,cs),
(753,1042,o),
(871,942,o),
(871,729,cs),
(871,563,l),
(563,563,ls),
(252,563,o),
(160,439,o),
(160,266,cs),
(160,80,o),
(284,-25,o),
(510,-25,cs,{
name = hr01;
})
);
},
{
closed = 1;
nodes = (
(332,15,o),
(207,92,o),
(207,233,cs),
(207,299,ls),
(207,434,o),
(307,527,o),
(565,527,cs),
(871,527,l),
(871,303,ls),
(871,111,o),
(703,15,o),
(510,15,cs,{
name = hr03;
})
);
}
);
};
layerId = "47795E9E-698C-4D51-BCAF-FE8CA8A584FE";
name = "25. März 24, 23:13";
shapes = (
{
closed = 1;
nodes = (
(752,-25,o),
(857,60,o),
(908,158,c),
(914,158,l),
(914,60,ls),
(914,18,o),
(932,0,o),
(973,0,cs,{
name = hr02;
}),
(1131,0,l),
(1131,39,l),
(957,39,l),
(957,735,ls),
(957,954,o),
(828,1081,o),
(599,1081,cs),
(370,1081,o),
(241,954,o),
(241,735,c),
(284,735,l),
(284,942,o),
(401,1042,o),
(599,1042,cs),
(797,1042,o),
(914,942,o),
(914,729,cs),
(914,563,l),
(607,563,ls),
(295,563,o),
(204,439,o),
(204,266,cs),
(204,80,o),
(328,-25,o),
(553,-25,cs,{
name = hr01;
})
);
},
{
closed = 1;
nodes = (
(375,15,o),
(250,92,o),
(250,233,cs),
(250,299,ls),
(250,434,o),
(351,527,o),
(609,527,cs),
(914,527,l),
(914,303,ls),
(914,111,o),
(746,15,o),
(553,15,cs,{
name = hr03;
})
);
}
);
width = 1229;
},
{
anchors = (
{
name = bottom;
pos = (598,0);
},
{
name = bottomright;
pos = (1172,0);
},
{
name = top;
pos = (598,1057);
}
);
associatedMasterId = "D7CFBB37-D300-46E8-A355-ECFF19545BAA";
background = {
shapes = (
{
closed = 1;
nodes = (
(1172,219,l),
(1055,219,l),
(1055,682,ls),
(1055,948,o),
(883,1081,o),
(594,1081,cs),
(359,1081,o),
(205,993,o),
(135,874,c),
(301,727,l),
(359,805,o),
(432,860,o),
(559,860,cs),
(698,860,o),
(751,795,o),
(751,670,cs),
(751,617,l),
(582,617,ls),
(273,617,o),
(106,512,o),
(106,291,cs),
(106,92,o),
(241,-25,o),
(447,-25,cs,{
name = hr01;
}),
(608,-25,o),
(731,49,o),
(768,186,c),
(778,186,l),
(778,183,ls),
(778,65,o),
(874,0,o),
(997,0,cs,{
name = hr02;
}),
(1172,0,l)
);
},
{
closed = 1;
nodes = (
(465,174,o),
(404,213,o),
(404,287,cs),
(404,328,ls),
(404,409,o),
(469,452,o),
(590,452,cs),
(751,452,l),
(751,326,ls),
(751,228,o),
(668,174,o),
(561,174,cs,{
name = hr03;
})
);
}
);
};
layerId = "8E544027-F8A6-4C2B-84AA-48004A8A9AB0";
name = "25. März 24, 23:14";
shapes = (
{
closed = 1;
nodes = (
(608,-25,o),
(731,49,o),
(768,186,c),
(778,186,l),
(778,183,ls),
(778,65,o),
(874,0,o),
(997,0,cs,{
name = hr02;
}),
(1172,0,l),
(1172,219,l),
(1055,219,l),
(1055,682,ls),
(1055,948,o),
(883,1081,o),
(580,1081,cs),
(345,1081,o),
(142,999,o),
(127,702,c),
(400,702,l),
(412,799,o),
(456,860,o),
(574,860,cs),
(713,860,o),
(751,795,o),
(751,670,cs),
(751,617,l),
(582,617,ls),
(273,617,o),
(106,512,o),
(106,291,cs),
(106,92,o),
(241,-25,o),
(447,-25,cs,{
name = hr01;
})
);
},
{
closed = 1;
nodes = (
(465,174,o),
(404,213,o),
(404,287,cs),
(404,328,ls),
(404,409,o),
(469,452,o),
(590,452,cs),
(751,452,l),
(751,326,ls),
(751,228,o),
(668,174,o),
(561,174,cs,{
name = hr03;
})
);
}
);
width = 1229;
},
{
anchors = (
{
name = bottom;
pos = (580,0);
},
{
name = bottomright;
pos = (1127,0);
},
{
name = top;
pos = (580,1057);
}
);
associatedMasterId = "661A777E-9960-44AA-8623-3AD7C626B4F3";
background = {
shapes = (
{
closed = 1;
nodes = (
(1127,143,l),
(979,143,l),
(979,725,ls),
(979,948,o),
(821,1081,o),
(573,1081,cs),
(359,1081,o),
(223,979,o),
(170,868,c),
(281,786,l),
(336,883,o),
(422,942,o),
(563,942,cs),
(723,942,o),
(815,863,o),
(815,708,cs),
(815,604,l),
(590,604,ls),
(273,604,o),
(135,492,o),
(135,297,cs),
(135,98,o),
(276,-25,o),
(497,-25,cs,{
name = hr01;
}),
(670,-25,o),
(770,51,o),
(815,172,c),
(825,172,l),
(825,168,ls),
(825,70,o),
(889,0,o),
(1014,0,cs,{
name = hr02;
}),
(1127,0,l)
);
},
{
closed = 1;
nodes = (
(391,113,o),
(307,170,o),
(307,279,cs),
(307,321,ls),
(307,424,o),
(395,481,o),
(590,481,cs),
(815,481,l),
(815,307,ls),
(815,199,o),
(695,113,o),
(527,113,cs,{
name = hr03;
})
);
}
);
};
layerId = "6DE1E20F-B398-4918-8845-E088BAC3333F";
name = "26. März 24, 12:22";
shapes = (
{
closed = 1;
nodes = (
(670,-25,o),
(770,51,o),
(815,172,c),
(825,172,l),
(825,168,ls),
(825,70,o),
(889,0,o),
(1014,0,cs,{
name = hr02;
}),
(1127,0,l),
(1127,143,l),
(979,143,l),
(979,725,ls),
(979,948,o),
(819,1081,o),
(568,1081,cs),
(324,1081,o),
(169,977,o),
(169,754,c),
(320,754,l),
(332,908,o),
(425,942,o),
(562,942,cs),
(724,942,o),
(815,863,o),
(815,708,cs),
(815,604,l),
(590,604,ls),
(273,604,o),
(135,492,o),
(135,297,cs),
(135,98,o),
(276,-25,o),
(497,-25,cs,{
name = hr01;
})
);
},
{
closed = 1;
nodes = (
(391,113,o),
(307,170,o),
(307,279,cs),
(307,321,ls),
(307,424,o),
(395,481,o),
(590,481,cs),
(815,481,l),
(815,307,ls),
(815,199,o),
(695,113,o),
(527,113,cs,{
name = hr03;
})
);
}
);
width = 1229;
},
{
anchors = (
{
name = bottom;
pos = (580,0);
},
{
name = bottomright;
pos = (1127,0);
},
{
name = top;
pos = (580,1057);
}
);
associatedMasterId = "661A777E-9960-44AA-8623-3AD7C626B4F3";
background = {
shapes = (
{
closed = 1;
nodes = (
(1127,143,l),
(979,143,l),
(979,725,ls),
(979,948,o),
(821,1081,o),
(573,1081,cs),
(359,1081,o),
(223,979,o),
(170,868,c),
(281,786,l),
(336,883,o),
(422,942,o),
(563,942,cs),
(723,942,o),
(815,863,o),
(815,708,cs),
(815,604,l),
(590,604,ls),
(273,604,o),
(135,492,o),
(135,297,cs),
(135,98,o),
(276,-25,o),
(497,-25,cs,{
name = hr01;
}),
(670,-25,o),
(770,51,o),
(815,172,c),
(825,172,l),
(825,168,ls),
(825,70,o),
(889,0,o),
(1014,0,cs,{
name = hr02;
}),
(1127,0,l)
);
},
{
closed = 1;
nodes = (
(391,113,o),
(307,170,o),
(307,279,cs),
(307,321,ls),
(307,424,o),
(395,481,o),
(590,481,cs),
(815,481,l),
(815,307,ls),
(815,199,o),
(695,113,o),
(527,113,cs,{
name = hr03;
})
);
}
);
};
layerId = "B8CBECC4-5B92-425F-B3A6-4F5E9FF7CFCC";
name = "7. Apr. 24, 23:44";
shapes = (
{
closed = 1;
nodes = (
(670,-25,o),
(770,51,o),
(815,172,c),
(825,172,l),
(825,168,ls),
(825,70,o),
(889,0,o),
(1014,0,cs,{
name = hr02;
}),
(1127,0,l),
(1127,143,l),
(979,143,l),
(979,747,ls),
(979,970,o),
(826,1081,o),
(575,1081,cs),
(332,1081,o),
(169,970,o),
(169,740,c),
(320,740,l),
(332,899,o),
(433,942,o),
(565,942,cs),
(731,942,o),
(815,886,o),
(815,730,cs),
(815,604,l),
(539,604,ls),
(258,604,o),
(135,492,o),
(135,297,cs),
(135,98,o),
(276,-25,o),
(497,-25,cs,{
name = hr01;
})
);
},
{
closed = 1;
nodes = (
(391,113,o),
(307,170,o),
(307,279,cs),
(307,321,ls),
(307,424,o),
(380,481,o),
(539,481,cs),
(815,481,l),
(815,307,ls),
(815,199,o),
(695,113,o),
(527,113,cs,{
name = hr03;
})
);
}
);
width = 1229;
},
{
anchors = (
{
name = bottom;
pos = (563,0);
},
{
name = bottomright;
pos = (1087,0);
},
{
name = top;
pos = (563,1057);
}
);
associatedMasterId = master01;
background = {
shapes = (
{
closed = 1;
nodes = (
(708,-25,o),
(813,60,o),
(864,158,c),
(871,158,l),
(871,60,ls),
(871,18,o),
(889,0,o),
(929,0,cs,{
name = hr02;
}),
(1087,0,l),
(1087,39,l),
(913,39,l),
(913,735,ls),
(913,954,o),
(785,1081,o),
(563,1081,cs),
(375,1081,o),
(254,996,o),
(195,860,c),
(229,840,l),
(289,981,o),
(414,1042,o),
(563,1042,cs),
(753,1042,o),
(871,942,o),
(871,729,cs),
(871,563,l),
(563,563,ls),
(252,563,o),
(160,439,o),
(160,266,cs),
(160,80,o),
(284,-25,o),
(510,-25,cs,{
name = hr01;
})
);
},
{
closed = 1;
nodes = (
(332,15,o),
(207,92,o),
(207,233,cs),
(207,299,ls),
(207,434,o),
(307,527,o),
(565,527,cs),
(871,527,l),
(871,303,ls),
(871,111,o),
(703,15,o),
(510,15,cs,{
name = hr03;
})
);
}
);
};
layerId = "E7EEA7C4-FAA1-4FEB-A8B8-4DF67747C3B4";
name = "9. Apr. 24, 12:02";
shapes = (
{
closed = 1;
nodes = (
(752,-25,o),
(855,58,o),
(908,158,c),
(914,158,l),
(914,60,ls),
(914,18,o),
(932,0,o),
(973,0,cs,{
name = hr02;
}),
(1131,0,l),
(1131,39,l),
(957,39,l),
(957,764,ls),
(957,985,o),
(836,1081,o),
(604,1081,cs),
(385,1081,o),
(249,997,o),
(249,779,c),
(292,779,l),
(292,984,o),
(416,1042,o),
(602,1042,cs),
(804,1042,o),
(914,974,o),
(914,758,cs),
(914,563,l),
(585,563,ls),
(283,563,o),
(204,439,o),
(204,271,cs),
(204,79,o),
(328,-25,o),
(551,-25,cs,{
name = hr01;
})
);
},
{
closed = 1;
nodes = (
(376,15,o),
(250,92,o),
(250,233,cs),
(250,299,ls),
(250,434,o),
(336,527,o),
(587,527,cs),
(914,527,l),
(914,303,ls),
(914,111,o),
(747,15,o),
(552,15,cs,{
name = hr03;
})
);
}
);
width = 1229;
},
{
anchors = (
{
name = bottom;
pos = (598,0);
},
{
name = bottomright;
pos = (1172,0);
},
{
name = top;
pos = (598,1057);
}
);
associatedMasterId = "D7CFBB37-D300-46E8-A355-ECFF19545BAA";
background = {
shapes = (
{
closed = 1;
nodes = (
(1172,219,l),
(1055,219,l),
(1055,682,ls),
(1055,948,o),
(883,1081,o),
(594,1081,cs),
(359,1081,o),
(205,993,o),
(135,874,c),
(301,727,l),
(359,805,o),
(432,860,o),
(559,860,cs),
(698,860,o),
(751,795,o),
(751,670,cs),
(751,617,l),
(582,617,ls),
(273,617,o),
(106,512,o),
(106,291,cs),
(106,92,o),
(241,-25,o),
(447,-25,cs,{
name = hr01;
}),
(608,-25,o),
(731,49,o),
(768,186,c),
(778,186,l),
(778,183,ls),
(778,65,o),
(874,0,o),
(997,0,cs,{
name = hr02;
}),
(1172,0,l)
);
},
{
closed = 1;
nodes = (
(465,174,o),
(404,213,o),
(404,287,cs),
(404,328,ls),
(404,409,o),
(469,452,o),
(590,452,cs),
(751,452,l),
(751,326,ls),
(751,228,o),
(668,174,o),
(561,174,cs,{
name = hr03;
})
);
}
);
};
layerId = "FD40E1C8-8044-454D-81E9-3AE950056B04";
name = "9. Apr. 24, 13:41";
shapes = (
{
closed = 1;
nodes = (
(608,-25,o),
(731,49,o),
(768,186,c),
(778,186,l),
(778,183,ls),
(778,65,o),
(874,0,o),
(997,0,cs,{
name = hr02;
}),
(1172,0,l),
(1172,219,l),
(1055,219,l),
(1055,682,ls),
(1055,948,o),
(888,1081,o),
(576,1081,cs),
(352,1081,o),
(148,1016,o),
(135,724,c),
(407,724,l),
(419,818,o),
(463,860,o),
(578,860,cs),
(713,860,o),
(751,796,o),
(751,670,cs),
(751,617,l),
(582,617,ls),
(273,617,o),
(106,512,o),
(106,291,cs),
(106,92,o),
(241,-25,o),
(447,-25,cs,{
name = hr01;
})
);
},
{
closed = 1;
nodes = (
(465,174,o),
(404,213,o),
(404,287,cs),
(404,328,ls),
(404,409,o),
(469,452,o),
(590,452,cs),
(751,452,l),
(751,326,ls),
(751,228,o),
(668,174,o),
(559,174,cs,{
name = hr03;
})
);
}
);
width = 1229;
},
{
anchors = (
{
name = bottom;
pos = (563,0);
},
{
name = bottomright;
pos = (1087,0);
},
{
name = top;
pos = (563,1057);
}
);
associatedMasterId = master01;
background = {
shapes = (
{
closed = 1;
nodes = (
(708,-25,o),
(813,60,o),
(864,158,c),
(871,158,l),
(871,60,ls),
(871,18,o),
(889,0,o),
(929,0,cs,{
name = hr02;
}),
(1087,0,l),
(1087,39,l),
(913,39,l),
(913,735,ls),
(913,954,o),
(785,1081,o),
(563,1081,cs),
(375,1081,o),
(254,996,o),
(195,860,c),
(229,840,l),
(289,981,o),
(414,1042,o),
(563,1042,cs),
(753,1042,o),
(871,942,o),
(871,729,cs),
(871,563,l),
(563,563,ls),
(252,563,o),
(160,439,o),
(160,266,cs),
(160,80,o),
(284,-25,o),
(510,-25,cs,{
name = hr01;
})
);
},
{
closed = 1;
nodes = (
(332,15,o),
(207,92,o),
(207,233,cs),
(207,299,ls),
(207,434,o),
(307,527,o),
(565,527,cs),
(871,527,l),
(871,303,ls),
(871,111,o),
(703,15,o),
(510,15,cs,{
name = hr03;
})
);
}
);
};
layerId = "3C65F895-051C-4FE7-B823-60A2292B6456";
name = "9. Apr. 24, 13:42";
shapes = (
{
closed = 1;
nodes = (
(752,-25,o),
(855,58,o),
(908,158,c),
(914,158,l),
(914,60,ls),
(914,18,o),
(932,0,o),
(973,0,cs,{
name = hr02;
}),
(1131,0,l),
(1131,39,l),
(957,39,l),
(957,786,ls),
(957,993,o),
(829,1081,o),
(604,1081,cs),
(393,1081,o),
(249,1004,o),
(249,786,c),
(292,786,l),
(292,991,o),
(423,1042,o),
(602,1042,cs),
(797,1042,o),
(914,981,o),
(914,780,cs),
(914,563,l),
(563,563,ls),
(276,563,o),
(204,446,o),
(204,271,cs),
(204,71,o),
(328,-25,o),
(551,-25,cs,{
name = hr01;
})
);
},
{
closed = 1;
nodes = (
(376,15,o),
(250,85,o),
(250,233,cs),
(250,299,ls),
(250,441,o),
(329,527,o),
(565,527,cs),
(914,527,l),
(914,303,ls),
(914,111,o),
(747,15,o),
(552,15,cs,{
name = hr03;
})
);
}
);
width = 1229;
},
{
anchors = (
{
name = bottom;
pos = (598,0);
},
{
name = bottomright;
pos = (1172,0);
},
{
name = top;
pos = (598,1057);
}
);
associatedMasterId = "D7CFBB37-D300-46E8-A355-ECFF19545BAA";
background = {
shapes = (
{
closed = 1;
nodes = (
(1172,219,l),
(1055,219,l),
(1055,682,ls),
(1055,948,o),
(883,1081,o),
(594,1081,cs),
(359,1081,o),
(205,993,o),
(135,874,c),
(301,727,l),
(359,805,o),
(432,860,o),
(559,860,cs),
(698,860,o),
(751,795,o),
(751,670,cs),
(751,617,l),
(582,617,ls),
(273,617,o),
(106,512,o),
(106,291,cs),
(106,92,o),
(241,-25,o),
(447,-25,cs,{
name = hr01;
}),
(608,-25,o),
(731,49,o),
(768,186,c),
(778,186,l),
(778,183,ls),
(778,65,o),
(874,0,o),
(997,0,cs,{
name = hr02;
}),
(1172,0,l)
);
},
{
closed = 1;
nodes = (
(465,174,o),
(404,213,o),
(404,287,cs),
(404,328,ls),
(404,409,o),
(469,452,o),
(590,452,cs),
(751,452,l),
(751,326,ls),
(751,228,o),
(668,174,o),
(561,174,cs,{
name = hr03;
})
);
}
);
};
layerId = "349C6BBE-E7E1-4285-A808-FB7B6A6BC02B";
name = "9. Apr. 24, 13:42";
shapes = (
{
closed = 1;
nodes = (
(608,-25,o),
(731,49,o),
(768,186,c),
(778,186,l),
(778,183,ls),
(778,65,o),
(874,0,o),
(997,0,cs,{
name = hr02;
}),
(1172,0,l),
(1172,219,l),
(1055,219,l),
(1055,682,ls),
(1055,948,o),
(888,1081,o),
(576,1081,cs),
(352,1081,o),
(148,1016,o),
(135,724,c),
(407,724,l),
(419,818,o),
(463,860,o),
(578,860,cs),
(713,860,o),
(751,796,o),
(751,670,cs),
(751,617,l),
(582,617,ls),
(273,617,o),
(106,512,o),
(106,291,cs),
(106,92,o),
(241,-25,o),
(447,-25,cs,{
name = hr01;
})
);
},
{
closed = 1;
nodes = (
(465,174,o),
(404,213,o),
(404,287,cs),
(404,328,ls),
(404,409,o),
(469,452,o),
(590,452,cs),
(751,452,l),
(751,326,ls),
(751,228,o),
(668,174,o),
(559,174,cs,{
name = hr03;
})
);
}
);
width = 1229;
}
);
unicode = 97;
}
{
glyphname = b;
layers = (
{
anchors = (
{
name = bottom;
pos = (873,0);
}
);
layerId = master01;
shapes = (
{
closed = 1;
nodes = (
(411,0,l),
(411,220,l),
(420,220,l),
(479,96,o),
(628,-34,o),
(873,-34,cs,{
name = hr01;
}),
(1245,-34,o),
(1464,222,o),
(1464,727,cs),
(1464,1231,o),
(1245,1487,o),
(873,1487,cs),
(628,1487,o),
(479,1357,o),
(420,1233,c),
(411,1233,l),
(411,2084,l,{
name = hr02;
}),
(352,2084,l),
(352,0,l)
);
},
{
closed = 1;
nodes = (
(631,20,o),
(411,175,o),
(411,403,cs),
(411,1050,ls),
(411,1278,o),
(631,1433,o),
(873,1433,cs),
(1211,1433,o),
(1400,1188,o),
(1400,794,cs),
(1400,659,ls),
(1400,265,o),
(1211,20,o),
(873,20,cs,{
name = hr03;
})
);
}
);
width = 1690;
},
{
anchors = (
{
name = bottom;
pos = (873,0);
}
);
layerId = "D7CFBB37-D300-46E8-A355-ECFF19545BAA";
shapes = (
{
closed = 1;
nodes = (
(583,0,l),
(583,265,l),
(603,265,l),
(676,90,o),
(800,-34,o),
(1033,-34,cs,{
name = hr01;
}),
(1354,-34,o),
(1580,200,o),
(1580,727,cs),
(1580,1253,o),
(1354,1487,o),
(1033,1487,cs),
(800,1487,o),
(676,1363,o),
(603,1188,c),
(583,1188,l),
(583,2084,l,{
name = hr02;
}),
(166,2084,l),
(166,0,l)
);
},
{
closed = 1;
nodes = (
(707,290,o),
(583,360,o),
(583,513,c),
(583,941,l),
(583,1093,o),
(707,1163,o),
(853,1163,cs),
(1039,1163,o),
(1146,1042,o),
(1146,839,cs),
(1146,614,l),
(1146,411,o),
(1039,290,o),
(853,290,cs,{
name = hr03;
})
);
}
);
width = 1690;
},
{
anchors = (
{
name = bottom;
pos = (893,0);
}
);
layerId = "661A777E-9960-44AA-8623-3AD7C626B4F3";
shapes = (
{
closed = 1;
nodes = (
(493,0,l),
(493,237,l),
(504,237,l),
(597,59,o),
(749,-34,o),
(952,-34,cs,{
name = hr01;
}),
(1307,-34,o),
(1521,251,o),
(1521,727,cs),
(1521,1202,o),
(1307,1487,o),
(952,1487,cs),
(749,1487,o),
(597,1394,o),
(504,1217,c),
(493,1217,l),
(493,2084,l,{
name = hr02;
}),
(268,2084,l),
(268,0,l)
);
},
{
closed = 1;
nodes = (
(665,166,o),
(493,270,o),
(493,465,c),
(493,988,l),
(493,1183,o),
(665,1287,o),
(865,1287,cs),
(1126,1287,o),
(1278,1112,o),
(1278,850,cs),
(1278,603,ls),
(1278,341,o),
(1126,166,o),
(865,166,cs,{
name = hr03;
})
);
}
);
width = 1690;
}
);
unicode = 98;
}
{
glyphname = c;
layers = (
{
anchors = (
{
name = bottom;
pos = (647,0);
},
{
name = top;
pos = (655,1057);
}
);
background = {
anchors = (
{
name = bottom;
pos = (671,0);
},
{
name = top;
pos = (671,1057);
}
);
shapes = (
{
pos = (79,0);
ref = o;
}
);
};
layerId = master01;
shapes = (
{
closed = 1;
nodes = (
(884,-25,o),
(1061,82,o),
(1069,319,c),
(1026,319,l),
(1019,119,o),
(867,15,o),
(665,15,cs),
(418,15,o),
(287,169,o),
(287,479,cs),
(287,577,ls),
(287,895,o),
(419,1042,o),
(673,1042,cs),
(860,1042,o),
(1004,963,o),
(1012,738,c),
(1055,738,l),
(1046,999,o),
(878,1081,o),
(674,1081,cs),
(388,1081,o),
(240,919,o),
(240,531,cs),
(240,136,o),
(394,-25,o),
(664,-25,cs,{
name = hr00;
})
);
}
);
width = 1229;
},
{
anchors = (
{
name = bottom;
pos = (647,0);
},
{
name = top;
pos = (655,1057);
}
);
associatedMasterId = master01;
layerId = "87CD479C-BE9F-42D9-9A3E-27AE823B618B";
name = "25. März 24, 20:36";
shapes = (
{
closed = 1;
nodes = (
(850,-25,o),
(977,82,o),
(1030,209,c),
(993,225,l),
(936,98,o),
(823,15,o),
(660,15,cs),
(412,15,o),
(273,193,o),
(273,479,cs),
(273,577,ls),
(273,864,o),
(412,1042,o),
(660,1042,cs),
(815,1042,o),
(926,971,o),
(977,840,c),
(1016,852,l),
(969,985,o),
(844,1081,o),
(660,1081,cs),
(387,1081,o),
(225,895,o),
(225,529,cs),
(225,161,o),
(387,-25,o),
(660,-25,cs,{
name = hr00;
})
);
}
);
width = 1229;
},
{
anchors = (
{
name = bottom;
pos = (647,0);
},
{
name = top;
pos = (655,1057);
}
);
associatedMasterId = master01;
background = {
shapes = (
{
closed = 1;
nodes = (
(850,-25,o),
(977,82,o),
(1030,209,c),
(993,225,l),
(936,98,o),
(823,15,o),
(660,15,cs),
(412,15,o),
(273,193,o),
(273,479,cs),
(273,577,ls),
(273,864,o),
(412,1042,o),
(660,1042,cs),
(815,1042,o),
(926,971,o),
(977,840,c),
(1016,852,l),
(969,985,o),
(844,1081,o),
(660,1081,cs),
(387,1081,o),
(225,895,o),
(225,529,cs),
(225,161,o),
(387,-25,o),
(660,-25,cs,{
name = hr00;
})
);
}
);
};
layerId = "59C70A31-3F07-45C6-B596-28A089476B1A";
name = "25. März 24, 23:15";
shapes = (
{
closed = 1;
nodes = (
(870,-25,o),
(1021,86,o),
(1033,305,c),
(990,305,l),
(979,122,o),
(852,15,o),
(660,15,cs),
(412,15,o),
(273,193,o),
(273,479,cs),
(273,577,ls),
(273,864,o),
(404,1042,o),
(652,1042,cs),
(845,1042,o),
(964,935,o),
(975,753,c),
(1018,753,l),
(1007,971,o),
(863,1081,o),
(652,1081,cs),
(380,1081,o),
(225,895,o),
(225,532,cs),
(225,161,o),
(387,-25,o),
(660,-25,cs,{
name = hr00;
})
);
}
);
width = 1229;
},
{
anchors = (
{
name = bottom;
pos = (620,0);
},
{
name = top;
pos = (641,1057);
}
);
associatedMasterId = "661A777E-9960-44AA-8623-3AD7C626B4F3";
layerId = "19002E1D-AEF2-497C-889A-5A90BBA1CF4B";
name = "25. März 24, 19:41";
shapes = (
{
closed = 1;
nodes = (
(863,-25,o),
(996,80,o),
(1057,221,c),
(940,301,l),
(887,186,o),
(795,117,o),
(653,117,cs),
(455,117,o),
(348,252,o),
(348,439,cs),
(348,618,ls),
(348,805,o),
(457,940,o),
(649,940,cs),
(780,940,o),
(871,876,o),
(909,768,c),
(1041,838,l),
(981,981,o),
(854,1081,o),
(649,1081,cs),
(351,1081,o),
(172,864,o),
(172,529,cs),
(172,195,o),
(348,-25,o),
(651,-25,cs,{
name = hr00;
})
);
}
);
width = 1229;
},
{
anchors = (
{
name = bottom;
pos = (620,0);
},
{
name = top;
pos = (641,1057);
}
);
associatedMasterId = "661A777E-9960-44AA-8623-3AD7C626B4F3";
background = {
shapes = (
{
closed = 1;
nodes = (
(863,-25,o),
(996,80,o),
(1057,221,c),
(940,301,l),
(887,186,o),
(795,117,o),
(653,117,cs),
(455,117,o),
(348,252,o),
(348,439,cs),
(348,618,ls),
(348,805,o),
(457,940,o),
(649,940,cs),
(780,940,o),
(871,876,o),
(909,768,c),
(1041,838,l),
(981,981,o),
(854,1081,o),
(649,1081,cs),
(351,1081,o),
(172,864,o),
(172,529,cs),
(172,195,o),
(348,-25,o),
(651,-25,cs,{
name = hr00;
})
);
}
);
};
layerId = "19AB2F2F-442B-4009-AD2B-E7760122B6E6";
name = "25. März 24, 23:02";
shapes = (
{
closed = 1;
nodes = (
(957,-24,o),
(1077,150,o),
(1084,330,c),
(919,330,l),
(903,214,o),
(851,117,o),
(657,117,cs),
(452,117,o),
(348,252,o),
(348,439,cs),
(348,618,ls),
(348,805,o),
(452,940,o),
(659,940,cs),
(842,940,o),
(895,848,o),
(911,735,c),
(1076,735,l),
(1068,915,o),
(943,1081,o),
(659,1081,cs),
(346,1081,o),
(172,863,o),
(172,529,cs),
(172,194,o),
(348,-25,o),
(651,-25,c,{
name = hr00;
})
);
}
);
width = 1229;
},
{
anchors = (
{
name = bottom;
pos = (620,0);
},
{
name = top;
pos = (641,1057);
}
);
associatedMasterId = "661A777E-9960-44AA-8623-3AD7C626B4F3";
background = {
shapes = (
{
closed = 1;
nodes = (
(863,-25,o),
(996,80,o),
(1057,221,c),
(940,301,l),
(887,186,o),
(795,117,o),
(653,117,cs),
(455,117,o),
(348,252,o),
(348,439,cs),
(348,618,ls),
(348,805,o),
(457,940,o),
(649,940,cs),
(780,940,o),
(871,876,o),
(909,768,c),
(1041,838,l),
(981,981,o),
(854,1081,o),
(649,1081,cs),
(351,1081,o),
(172,864,o),
(172,529,cs),
(172,195,o),
(348,-25,o),
(651,-25,cs,{
name = hr00;
})
);
}
);
};
layerId = "617B6D94-EE7A-4F2A-BE6D-A05D1385CE54";
name = "25. März 24, 23:15";
shapes = (
{
closed = 1;
nodes = (
(957,-24,o),
(1077,164,o),
(1084,345,c),
(919,345,l),
(903,228,o),
(851,117,o),
(657,117,cs),
(452,117,o),
(348,252,o),
(348,439,cs),
(348,618,ls),
(348,805,o),
(452,940,o),
(659,940,cs),
(842,940,o),
(895,833,o),
(911,720,c),
(1076,720,l),
(1068,900,o),
(943,1081,o),
(659,1081,cs),
(346,1081,o),
(172,863,o),
(172,529,cs),
(172,194,o),
(348,-25,o),
(651,-25,c,{
name = hr00;
})
);
}
);
width = 1229;
},
{
anchors = (
{
name = bottom;
pos = (620,0);
},
{
name = top;
pos = (641,1057);
}
);
associatedMasterId = "661A777E-9960-44AA-8623-3AD7C626B4F3";
background = {
shapes = (
{
closed = 1;
nodes = (
(863,-25,o),
(996,80,o),
(1057,221,c),
(940,301,l),
(887,186,o),
(795,117,o),
(653,117,cs),
(455,117,o),
(348,252,o),
(348,439,cs),
(348,618,ls),
(348,805,o),
(457,940,o),
(649,940,cs),
(780,940,o),
(871,876,o),
(909,768,c),
(1041,838,l),
(981,981,o),
(854,1081,o),
(649,1081,cs),
(351,1081,o),
(172,864,o),
(172,529,cs),
(172,195,o),
(348,-25,o),
(651,-25,cs,{
name = hr00;
})
);
}
);
};
layerId = "4352564A-7908-47C0-A6BF-B4155C5686B9";
name = "25. März 24, 23:21";
shapes = (
{
closed = 1;
nodes = (
(957,-24,o),
(1077,128,o),
(1084,308,c),
(919,308,l),
(905,201,o),
(851,117,o),
(671,117,cs),
(408,117,o),
(348,252,o),
(348,439,cs),
(348,618,ls),
(348,805,o),
(410,940,o),
(671,940,cs),
(842,940,o),
(897,861,o),
(911,756,c),
(1076,756,l),
(1071,929,o),
(943,1081,o),
(670,1081,cs),
(305,1081,o),
(172,863,o),
(172,532,cs),
(172,193,o),
(312,-25,o),
(651,-25,c,{
name = hr00;
})
);
}
);
width = 1229;
},
{
anchors = (
{
name = bottom;
pos = (617,0);
},
{
name = top;
pos = (643,1057);
}
);
associatedMasterId = "D7CFBB37-D300-46E8-A355-ECFF19545BAA";
layerId = "234B64F7-7944-4B4B-9DE9-8DCA09C46FB1";
name = "25. März 24, 19:45";
shapes = (
{
closed = 1;
nodes = (
(893,-25,o),
(1036,80,o),
(1112,233,c),
(883,364,l),
(838,279,o),
(776,217,o),
(660,217,cs),
(516,217,o),
(439,303,o),
(439,442,cs),
(439,615,ls),
(439,753,o),
(518,840,o),
(655,840,cs),
(768,840,o),
(825,778,o),
(863,696,c),
(1096,823,l),
(1022,977,o),
(887,1081,o),
(655,1081,cs),
(326,1081,o),
(123,871,o),
(123,529,cs),
(123,186,o),
(324,-25,o),
(657,-25,cs,{
name = hr00;
})
);
}
);
width = 1229;
},
{
anchors = (
{
name = bottom;
pos = (617,0);
},
{
name = top;
pos = (643,1057);
}
);
associatedMasterId = "D7CFBB37-D300-46E8-A355-ECFF19545BAA";
background = {
anchors = (
{
name = bottom;
pos = (617,0);
},
{
name = top;
pos = (643,1057);
}
);
shapes = (
{
closed = 1;
nodes = (
(893,-25,o),
(1036,80,o),
(1112,233,c),
(883,364,l),
(838,279,o),
(776,217,o),
(660,217,cs),
(516,217,o),
(439,303,o),
(439,442,cs),
(439,615,ls),
(439,753,o),
(518,840,o),
(655,840,cs),
(768,840,o),
(825,778,o),
(863,696,c),
(1096,823,l),
(1022,977,o),
(887,1081,o),
(655,1081,cs),
(326,1081,o),
(123,871,o),
(123,529,cs),
(123,186,o),
(324,-25,o),
(657,-25,cs,{
name = hr00;
})
);
}
);
};
layerId = "507BDA18-C669-4982-AA2C-8CA45894987E";
name = "25. März 24, 23:02";
shapes = (
{
closed = 1;
nodes = (
(884,-25,o),
(1097,55,o),
(1112,364,c),
(839,364,l),
(815,263,o),
(776,217,o),
(658,217,cs),
(517,217,o),
(439,303,o),
(439,442,cs),
(439,615,ls),
(439,753,o),
(517,840,o),
(657,840,cs),
(775,840,o),
(818,785,o),
(831,689,c),
(1103,689,l),
(1089,985,o),
(886,1081,o),
(658,1081,cs),
(326,1081,o),
(123,872,o),
(123,527,cs),
(123,186,o),
(321,-25,o),
(663,-25,cs,{
name = hr00;
})
);
}
);
width = 1229;
},
{
anchors = (
{
name = bottom;
pos = (617,0);
},
{
name = top;
pos = (643,1057);
}
);
associatedMasterId = "D7CFBB37-D300-46E8-A355-ECFF19545BAA";
background = {
anchors = (
{
name = bottom;
pos = (617,0);
},
{
name = top;
pos = (643,1057);
}
);
shapes = (
{
closed = 1;
nodes = (
(893,-25,o),
(1036,80,o),
(1112,233,c),
(883,364,l),
(838,279,o),
(776,217,o),
(660,217,cs),
(516,217,o),
(439,303,o),
(439,442,cs),
(439,615,ls),
(439,753,o),
(518,840,o),
(655,840,cs),
(768,840,o),
(825,778,o),
(863,696,c),
(1096,823,l),
(1022,977,o),
(887,1081,o),
(655,1081,cs),
(326,1081,o),
(123,871,o),
(123,529,cs),
(123,186,o),
(324,-25,o),
(657,-25,cs,{
name = hr00;
})
);
}
);
};
layerId = "B29455D3-48AE-412C-AB9E-4D885A11DAF4";
name = "25. März 24, 23:15";
shapes = (
{
closed = 1;
nodes = (
(884,-25,o),
(1097,70,o),
(1112,379,c),
(839,379,l),
(815,277,o),
(776,217,o),
(658,217,cs),
(517,217,o),
(439,281,o),
(439,442,cs),
(439,615,ls),
(439,775,o),
(517,840,o),
(657,840,cs),
(775,840,o),
(818,778,o),
(831,681,c),
(1103,681,l),
(1089,978,o),
(886,1081,o),
(658,1081,cs),
(326,1081,o),
(123,894,o),
(123,527,cs),
(123,164,o),
(321,-25,o),
(663,-25,cs,{
name = hr00;
})
);
}
);
width = 1229;
},
{
anchors = (
{
name = bottom;
pos = (620,0);
},
{
name = top;
pos = (641,1057);
}
);
associatedMasterId = "661A777E-9960-44AA-8623-3AD7C626B4F3";
background = {
shapes = (
{
closed = 1;
nodes = (
(863,-25,o),
(996,80,o),
(1057,221,c),
(940,301,l),
(887,186,o),
(795,117,o),
(653,117,cs),
(455,117,o),
(348,252,o),
(348,439,cs),
(348,618,ls),
(348,805,o),
(457,940,o),
(649,940,cs),
(780,940,o),
(871,876,o),
(909,768,c),
(1041,838,l),
(981,981,o),
(854,1081,o),
(649,1081,cs),
(351,1081,o),
(172,864,o),
(172,529,cs),
(172,195,o),
(348,-25,o),
(651,-25,cs,{
name = hr00;
})
);
}
);
};
layerId = "7CF6066D-366F-4DE0-80F2-D98314269565";
name = "26. März 24, 12:26";
shapes = (
{
closed = 1;
nodes = (
(957,-24,o),
(1077,128,o),
(1084,308,c),
(919,308,l),
(905,201,o),
(851,117,o),
(671,117,cs),
(444,117,o),
(348,252,o),
(348,439,cs),
(348,618,ls),
(348,805,o),
(447,940,o),
(671,940,cs),
(842,940,o),
(897,861,o),
(911,756,c),
(1076,756,l),
(1071,929,o),
(943,1081,o),
(670,1081,cs),
(342,1081,o),
(172,863,o),
(172,532,cs),
(172,193,o),
(348,-25,o),
(651,-25,c,{
name = hr00;
})
);
}
);
width = 1229;
},
{
anchors = (
{
name = bottom;
pos = (617,0);
},
{
name = top;
pos = (643,1057);
}
);
associatedMasterId = "D7CFBB37-D300-46E8-A355-ECFF19545BAA";
background = {
anchors = (
{
name = bottom;
pos = (617,0);
},
{
name = top;
pos = (643,1057);
}
);
};
layerId = "782CDF0F-1267-4B03-9288-CBA81A6C7104";
name = "7. Apr. 24, 23:00";
shapes = (
{
closed = 1;
nodes = (
(876,-25,o),
(1097,70,o),
(1112,379,c),
(839,379,l),
(815,277,o),
(769,217,o),
(644,217,cs),
(510,217,o),
(439,281,o),
(439,442,cs),
(439,615,ls),
(439,775,o),
(510,840,o),
(642,840,cs),
(767,840,o),
(818,778,o),
(831,681,c),
(1103,681,l),
(1089,978,o),
(879,1081,o),
(644,1081,cs),
(319,1081,o),
(123,894,o),
(123,527,cs),
(123,164,o),
(314,-25,o),
(648,-25,cs,{
name = hr00;
})
);
}
);
width = 1229;
},
{
anchors = (
{
name = bottom;
pos = (617,0);
},
{
name = top;
pos = (643,1057);
}
);
associatedMasterId = "D7CFBB37-D300-46E8-A355-ECFF19545BAA";
background = {
anchors = (
{
name = bottom;
pos = (617,0);
},
{
name = top;
pos = (643,1057);
}
);
shapes = (
{
closed = 1;
nodes = (
(893,-25,o),
(1036,80,o),
(1112,233,c),
(883,364,l),
(838,279,o),
(776,217,o),
(660,217,cs),
(516,217,o),
(439,303,o),
(439,442,cs),
(439,615,ls),
(439,753,o),
(518,840,o),
(655,840,cs),
(768,840,o),
(825,778,o),
(863,696,c),
(1096,823,l),
(1022,977,o),
(887,1081,o),
(655,1081,cs),
(326,1081,o),
(123,871,o),
(123,529,cs),
(123,186,o),
(324,-25,o),
(657,-25,cs,{
name = hr00;
})
);
}
);
};
layerId = "34E599D7-8897-4ED7-ACE0-FA7E7B24D7F7";
name = "7. Apr. 24, 23:04";
shapes = (
{
closed = 1;
nodes = (
(868,-25,o),
(1106,51,o),
(1119,357,c),
(839,357,l),
(810,261,o),
(763,217,o),
(656,217,cs),
(507,217,o),
(439,303,o),
(439,442,cs),
(439,615,ls),
(439,753,o),
(509,840,o),
(653,840,cs),
(760,840,o),
(811,792,o),
(831,696,c),
(1111,696,l),
(1097,991,o),
(879,1081,o),
(655,1081,cs),
(318,1081,o),
(123,873,o),
(123,527,cs),
(123,186,o),
(303,-25,o),
(656,-25,cs,{
name = hr00;
})
);
}
);
width = 1229;
},
{
anchors = (
{
name = bottom;
pos = (617,0);
},
{
name = top;
pos = (643,1057);
}
);
background = {
anchors = (
{
name = bottom;
pos = (617,0);
},
{
name = top;
pos = (643,1057);
}
);
shapes = (
{
pos = (52,0);
ref = o;
}
);
};
layerId = "D7CFBB37-D300-46E8-A355-ECFF19545BAA";
name = Bold;
shapes = (
{
closed = 1;
nodes = (
(936,-25,o),
(1111,145,o),
(1111,401,c),
(840,401,l),
(825,281,o),
(773,201,o),
(638,201,cs),
(503,201,o),
(435,281,o),
(435,444,cs),
(435,612,ls),
(435,775,o),
(503,856,o),
(638,856,cs),
(773,856,o),
(829,777,o),
(840,656,c),
(1111,656,l),
(1111,912,o),
(936,1081,o),
(634,1081,cs),
(297,1081,o),
(121,871,o),
(121,529,cs),
(121,186,o),
(297,-25,o),
(634,-25,cs,{
name = hr00;
})
);
}
);
width = 1229;
},
{
anchors = (
{
name = bottom;
pos = (620,0);
},
{
name = top;
pos = (641,1057);
}
);
associatedMasterId = "661A777E-9960-44AA-8623-3AD7C626B4F3";
layerId = "C960D350-FBB5-4FC4-88A9-C4349A581C1D";
name = "7. Apr. 24, 23:05";
shapes = (
{
closed = 1;
nodes = (
(888,-25,o),
(1043,167,o),
(1043,380,c),
(897,380,l),
(890,233,o),
(796,117,o),
(615,117,cs),
(432,117,o),
(309,225,o),
(309,452,cs),
(309,604,ls),
(309,831,o),
(432,940,o),
(615,940,cs),
(796,940,o),
(890,831,o),
(897,677,c),
(1044,677,l),
(1043,896,o),
(888,1081,o),
(615,1081,cs),
(317,1081,o),
(135,864,o),
(135,529,cs),
(135,193,o),
(317,-25,o),
(615,-25,cs,{
name = hr00;
})
);
}
);
width = 1229;
},
{
anchors = (
{
name = bottom;
pos = (620,0);
},
{
name = top;
pos = (641,1057);
}
);
associatedMasterId = "661A777E-9960-44AA-8623-3AD7C626B4F3";
background = {
shapes = (
{
closed = 1;
nodes = (
(916,-25,o),
(1092,143,o),
(1092,529,cs),
(1092,914,o),
(918,1081,o),
(605,1081,cs),
(321,1081,o),
(196,915,o),
(188,713,c),
(353,713,l),
(369,848,o),
(422,940,o),
(605,940,cs),
(812,940,o),
(916,856,o),
(916,618,cs),
(916,439,ls),
(916,201,o),
(812,117,o),
(607,117,cs),
(413,117,o),
(361,214,o),
(345,352,c),
(180,352,l),
(187,150,o),
(307,-24,o),
(613,-25,c,{
name = hr00;
})
);
}
);
};
layerId = "2D013AC8-7347-4609-A3A3-F188401C22E2";
name = "7. Apr. 24, 23:14";
shapes = (
{
closed = 1;
nodes = (
(957,-24,o),
(1077,150,o),
(1084,352,c),
(919,352,l),
(903,214,o),
(851,117,o),
(657,117,cs),
(452,117,o),
(348,201,o),
(348,439,cs),
(348,618,ls),
(348,856,o),
(452,940,o),
(659,940,cs),
(842,940,o),
(895,848,o),
(911,713,c),
(1076,713,l),
(1068,915,o),
(943,1081,o),
(659,1081,cs),
(346,1081,o),
(172,914,o),
(172,529,cs),
(172,143,o),
(348,-25,o),
(651,-25,c,{
name = hr00;
})
);
}
);
width = 1229;
},
{
anchors = (
{
name = bottom;
pos = (620,0);
},
{
name = top;
pos = (641,1057);
}
);
background = {
shapes = (
{
pos = (54,0);
ref = o;
}
);
};
layerId = "661A777E-9960-44AA-8623-3AD7C626B4F3";
name = Regular;
shapes = (
{
closed = 1;
nodes = (
(947,-24,o),
(1092,150,o),
(1099,352,c),
(934,352,l),
(918,215,o),
(836,117,o),
(644,117,cs),
(452,117,o),
(348,215,o),
(348,439,cs),
(348,618,ls),
(348,856,o),
(467,940,o),
(644,940,cs),
(828,940,o),
(909,848,o),
(925,713,c),
(1090,713,l),
(1083,915,o),
(933,1081,o),
(649,1081,cs),
(365,1081,o),
(175,914,o),
(175,529,cs),
(175,158,o),
(353,-25,o),
(641,-25,c,{
name = hr00;
})
);
}
);
width = 1229;
}
);
unicode = 99;
}
{
glyphname = d;
layers = (
{
anchors = (
{
name = bottom;
pos = (584,0);
},
{
name = topright;
pos = (1116,1516);
}
);
layerId = master01;
shapes = (
{
closed = 1;
nodes = (
(973,0,l),
(973,1516,l),
(929,1516,l),
(929,0,l)
);
},
{
ref = _d;
}
);
width = 1229;
},
{
anchors = (
{
name = bottom;
pos = (594,0);
},
{
name = topright;
pos = (1212,1516);
}
);
layerId = "D7CFBB37-D300-46E8-A355-ECFF19545BAA";
shapes = (
{
closed = 1;
nodes = (
(1108,0,l),
(1108,1516,l),
(805,1516,l),
(805,0,l)
);
},
{
ref = _d;
}
);
width = 1229;
},
{
anchors = (
{
name = bottom;
pos = (577,0);
},
{
name = topright;
pos = (1161,1516);
}
);
associatedMasterId = "661A777E-9960-44AA-8623-3AD7C626B4F3";
background = {
shapes = (
{
closed = 1;
nodes = (
(939,-25,o),
(1085,193,o),
(1085,529,cs),
(1085,864,o),
(939,1081,o),
(606,1081,cs),
(272,1081,o),
(127,864,o),
(127,529,cs),
(127,193,o),
(272,-25,o),
(606,-25,cs,{
name = hr00;
})
);
},
{
closed = 1;
nodes = (
(387,117,o),
(300,225,o),
(300,452,cs),
(300,604,ls),
(300,831,o),
(387,940,o),
(606,940,cs),
(824,940,o),
(911,831,o),
(911,604,cs),
(911,452,ls),
(911,225,o),
(824,117,o),
(606,117,cs)
);
}
);
};
layerId = "153522E2-E017-4639-A341-3DA634C7A77E";
name = "7. Apr. 24, 23:10";
shapes = (
{
closed = 1;
nodes = (
(1034,0,l),
(1034,1516,l),
(871,1516,l),
(871,885,l),
(863,885,l),
(795,1014,o),
(706,1081,o),
(537,1081,cs),
(351,1081,o),
(123,911,o),
(123,529,cs),
(123,146,o),
(351,-25,o),
(537,-25,cs,{
name = hr01;
}),
(706,-25,o),
(795,43,o),
(863,172,c,{
name = hr02;
}),
(871,172,l),
(871,0,l)
);
},
{
closed = 1;
nodes = (
(409,121,o),
(299,212,o),
(299,439,cs),
(299,618,ls),
(299,845,o),
(409,936,o),
(600,936,cs),
(767,936,o),
(871,860,o),
(871,719,c),
(871,338,l),
(871,196,o),
(767,121,o),
(600,121,cs,{
name = hr03;
})
);
}
);
width = 1229;
},
{
anchors = (
{
name = bottom;
pos = (577,0);
},
{
name = topright;
pos = (1161,1516);
}
);
associatedMasterId = "661A777E-9960-44AA-8623-3AD7C626B4F3";
layerId = "FB1B6516-DF56-4256-8229-A782477C48E2";
name = "7. Apr. 24, 23:18";
shapes = (
{
closed = 1;
nodes = (
(1034,0,l),
(1034,1516,l),
(871,1516,l),
(871,885,l),
(863,885,l),
(795,1014,o),
(684,1081,o),
(537,1081,cs),
(279,1081,o),
(123,874,o),
(123,529,cs),
(123,183,o),
(279,-25,o),
(537,-25,cs,{
name = hr01;
}),
(684,-25,o),
(795,43,o),
(863,172,c,{
name = hr02;
}),
(871,172,l),
(871,0,l)
);
},
{
closed = 1;
nodes = (
(409,121,o),
(299,248,o),
(299,439,cs),
(299,618,ls),
(299,809,o),
(409,936,o),
(600,936,cs),
(745,936,o),
(871,860,o),
(871,719,c),
(871,338,l),
(871,196,o),
(745,121,o),
(600,121,cs,{
name = hr03;
})
);
}
);
width = 1229;
},
{
anchors = (
{
name = bottom;
pos = (577,0);
},
{
name = topright;
pos = (1161,1516);
}
);
background = {
shapes = (
{
closed = 1;
nodes = (
(939,-25,o),
(1085,193,o),
(1085,529,cs),
(1085,864,o),
(939,1081,o),
(606,1081,cs),
(272,1081,o),
(127,864,o),
(127,529,cs),
(127,193,o),
(272,-25,o),
(606,-25,cs,{
name = hr00;
})
);
},
{
closed = 1;
nodes = (
(387,117,o),
(300,225,o),
(300,452,cs),
(300,604,ls),
(300,831,o),
(387,940,o),
(606,940,cs),
(824,940,o),
(911,831,o),
(911,604,cs),
(911,452,ls),
(911,225,o),
(824,117,o),
(606,117,cs)
);
}
);
};
layerId = "661A777E-9960-44AA-8623-3AD7C626B4F3";
name = Regular;
shapes = (
{
closed = 1;
nodes = (
(1034,0,l),
(1034,1516,l),
(871,1516,l),
(871,0,l)
);
},
{
ref = _d;
}
);
width = 1229;
}
);
unicode = 100;
}
